<?xml version="1.0" encoding="utf-8"?>
<!-- Generator: Adobe Illustrator 24.3.0, SVG Export Plug-In . SVG Version: 6.00 Build 0)  -->
<svg version="1.1" xmlns="http://www.w3.org/2000/svg" xmlns:xlink="http://www.w3.org/1999/xlink" x="0px" y="0px"
	 viewBox="0 0 426 418" style="enable-background:new 0 0 426 418;" xml:space="preserve">
<style type="text/css">
	.st0{fill:#423783;}
	.st1{font-family:'Roboto-Regular';}
	.st2{font-size:64.3907px;}
	.st3{font-size:22.7776px;}
	.st4{opacity:0.49;}
	.st5{opacity:0.58;}
	.st6{fill:#83BDF1;}
	.st7{fill:#F9D0BB;}
	.st8{fill:#FFC23E;}
	.st9{fill:#E95272;}
	.st10{fill:#CC1A63;}
	.st11{opacity:0.58;fill:#F49A98;}
	.st12{fill:#F49A98;}
	.st13{opacity:0.2;fill:#CC1A63;}
	.st14{fill:#FFFFFF;}
	.st15{fill:#F9DECC;}
	.st16{fill:#560000;}
	.st17{opacity:0.31;fill:#560000;}
	.st18{fill:#E02F00;}
	.st19{fill:#FF9A3E;}
	.st20{opacity:0.51;fill:#FF9A3E;}
	.st21{fill:#FFD23E;}
	.st22{fill:#C9FFFF;}
	.st23{fill:#FF7F3E;}
	.st24{fill:#FF923E;}
	.st25{fill:#470000;}
	.st26{opacity:0.29;fill:#FFC23E;}
</style>
<g id="OBJECTS">
	<text transform="matrix(1 0 0 1 50.8519 370.5118)" class="st0 st1 st2">404 ERROR</text>
	<text transform="matrix(1 0 0 1 127.3886 396.3847)" class="st0 st1 st3">page not found...</text>
	<g>
		<path class="st0" d="M385.5,293c12.9-25.8,20.1-55,20.1-85.8c0-106.4-86.3-192.7-192.7-192.7S20.3,100.7,20.3,207.1
			c0,30.8,7.3,60,20.1,85.8H385.5z"/>
		<g class="st4">
			<g class="st5">
				<path class="st6" d="M326.6,314.1C326.6,314.1,326.6,314.1,326.6,314.1c0.1-0.1,0.1-0.1,0.1-0.2c0-0.1,0.1-0.1,0.1-0.2
					c0-0.1,0.1-0.1,0.1-0.2c0,0,0,0,0-0.1c0,0,0,0,0,0c0,0,0-0.1,0.1-0.1c0-0.1,0.1-0.1,0.1-0.2c0-0.1,0.1-0.2,0.1-0.3
					c0-0.1,0.1-0.1,0.1-0.2c0,0,0,0,0,0c0,0,0,0,0,0c0-0.1,0.1-0.1,0.1-0.2c0-0.1,0.1-0.2,0.1-0.2c0-0.1,0.1-0.2,0.1-0.3
					c0-0.1,0.1-0.2,0.1-0.3c0-0.1,0.1-0.2,0.1-0.3c0-0.1,0.1-0.2,0.1-0.3c0-0.1,0.1-0.2,0.1-0.3c0-0.1,0-0.2,0.1-0.3
					c0-0.1,0.1-0.2,0.1-0.4c0-0.1,0-0.2,0.1-0.3c0-0.1,0.1-0.2,0.1-0.4c0-0.1,0-0.2,0.1-0.3c0-0.1,0-0.3,0.1-0.4
					c0-0.1,0-0.2,0.1-0.3c0-0.1,0-0.3,0.1-0.4c0-0.1,0-0.2,0.1-0.4c0-0.1,0-0.3,0.1-0.4c0-0.1,0-0.3,0-0.4c0-0.1,0-0.3,0.1-0.4
					c0-0.1,0-0.3,0-0.4c0-0.1,0-0.3,0-0.4c0-0.1,0-0.3,0-0.4c0-0.1,0-0.3,0-0.4c0-0.1,0-0.3,0-0.4c0-0.1,0-0.3,0-0.4
					c0-0.1,0-0.3,0-0.4c0-0.1,0-0.3,0-0.4c0-0.2,0-0.3,0-0.5c0-0.1,0-0.3,0-0.4c0-0.2,0-0.3,0-0.5c0-0.1,0-0.3,0-0.4
					c0-0.2,0-0.3,0-0.5c0-0.1,0-0.3,0-0.4c0-0.2,0-0.3,0-0.5c0-0.1,0-0.3,0-0.4c0-0.1,0-0.2,0-0.3c0-0.1,0-0.1,0-0.2
					c0-0.1,0-0.3,0-0.4c0-0.2,0-0.4,0-0.6c0-0.1,0-0.3,0-0.4c0-0.1,0-0.3,0-0.4c0-0.1,0-0.1,0-0.2c0-0.1,0-0.2,0-0.4
					c0-0.2,0-0.4,0-0.6c0-0.1,0-0.2,0-0.3c0-0.2,0-0.4,0-0.7c0-0.1,0-0.2,0-0.3c0-0.2,0-0.5,0-0.7c0-0.1,0-0.2,0-0.2
					c0-0.2,0-0.5,0-0.7c0-0.1,0-0.1,0-0.2c0-0.3,0-0.5,0-0.8c0,0,0-0.1,0-0.1c-0.2-2.6-0.4-5.1-0.8-7.4c-0.2-1.5-0.5-2.9-0.8-4.2
					c-0.2-0.8-0.4-1.5-0.6-2.2c-0.5-1.7-1.1-3-1.8-3.8l0,0c0-0.1-0.1-0.1-0.1-0.2c0-0.1-0.1-0.1-0.1-0.1c0,0,0,0,0,0
					c-0.1-0.1-0.2-0.2-0.3-0.2c0,0,0,0,0,0c0,0-0.1-0.1-0.1-0.1c0,0-0.1,0-0.1-0.1c0,0,0,0,0,0c-0.1-0.1-0.2-0.1-0.3-0.1
					c0,0,0,0,0,0c-0.1,0-0.2-0.1-0.3-0.1c0,0,0,0,0,0c-0.1,0-0.1,0-0.2,0c0,0-0.1,0-0.1,0c0,0,0,0,0,0c-0.1,0-0.2,0-0.3,0
					c0,0,0,0,0,0c-0.1,0-0.2,0.1-0.3,0.1c0,0,0,0,0,0c-0.3,0.1-0.6,0.3-0.9,0.6c-0.9,0.9-1.7,1.9-2.3,3.1c-0.3,0.6-0.6,1.2-0.9,1.9
					c-0.5,1.3-0.9,2.7-1.2,4.1c-0.1,0.4-0.1,0.7-0.2,1.1c-0.1,0.4-0.1,0.8-0.2,1.2c-0.1,0.6-0.2,1.3-0.2,1.9c0,0.4-0.1,0.8-0.1,1.2
					c0,0.7-0.1,1.4-0.1,2.1c0,0.7,0,1.4,0,2c0,2.6,0.2,4.8,0.3,6.1c0,0.2,0,0.3,0,0.4c0.1,0.5,0.1,0.8,0.1,0.8s-3-1.8-7.3-4.4
					c-0.1,0-0.1-0.1-0.2-0.1c-0.6-0.4-1.2-0.7-1.9-1.1c0,0,0,0,0,0c-0.6-0.4-1.2-0.7-1.8-1.1c-0.1-0.1-0.3-0.2-0.4-0.3
					c-0.6-0.3-1.1-0.7-1.7-1c-0.1-0.1-0.2-0.1-0.4-0.2c-0.7-0.4-1.3-0.8-2-1.2c-0.1-0.1-0.3-0.2-0.4-0.2c-0.6-0.3-1.2-0.7-1.7-1
					c-0.1-0.1-0.3-0.2-0.4-0.2c-0.7-0.4-1.4-0.8-2.1-1.2c0,0,0,0,0,0l0,0c-4.1-2.4-8-4.7-10.8-6.3c2.9-0.8,4.9-1.1,4.9-1.1v0l0,0
					c0,0-34.6-22-41.5-29.3h0c0,0,0,0-0.1-0.1c-0.1-0.1-0.2-0.2-0.3-0.3c-0.2-0.2-0.3-0.4-0.4-0.6c0,0,0,0,0,0c0,0,0,0,0,0
					c-0.1-0.2-0.2-0.4-0.4-0.6c-0.1-0.1-0.1-0.2-0.2-0.4c-0.1-0.1-0.1-0.2-0.2-0.3c-0.1-0.2-0.2-0.4-0.3-0.6c0-0.1,0-0.1-0.1-0.2
					c-0.1-0.3-0.2-0.5-0.3-0.8l0,0c-1.5-3.9-3.3-10.4-4.8-17.2l1.7-0.7c0.1,0.3,0.3,0.5,0.4,0.8c0,0,0,0,0,0
					c2.1,3.6,4.6,7.2,7.6,10.3l0,0l0,0c0.9,1,1.9,1.9,2.9,2.8c0,0,0,0,0,0l0,0c0.9,0.8,1.9,1.6,2.9,2.4c0,0,0.1,0,0.1,0.1
					c1,0.7,2,1.4,3,2c0.1,0,0.1,0.1,0.2,0.1c0.4,0.2,0.9,0.5,1.4,0.7c0.1,0,0.2,0.1,0.3,0.1c0.5,0.2,1,0.5,1.6,0.7
					c0.1,0,0.2,0.1,0.2,0.1c0.4,0.2,0.9,0.3,1.3,0.5c0.1,0,0.3,0.1,0.4,0.1c0.5,0.2,1.1,0.3,1.6,0.5c0.4,0.1,0.7,0.2,1.1,0.2
					c0.1,0,0.3,0,0.4,0.1c2.1,0.3,4.1,0.1,5.9-0.6c3-1,5.6-3.1,7.9-5.5c0.6-0.6,1.1-1.2,1.7-1.9c4.9-5.9,4.8-12.5,6.5-19.3l0.2,0.5
					l0,0l0.2,0.6l0.4,1.1l0,0l0.9,2.6l0,0l0.3,1l2.3-9.3c0.4,0,0.8,0,1.1-0.1c0.1,0,0.1,0,0.2-0.1c0.2-0.1,0.5-0.1,0.7-0.2
					c0.2-0.1,0.3-0.1,0.5-0.2c0.1,0,0.2-0.1,0.4-0.1c0.2-0.1,0.4-0.2,0.6-0.2c0.1,0,0.1-0.1,0.2-0.1c0.2-0.1,0.4-0.2,0.6-0.3
					c0,0,0.1,0,0.1,0c0.2-0.1,0.4-0.3,0.6-0.4c0,0,0,0,0,0c5.5-3.7,3.5-11.7-0.4-17.3l2-8.2l0,0l0.1-0.3l0.2-1h2.4v-2.8h-26.5v2.8
					h2.5l1.5,4.6l0,0l0.5,1.5l0,0l0.1,0.2l0,0l0,0l0.2,0.8l0.1,0.3l0.3,0.9c-10.6,5-2.7,19.3-2.7,19.3c0.6,0.4,1.1,0.8,1.6,1.1
					c-1.1,4.7-0.9,9.9-3.2,14.1c-1.1,2-2.7,3.8-4.4,5.3c-2.5,2.3-4.7,2.2-7.6,0.7c-5.4-2.8-10-7.2-13.4-12.3c-0.5-0.8-1-1.6-1.5-2.4
					l3.6-1.5c0,0-0.3-1-0.9-2.4l0,0c0,0,0,0,0,0c-0.2-0.5-0.5-1.1-0.8-1.7c0,0,0-0.1-0.1-0.1c-0.3-0.6-0.7-1.3-1.1-2
					c0,0,0-0.1-0.1-0.1c-0.2-0.3-0.4-0.6-0.6-0.9c0,0-0.1-0.1-0.1-0.1c-0.4-0.7-0.9-1.4-1.5-2.1c0-0.1-0.1-0.1-0.1-0.2
					c-0.6-0.7-1.2-1.4-1.8-2.1c0,0-0.1-0.1-0.1-0.1c-0.3-0.3-0.6-0.6-1-0.9c0,0,0,0-0.1-0.1c-0.7-0.7-1.5-1.3-2.3-1.8
					c0,0-0.1-0.1-0.1-0.1c-0.8-0.6-1.7-1.1-2.7-1.5c0,0-0.1,0-0.1-0.1c-0.5-0.2-0.9-0.4-1.4-0.6c0,0,0,0-0.1,0
					c-0.5-0.2-1.1-0.3-1.6-0.5l0,0v0c-0.7-0.2-1.5-0.3-2.3-0.4c-6.4-4-12.4-5.7-18-5.9c0-0.3,0.1-0.5,0.1-0.8c0-0.1,0-0.2,0-0.3
					c0.1-0.5,0.1-1.1,0.2-1.7c0-0.1,0-0.1,0-0.2c0-0.5,0.1-1.1,0.1-1.7c0-0.1,0-0.1,0-0.2c12.7-1.4,24.3-5.3,31.1-11.6
					c5.6-0.4,16.1-2.5,17.5-11.8c1.2-8.5-3.3-10.4-6.5-10.7c0.1-0.1,0.1-0.2,0.2-0.3c1.7-3.4,3.6-4.2,3.4-13.7c0-1-0.1-2.3-0.2-3.7
					c3.1,1.8,9,5.1,10.2,3.9c1.5-1.5-0.9-7.3-10.4-5.5c-0.6-4.8-2.1-10.9-5.8-16.7c0.1,0,0.1-0.1,0.2-0.2c0.8-0.8,1.2-2,1.3-3.4
					c3.1,1.7,6.3,2.6,9.6,3.1c-1.1,0.7-2.3,1.5-3.5,2.5c0,0,15.7,2.1,16.7-0.6c0.2-0.7,0-1.5-0.5-2.2c10.3-1.8,18.4-6.3,18.4-6.3
					l-10.4-0.6c6.3-2.5,17.7-9.8,17.7-9.8l5.7,0.9c-2.9-5.2-7.3-8.9-11.8-11.5v0c0,0,0,0,0,0c-1-0.6-1.9-1.1-2.9-1.5c0,0,0,0,0,0
					c-0.5-0.2-0.9-0.4-1.4-0.6c0,0,0,0,0,0c-3.2-1.4-6.2-2.3-8.2-2.8c0,0,0,0,0,0c-0.3-0.1-0.5-0.1-0.8-0.2c0,0,0,0,0,0
					c-0.5-0.1-0.9-0.2-1.2-0.3c0,0,0,0,0,0c-0.1,0-0.2,0-0.3-0.1c0,0-0.1,0-0.1,0c-0.1,0-0.1,0-0.2,0c0,0,0,0-0.1,0c0,0,0,0,0,0
					c0,0,0,0,0,0l4.4-3.8c-0.3-0.1-0.6-0.1-0.9-0.1l0,0c0,0,0,0,0,0C277.8,86,267,92.9,267,92.9l0.9-4.7c-0.6,0.3-1.1,0.5-1.6,0.8
					c-0.2,0.1-0.3,0.2-0.5,0.3c-0.3,0.2-0.7,0.4-1,0.6c-0.2,0.1-0.4,0.3-0.6,0.4c-0.3,0.2-0.6,0.4-0.8,0.6c-0.2,0.1-0.4,0.3-0.5,0.4
					c-0.3,0.2-0.5,0.4-0.7,0.6c-0.2,0.1-0.3,0.3-0.5,0.4c-0.2,0.2-0.5,0.4-0.7,0.6c-0.2,0.2-0.3,0.3-0.5,0.5
					c-0.2,0.2-0.4,0.4-0.6,0.6c-0.1,0.2-0.3,0.3-0.4,0.5c-0.2,0.2-0.4,0.5-0.6,0.7c-0.1,0.1-0.2,0.3-0.4,0.4
					c-0.2,0.2-0.4,0.5-0.5,0.7c-0.1,0.1-0.2,0.3-0.3,0.4c-0.2,0.3-0.4,0.6-0.5,0.8c-0.1,0.1-0.1,0.2-0.2,0.3c-0.2,0.3-0.4,0.7-0.6,1
					c0,0-0.1,0.1-0.1,0.1c-0.9,1.6-1.5,3.3-2,4.9c0,0,0,0,0,0c-0.1,0.4-0.2,0.8-0.3,1.2c0,0,0,0,0,0c-0.1,0.4-0.2,0.8-0.3,1.2
					c0,0,0,0,0,0l0,0c-0.5,2.8-0.6,5.3-0.5,7c-3-0.7-3.9,0.5-3.9,0.5c-0.3,0.2-0.5,0.5-0.6,0.7c-6.2-4-14.6-6.8-26.1-7.6l0.5,0.9
					c-1.5-0.8-3.3-1.6-5.6-2.1c-0.1,0-0.1,0-0.2,0c-0.4-0.1-0.7-0.2-1.1-0.2c-0.1,0-0.2,0-0.3-0.1c-0.4-0.1-0.8-0.1-1.2-0.2
					c-0.1,0-0.2,0-0.2,0c-1-0.1-2-0.2-3-0.3c-0.1,0-0.3,0-0.4,0c-0.4,0-0.8,0-1.2,0c-0.2,0-0.4,0-0.5,0c-0.4,0-0.8,0-1.2,0
					c-0.2,0-0.4,0-0.6,0c-0.5,0-0.9,0.1-1.4,0.1c-0.1,0-0.3,0-0.4,0c-0.6,0.1-1.2,0.1-1.8,0.2c-0.2,0-0.3,0-0.5,0.1
					c-0.5,0.1-1,0.1-1.5,0.2c-0.2,0-0.5,0.1-0.7,0.1c-0.4,0.1-0.9,0.2-1.3,0.3c-0.2,0.1-0.5,0.1-0.7,0.2c-0.5,0.1-0.9,0.2-1.4,0.4
					c-0.2,0.1-0.4,0.1-0.7,0.2c-0.7,0.2-1.4,0.4-2.2,0.6c-0.1,0-0.3,0.1-0.5,0.2c0,0,0,0,0,0c-0.5,0.2-1.1,0.4-1.6,0.7c0,0,0,0,0,0
					l0,0c-0.6,0.3-1.2,0.8-1.6,1.4c-0.1,0-0.2,0-0.4,0.1c-0.4,0.1-0.8,0.1-1.2,0.2c-0.8,0.1-1.7,0.3-2.5,0.5l0,0
					c-6.7,1.4-12,3.6-16.2,6.3c-0.2-0.3-0.4-0.5-0.6-0.7c0,0-0.8-1.3-3.9-0.5c0.3-3.6-0.2-10-3.9-15.9c0-0.1-0.1-0.1-0.1-0.2
					c-0.3-0.5-0.6-0.9-0.9-1.4c0,0,0,0,0,0c-0.4-0.5-0.7-0.9-1.1-1.4c-0.1-0.1-0.1-0.1-0.2-0.2c-0.3-0.4-0.7-0.7-1-1.1
					c-0.1-0.1-0.2-0.2-0.3-0.3c-0.4-0.4-0.8-0.8-1.3-1.2c0,0-0.1-0.1-0.1-0.1c-0.5-0.4-1-0.8-1.5-1.2c-0.1-0.1-0.3-0.2-0.4-0.3
					c-0.4-0.3-0.9-0.6-1.3-0.8c-0.2-0.1-0.3-0.2-0.5-0.3c-0.6-0.3-1.2-0.7-1.9-1v0l0,0l0.9,4.7c0,0-0.2-0.1-0.5-0.3
					c-0.2-0.1-0.4-0.2-0.6-0.3c-0.1-0.1-0.3-0.1-0.4-0.2c-0.6-0.3-1.3-0.6-2.1-1c-0.2-0.1-0.4-0.2-0.7-0.3c-0.4-0.2-0.9-0.4-1.4-0.6
					c-0.5-0.2-1-0.4-1.6-0.6c-0.3-0.1-0.6-0.2-0.9-0.3c-0.6-0.2-1.2-0.4-1.8-0.5c-0.3-0.1-0.6-0.2-1-0.2c-3.9-1-8.6-1.5-13.6-0.6h0
					l0,0l4.4,3.8c0,0,0,0,0,0c0,0,0,0,0,0c0,0-0.1,0-0.1,0c0,0,0,0-0.1,0c0,0-0.1,0-0.1,0c-0.2,0-0.4,0.1-0.7,0.1c0,0,0,0,0,0
					c-0.1,0-0.2,0-0.4,0.1c0,0,0,0,0,0c-3.4,0.7-11.7,3-18.6,8.6c0,0,0,0,0,0l0,0c-2.7,2.2-5.1,4.9-7,8.2l5.7-0.9
					c0,0,11.4,7.3,17.7,9.8l-10.4,0.6c0,0,6.6,3.7,15.5,5.8c-0.5,0.7-0.7,1.5-0.5,2.1c1,2.7,16.7,0.6,16.7,0.6
					c-0.7-0.6-1.5-1.2-2.2-1.7c3.8-0.4,7.6-1.4,11.2-3.3c0,1.3,0.4,2.5,1.3,3.4c0.1,0.1,0.1,0.1,0.2,0.2c-0.9,1.4-1.6,2.8-2.3,4.2
					c-2.3,0.9-3.2,2.8-2.6,3.8c0.1,0.2,0.5,0.4,0.9,0.5c-1.8,5.5-2.1,10.5-2.2,13.6c-0.2,7.7,1,9.7,2.4,12
					c-3.2,0.3-7.8,2.2-6.5,10.7c1.3,8.8,10.7,11.1,16.4,11.7c7.8,7.8,23,12,38.8,12.4c0,0.1,0,0.2,0,0.4c0,0.2,0,0.3,0,0.5
					c0,0.2,0,0.5,0.1,0.7c0,0.2,0,0.4,0.1,0.7c0,0.1,0,0.3,0.1,0.4c0,0.2,0.1,0.5,0.1,0.7c0,0.1,0,0.3,0.1,0.4
					c0,0.2,0.1,0.4,0.1,0.7c-0.6,0.4-1.8,1.4-3.2,2.6c-5.4,1.9-9.9,4.1-13.2,4.9c0,0,0,0.5,0,1.4c-0.6,0.1-1.4,0.3-2.4,0.9l0,0h0
					c-0.1,0.1-0.3,0.2-0.4,0.2c0,0,0,0,0,0c-0.1,0.1-0.3,0.2-0.5,0.3c0,0,0,0,0,0c-0.2,0.1-0.3,0.2-0.5,0.3c0,0,0,0,0,0
					c-0.2,0.1-0.4,0.3-0.5,0.4c0,0,0,0,0,0c-0.2,0.1-0.4,0.3-0.6,0.5c0,0,0,0,0,0c-2.2,1.9-4.8,4.9-7.8,10c0,0,0,0,0,0h0
					c-0.6,1-1.2,2.1-1.8,3.3l4.6,2.4c-4.6,15-12.5,32.7-27,38c-1.2,0.4-2.1,1.2-2.7,2c-1.7-0.1-17.5,3.3-20.4,17.8
					c0,0,0.2,3.5,3,3.7c2.7,0.2,8.4-10.1,10.4-10.6c0.1,0,0.2,0,0.2,0c0.1,0.3,0.2,0.7,0.3,1c-0.4,1.2-1.2,3,0,4
					c1.1,0.8,7.4-2.8,10.2-6.9c0.6,0,1.2-0.1,1.9-0.4c0.4-0.1,0.7-0.3,1.1-0.4c0.4,0.1,0.9,0.3,1.3,0.5c-0.1,0.1-0.2,0.1-0.3,0.2
					c-0.1,0.1-0.3,0.1-0.4,0.2c-0.1,0.1-0.2,0.1-0.4,0.2l0,0c0,0,0,0,0,0c0,0-0.1,0-0.1,0.1c-0.1,0.1-0.2,0.1-0.4,0.2
					c-0.2,0.1-0.4,0.2-0.6,0.3c-0.1,0.1-0.2,0.1-0.3,0.2c-0.3,0.1-0.5,0.3-0.8,0.4c0,0,0,0,0,0l0,0c-0.2,0.1-0.4,0.2-0.7,0.4
					c-0.1,0-0.2,0.1-0.2,0.1c-0.3,0.2-0.6,0.3-0.9,0.5c-0.1,0.1-0.2,0.1-0.3,0.2c-0.3,0.2-0.7,0.4-1,0.6c-0.1,0.1-0.2,0.1-0.3,0.2
					c-0.4,0.2-0.7,0.4-1.1,0.6c-0.1,0-0.2,0.1-0.3,0.1c-0.4,0.2-0.8,0.4-1.2,0.7c-0.1,0-0.1,0.1-0.2,0.1c-0.4,0.2-0.8,0.5-1.3,0.7
					c0,0,0,0,0,0v0c-2.9,1.7-5.9,3.5-8.9,5.3v0c0,0,0,0,0,0c-0.2,0.1-0.3,0.2-0.5,0.3c-0.3,0.2-0.6,0.4-1,0.6
					c-0.2,0.1-0.5,0.3-0.7,0.4c-0.3,0.2-0.5,0.3-0.8,0.5c-0.2,0.1-0.3,0.2-0.5,0.3c-0.3,0.2-0.6,0.4-0.9,0.6
					c-0.2,0.1-0.3,0.2-0.5,0.3c-0.3,0.2-0.6,0.3-0.8,0.5c-0.2,0.1-0.4,0.2-0.6,0.3c-0.2,0.1-0.5,0.3-0.7,0.4
					c-0.2,0.1-0.3,0.2-0.5,0.3c-1.2,0.7-2.3,1.4-3.3,2c0,0,0,0,0,0c-0.3,0.2-0.6,0.4-0.8,0.5c0,0,0,0,0,0c-0.3,0.2-0.5,0.3-0.7,0.4
					c0,0,0,0,0,0c-0.9,0.5-1.4,0.9-1.4,0.9c0,0,0.8-6,0.3-12.6c-0.1-0.7-0.1-1.5-0.3-2.2c-0.1-0.7-0.2-1.5-0.4-2.2
					c-0.3-1.4-0.7-2.8-1.2-4.1c-0.3-0.6-0.5-1.3-0.9-1.9c-0.6-1.2-1.4-2.2-2.3-3.1c-0.3-0.3-0.6-0.5-0.9-0.6c0,0,0,0,0,0
					c-0.1,0-0.2-0.1-0.3-0.1c0,0,0,0,0,0c-0.1,0-0.2,0-0.3,0c0,0,0,0,0,0c0,0-0.1,0-0.1,0c-0.1,0-0.1,0-0.2,0c0,0,0,0,0,0
					c-0.1,0-0.2,0-0.3,0.1c0,0,0,0,0,0c-0.1,0-0.2,0.1-0.3,0.1c0,0,0,0,0,0c-0.1,0.1-0.2,0.1-0.3,0.2c0,0,0,0,0,0
					c-0.1,0.1-0.2,0.2-0.3,0.2c0,0,0,0,0,0c-0.1,0.1-0.2,0.2-0.3,0.3l0,0c-1.8,2.2-3,7.6-3.7,13.9c-0.1,1.2-0.2,2.4-0.3,3.7
					c0,0,0,0.1,0,0.1c0,0.3,0,0.5,0,0.8c0,0.1,0,0.1,0,0.2c0,0.2,0,0.5,0,0.7c0,0.1,0,0.2,0,0.2c0,0.1,0,0.1,0,0.2
					c0,0.2,0,0.4,0,0.5c0,0.1,0,0.2,0,0.3c0,0.2,0,0.5,0,0.7c0,0.1,0,0.2,0,0.3c0,0.2,0,0.4,0,0.6c0,0.1,0,0.2,0,0.3
					c0,0.2,0,0.4,0,0.6c0,0.1,0,0.3,0,0.4c0,0.2,0,0.4,0,0.6c0,0.1,0,0.3,0,0.4c0,0.2,0,0.4,0,0.5c0,0.1,0,0.3,0,0.4
					c0,0.2,0,0.4,0,0.5c0,0.1,0,0.3,0,0.4c0,0.1,0,0.1,0,0.2c0,0.1,0,0.2,0,0.3c0,0.1,0,0.3,0,0.4c0,0.2,0,0.3,0,0.5
					c0,0.1,0,0.3,0,0.4c0,0.2,0,0.3,0,0.5c0,0.1,0,0.3,0,0.4c0,0.1,0,0.2,0,0.2c0,0.1,0,0.1,0,0.2c0,0.1,0,0.3,0,0.4
					c0,0.1,0,0.3,0,0.4c0,0.1,0,0.3,0,0.4c0,0.1,0,0.2,0,0.2c0,0.1,0,0.1,0,0.2c0,0.1,0,0.3,0,0.4c0,0.1,0,0.3,0,0.4
					c0,0.1,0,0.3,0.1,0.4c0,0.1,0,0.3,0.1,0.4c0,0.1,0,0.3,0.1,0.4c0,0.1,0,0.2,0.1,0.4c0,0.1,0,0.3,0.1,0.4c0,0.1,0,0.2,0.1,0.3
					c0,0.1,0,0.3,0.1,0.4c0,0.1,0,0.2,0.1,0.3c0,0.1,0.1,0.3,0.1,0.4c0,0.1,0,0.2,0.1,0.3c0,0.1,0.1,0.2,0.1,0.4
					c0,0.1,0,0.2,0.1,0.3c0,0.1,0.1,0.2,0.1,0.3c0,0.1,0.1,0.2,0.1,0.3c0,0.1,0.1,0.2,0.1,0.3c0,0.1,0.1,0.2,0.1,0.3
					c0,0.1,0.1,0.2,0.1,0.3c0,0.1,0.1,0.2,0.1,0.2c0,0.1,0.1,0.2,0.1,0.3c0,0.1,0,0.1,0.1,0.2l0,0l0,0c0,0,0,0,0,0
					c0,0.1,0.1,0.2,0.1,0.3c0,0.1,0.1,0.1,0.1,0.2c0,0,0,0,0,0.1c0,0,0,0,0,0.1c0,0,0,0.1,0.1,0.1c0,0,0,0,0,0
					c0,0.1,0.1,0.1,0.1,0.2c0,0,0,0.1,0.1,0.1c0,0,0,0.1,0.1,0.1c0,0,0,0,0.1,0.1c0,0,0,0.1,0.1,0.1c0,0.1,0.1,0.1,0.1,0.2
					c0,0,0,0.1,0.1,0.1c0,0,0,0,0,0c0,0,0,0,0,0c0.1,0.1,0.2,0.2,0.3,0.2l1.7-0.6v0l12.3-4.4v0l41.7-14.9
					c12.9,13.4,37.7,13.5,54.7,12.5c10.8-0.6,32.4-1.3,41.6-10l44.8,16l0,0l12.3,4.4v0l1.7,0.6c0.1-0.1,0.2-0.2,0.3-0.2
					c0,0,0.1-0.1,0.1-0.1C326.5,314.2,326.5,314.2,326.6,314.1C326.6,314.1,326.6,314.1,326.6,314.1z M226.5,112.8
					c0.6,0.1,1.3,0.3,2.2,0.6c-0.1,0-0.1,0-0.2,0.1c-0.7-0.1-1.4-0.3-2.1-0.4C226.4,113,226.4,112.9,226.5,112.8z M186.8,250
					c0,0.1-0.1,0.2-0.1,0.3l0,0c-0.2,0.5-0.4,0.9-0.6,1.4c0,0-0.1,0.1-0.1,0.1c-0.4,0.7-0.8,1.3-1.3,1.9c0,0-0.1,0.1-0.1,0.1
					c-0.5,0.7-1.1,1.3-1.8,1.9h0c-0.1,0.1-0.1,0.1-0.2,0.2c-0.1,0.1-0.2,0.2-0.4,0.4c-0.2,0.2-0.4,0.4-0.6,0.6
					c-0.1,0.1-0.2,0.2-0.3,0.3c-0.3,0.3-0.6,0.5-1,0.8c-0.1,0.1-0.3,0.2-0.4,0.3c-0.2,0.2-0.4,0.3-0.6,0.5c-0.1,0.1-0.3,0.2-0.4,0.3
					c-0.2,0.1-0.4,0.3-0.6,0.4c-0.1,0.1-0.3,0.2-0.4,0.3c-0.2,0.2-0.4,0.3-0.7,0.5c-0.1,0.1-0.3,0.2-0.4,0.3c-0.3,0.2-0.7,0.4-1,0.7
					c-0.2,0.1-0.3,0.2-0.5,0.3c-0.2,0.1-0.4,0.2-0.6,0.4c-0.1,0.1-0.2,0.1-0.3,0.2c6.3-7.9,10.8-17.6,14.1-27.2
					C188.2,241.3,187.7,247.3,186.8,250z"/>
			</g>
			<g class="st5">
				<path class="st6" d="M153.5,143.6c-10.9-2.9-13.7,3.4-12.1,5.1C143,150.2,153.5,143.6,153.5,143.6z"/>
			</g>
		</g>
		<g>
			<g>
				<path class="st7" d="M161,281.6c-2.1,0.2-35.5,20.7-35.5,20.7s2.7-19.1-4.8-26c-7.4-6.9-10.1,36.1-4.2,40.8l62.6-22.3
					C179,294.8,165.8,281,161,281.6z"/>
				<path class="st8" d="M139.3,293.9c-7.4,4.4-13.9,8.4-13.9,8.4s0-0.3,0.1-0.8c-3.7,3.5-7.7,7.5-11.2,11.2
					c0.5,2.1,1.2,3.7,2.1,4.4l25.2-9C141.9,302.3,140.3,296.7,139.3,293.9z"/>
				<path class="st9" d="M120.7,276.3c7.4,6.9,4.8,26,4.8,26s3.6-2.2,8.5-5.2c-0.5,5.9-2.1,11.3-3.6,15.1l-13.9,5
					C110.6,312.3,113.3,269.4,120.7,276.3z"/>
				<path class="st10" d="M120.1,275.8c2.4,7.2,4.5,21.8-2,40.7l-1.7,0.6C110.8,312.5,113.1,271.7,120.1,275.8z"/>
				<g>
					<path class="st11" d="M148.4,290c0.9,2.6,4.4,3.7,7.8,2.5c3.4-1.2,5.4-4.3,4.4-6.9c-0.4-1.2-1.4-2.1-2.7-2.6
						c-2.4,1.3-5.9,3.3-9.7,5.5C148.2,289.1,148.2,289.5,148.4,290z"/>
					<g>
						<g>
							<path class="st12" d="M155.7,288.7c-0.1,0-0.2,0-0.2,0c-1.1,0-1.1,1.6,0,1.6c0.1,0,0.2,0,0.2,0
								C156.8,290.4,156.8,288.7,155.7,288.7L155.7,288.7z"/>
						</g>
						<g>
							<path class="st12" d="M157.9,286.2c1.1,0,1.1-1.6,0-1.6C156.9,284.5,156.9,286.2,157.9,286.2L157.9,286.2z"/>
						</g>
						<g>
							<path class="st12" d="M150.5,290.1c1.1,0,1.1-1.6,0-1.6C149.5,288.5,149.5,290.1,150.5,290.1L150.5,290.1z"/>
						</g>
					</g>
				</g>
				<path class="st13" d="M170.1,293.5c-0.8-0.6-51.8,19.7-51.8,19.7s-1.5,0.9-3.1,2.2c0.4,0.8,0.8,1.4,1.2,1.8l57-20.3
					C172.6,295.8,171.5,294.7,170.1,293.5z"/>
			</g>
			<g>
				<path class="st7" d="M282.7,285.2c2.1,0.2,35.5,20.7,35.5,20.7s-2.7-19.1,4.8-26c7.4-6.9,10.1,36.1,4.2,40.8l-62.6-22.3
					C264.6,298.5,277.9,284.7,282.7,285.2z"/>
				<path class="st9" d="M323,279.9c-7.4,6.9-4.8,26-4.8,26s-3.6-2.2-8.5-5.2c0.5,5.9,2.1,11.3,3.6,15.1l13.9,5
					C333,316,330.4,273,323,279.9z"/>
				<path class="st10" d="M323.6,279.4c-2.4,7.2-4.5,21.8,2,40.7l1.7,0.6C332.9,316.1,330.5,275.3,323.6,279.4z"/>
				<path class="st8" d="M314.2,303.4c-4-2.4-10.3-6.2-16.3-9.8c-1.7,3.4-4.1,9.8-2.1,15.9l21.1,7.5L314.2,303.4z"/>
				<g>
					<path class="st11" d="M295.8,295c-0.9,2.6-4.4,3.7-7.8,2.5c-3.4-1.2-5.4-4.3-4.4-6.9c0.4-1.2,1.4-2.1,2.7-2.6
						c2.4,1.3,5.9,3.3,9.7,5.5C296.1,294.1,296,294.6,295.8,295z"/>
					<g>
						<g>
							<path class="st12" d="M288.5,293.8c0.1,0,0.2,0,0.2,0c1.1,0,1.1,1.6,0,1.6c-0.1,0-0.2,0-0.2,0
								C287.4,295.4,287.4,293.8,288.5,293.8L288.5,293.8z"/>
						</g>
						<g>
							<path class="st12" d="M286.3,291.2c-1.1,0-1.1-1.6,0-1.6C287.3,289.6,287.3,291.2,286.3,291.2L286.3,291.2z"/>
						</g>
						<g>
							<path class="st12" d="M293.7,295.2c-1.1,0-1.1-1.6,0-1.6C294.7,293.5,294.7,295.2,293.7,295.2L293.7,295.2z"/>
						</g>
					</g>
				</g>
				<path class="st13" d="M327.2,320.7c0.7-0.5,1.2-1.6,1.7-3c-1.7-0.6-3.6-0.8-3.6-0.8l-52.7-18.8c-1.7,0.1-2.7,0.9-3.4,1.9
					L327.2,320.7z"/>
			</g>
			<path class="st7" d="M182.9,225.7c-4.2,15.9-12.1,39.8-29.3,46.2c-1.2,0.4-2.1,1.2-2.7,2c-1.7-0.1-17.5,3.3-20.4,17.8
				c0,0,0.2,3.5,3,3.7c2.7,0.2,8.4-10.1,10.4-10.6c2-0.5-1.5,3.5,0.5,4.9c1.1,0.8,7.4-2.8,10.2-6.9c0.6,0,1.2-0.1,1.9-0.4
				c21.5-7.9,31.5-33.3,36.9-53.8C195.2,221.8,184.7,218.9,182.9,225.7z"/>
			<path class="st11" d="M182.9,225.7c-4.2,15.9-12.1,39.8-29.3,46.2c-1.2,0.4-2.1,1.2-2.7,2c-1.7-0.1-17.5,3.3-20.4,17.8
				c0,0,0.2,3.5,3,3.7c2.7,0.2,8.4-10.1,10.4-10.6c2-0.5-1.5,3.5,0.5,4.9c1.1,0.8,7.4-2.8,10.2-6.9c0.6,0,1.2-0.1,1.9-0.4
				c21.5-7.9,31.5-33.3,36.9-53.8C195.2,221.8,184.7,218.9,182.9,225.7z"/>
			<path class="st7" d="M190.5,225.3c0.3-1.1,0.3-2.1,0-2.9c-2.8-1.3-6.5-0.5-7.6,3.3c-4.2,15.9-12.1,39.8-29.3,46.2
				c-1.2,0.4-2.1,1.2-2.7,2c-1.7-0.1-17.5,3.3-20.4,17.8c0,0,0,0.2,0.1,0.4c2.6,0.1,5.3-5,6.6-6.7c0.8-1.1,1.8-2.9,3-3.6
				c2.2-1.2,4.6,3.3,4,5c-0.1,0.2-0.2,0.5,0,0.7c0.1,0.1,0.2,0.1,0.3,0.1c0.9,0.1,1.7-0.3,2.4-0.8c2.2-1.5,4-3.3,5.2-5.7
				c1.1-2.3,2.5-2.3,4.8-3.4c4.1-2,7.9-4.7,11.2-7.9c6.8-6.6,11.6-15,15.3-23.6C186.4,239.4,188.6,232.4,190.5,225.3z"/>
			<path class="st7" d="M160.6,167.4c0,0-11.3-2.2-9.4,10.6c1.9,12.8,21,11.9,21,11.9L160.6,167.4z"/>
			<path class="st11" d="M160.6,167.4c0,0-0.2,0-0.6-0.1c-2.4,1.2-4.5,3.9-3.6,10c1.2,8.2,9.4,10.8,15.2,11.6L160.6,167.4z"/>
			<path class="st7" d="M260.1,167.6c0,0,11.3-2.2,9.4,10.6c-1.9,12.8-21,11.9-21,11.9L260.1,167.6z"/>
			<path class="st11" d="M260.1,167.6L250,187.3c5.7-0.9,13.2-3.6,14.4-11.4c0.6-4.2-0.2-6.8-1.6-8.4
				C261.3,167.3,260.1,167.6,260.1,167.6z"/>
			<path class="st10" d="M191.7,215.4c0,0-6.8-1.3-15.7,16.1l17.8,9.3C193.8,240.8,196.3,215.8,191.7,215.4z"/>
			<path class="st9" d="M177.8,228.2l9.8,5.1c0,0,1-9.6,0.6-17C185.7,217.6,182.1,220.7,177.8,228.2z"/>
			<g>
				<path class="st7" d="M241.1,226.3c4.3,12.3,14.6,26.8,28,30.2c7.1,1.8,12.6-2.5,16.9-7.7c5.4-6.5,4.7-13.9,7.1-21.5
					c1.8-5.7-7.2-8.2-8.9-2.5c-1.6,5-1,10.9-3.5,15.6c-1.1,2-2.7,3.8-4.4,5.3c-2.5,2.3-4.7,2.2-7.6,0.7
					c-8.8-4.5-15.4-13.4-18.6-22.5C248,218.2,239.1,220.6,241.1,226.3L241.1,226.3z"/>
				<path class="st11" d="M288,221.7c-0.1,2.6-1.3,4.1-1.3,4.1s3.7-3.7,3.2,3.2c-0.5,6.9-6.7,25.1-17.6,24.8
					c-11-0.3-21.9-16.6-21.9-16.6l4.7-3.2c-0.8-1.2-1.6-2.5-2.3-3.8c-3-0.9-7.3-1-10.6-0.8c2.5,5.9,6.2,12,10.9,16.9
					c1,0.9,1.9,1.9,2.9,2.8c3.9,3.4,8.2,6,13,7.2c7.1,1.8,12.6-2.5,16.9-7.7c5.4-6.5,4.7-13.9,7.1-21.5
					C294.3,223.7,291,221.4,288,221.7z"/>
			</g>
			<path class="st10" d="M243.3,236.1l14-5.9c0,0-5-16.5-18.8-17.8C224.7,211.1,243.3,236.1,243.3,236.1z"/>
			<path class="st9" d="M240.8,212.8c1.3,7.3,5.8,18.6,5.8,18.6l9.8-3.6C254.5,223.5,249.8,214.8,240.8,212.8z"/>
			<path class="st9" d="M190.6,214.1c9-2.2,26.7-15,47.9-1.7c0,0,6.9,37.7,11.2,43.7s42.4,30.3,42.4,30.3s-14.5,1.8-21.8,11.5
				c-7.9,10.6-31.8,11.2-43.4,11.9c-17.8,1.1-44.3,0.9-56.5-14.5c-2.5-3.1-4.3-6.7-7-9.5c-2.6-2.8-6.3-4.8-10.2-4.3
				c7.1-2.6,13.5-7.2,19.7-11.5c4.7-3.2,13.3-7.9,15.1-13.8C190.3,248.2,190.6,214.1,190.6,214.1z"/>
			<path class="st11" d="M161,281.6c-0.5,0.1-2.5,1.1-5.4,2.7c3.2,0.2,6.1,2,8.3,4.3c2.6,2.8,4.4,6.2,6.7,9.2l8.4-3
				C179,294.8,165.8,281,161,281.6z"/>
			<path class="st11" d="M290.8,289.5c-4.3-2.5-7.5-4.2-8.2-4.3c-4.8-0.5-18,13.3-18,13.3l6.2,2.2
				C276.5,293.1,286.7,290.3,290.8,289.5z"/>
			<path class="st9" d="M190.6,214.1c9-2.2,26.7-15,47.9-1.7c0,0,6.9,37.7,11.2,43.7s42.4,30.3,42.4,30.3s-14.5,1.8-21.8,11.5
				c-7.9,10.6-31.8,11.2-43.4,11.9c-17.8,1.1-44.3,0.9-56.5-14.5c-2.5-3.1-4.3-6.7-7-9.5c-2.6-2.8-6.3-4.8-10.2-4.3
				c7.1-2.6,13.5-7.2,19.7-11.5c4.7-3.2,13.3-7.9,15.1-13.8C190.3,248.2,190.6,214.1,190.6,214.1z"/>
			<path class="st10" d="M207.3,208.3c0,0-14.2,9.4-4.2,14.7c10,5.2,11.3-5.8,11.3-5.8s5,10.2,11,6.3c6-3.9,4.7-11-5.2-15.2
				C210.2,204.1,207.3,208.3,207.3,208.3z"/>
			<path class="st14" d="M207.3,206.3c0,0-14.2,9.4-4.2,14.7c10,5.2,11.3-5.8,11.3-5.8s5,10.2,11,6.3c6-3.9,4.7-11-5.2-15.2
				C210.2,202.1,207.3,206.3,207.3,206.3z"/>
			<path class="st7" d="M206.3,198.7c0,1.8,0,12.1,4.1,15.1c4.1,3,10.2,3,10.5-14.5C221.4,181.7,206.3,198.7,206.3,198.7z"/>
			<path class="st11" d="M209,204.9c0.5-1.9,5.6,0.8,8-0.5c2-1.1,2.7,4.1,1.8,7.8c1.3-2.4,2.1-6.5,2.3-12.8c0-0.9,0-1.6-0.1-2.3
				l-14.6,4.1c0.2,3.7,0.9,10.4,4.1,12.8C210.5,213.8,208.4,206.8,209,204.9z"/>
			<path class="st15" d="M166.1,136.8c-5.8,11.2-12.9,33.7-0.5,50.6c14.5,19.8,72.7,19.7,88.5,0.6c15.8-19.1,6.4-58.4-14.1-65.6
				C219.5,115,177.5,114.8,166.1,136.8z"/>
			<path class="st7" d="M240,122.2c-20.5-7.3-62.5-7.4-73.9,14.5c-2.6,5-5.4,12.3-6.7,20.3c-0.5,8.4,1.2,17.2,6.7,24.8
				c14.5,19.8,72.7,19.7,88.5,0.6c3.9-4.7,6.3-10.7,7.3-17C262.8,147.2,254,127.2,240,122.2z"/>
			<path class="st16" d="M182.8,163.1c-1.2,1.5-2.2,3-3,4.6c-3.4,6.4-5.8,15.7,2,19.9c11.9,6.5,19.4-5.5,33.1-3.1
				c13.6,2.4,17.4,11.3,28.7,1.7c11.3-9.6-3.1-36.5-28.7-35.8c-3.8,0.1-7.8-0.7-11.5,0c-2.7,0.5-5.5,1.6-8,2.7
				C190.3,155.4,186.2,158.9,182.8,163.1z"/>
			<path class="st17" d="M214.5,163.5c-0.4,0.4-0.5,1-0.5,1.6c0.1,2,1.4,3.8,1.7,5.7c0.5,2.4-0.8,5.2-3.1,6.1
				c-2.3,0.9-5.4-0.7-5.6-3.2c-0.1-0.9,0.2-1.9,0.9-2.6c0.3-0.3,0.6-0.5,0.8-0.9c0.2-0.3,0.4-0.7,0.4-1.1c0.5-2.4-1.6-5-4-5.1
				c-3.9-0.2-8.2,1.3-11.3,3.4c-2.3,1.6-3.2,3.9-5.1,5.8c-0.6,0.7-6.7,9.3-4.5,15.4c10.5,3.7,17.9-6.4,30.6-4.2
				c11.6,2,16.1,8.8,24.1,4.8c3-5.4-0.1-12.3-3.7-16.7c-2.4-2.9-5.5-5.3-8.9-6.9c-2.8-1.3-7.9-3.3-10.9-2.7
				c-0.3,0.1-0.6,0.1-0.8,0.3C214.6,163.4,214.5,163.5,214.5,163.5z"/>
			<path class="st17" d="M190.1,189.6c7.8-0.5,14.6-6.8,24.8-5c10.8,1.9,15.4,7.8,22.4,5.5c-3.3-9-11.7-15.6-21.7-16.4
				c-0.5,1.5-1.5,2.8-3,3.3c-2.1,0.8-4.9-0.5-5.5-2.6C199.3,176.4,193,182.1,190.1,189.6z"/>
			<path class="st14" d="M215.3,151.1c0,0-1.1,7,4.3,6.6c3.9-0.3,3.8-4.3,3.4-6.5c-2.3-0.5-4.8-0.8-7.4-0.8
				C215.4,150.6,215.3,150.9,215.3,151.1z"/>
			
				<ellipse transform="matrix(0.2671 -0.9637 0.9637 0.2671 32.4664 343.0463)" class="st11" cx="241.8" cy="150.2" rx="7.2" ry="11.5"/>
			<path class="st11" d="M191.2,148c1.6,3.7-1.9,8.7-7.7,11.2c-5.8,2.5-11.9,1.5-13.4-2.1c-1.6-3.7,1.9-8.7,7.7-11.2
				C183.7,143.4,189.7,144.3,191.2,148z"/>
			<g>
				<g>
					<path class="st12" d="M182.7,155c1.9,0,1.9-3,0-3C180.8,152,180.8,155,182.7,155L182.7,155z"/>
				</g>
			</g>
			<g>
				<g>
					<path class="st12" d="M185.7,149.6c1.9,0,1.9-3,0-3C183.8,146.6,183.8,149.6,185.7,149.6L185.7,149.6z"/>
				</g>
			</g>
			<g>
				<g>
					<path class="st12" d="M188.4,153.2c1.9,0,1.9-3,0-3C186.5,150.2,186.5,153.2,188.4,153.2L188.4,153.2z"/>
				</g>
			</g>
			<g>
				<g>
					<path class="st12" d="M175,155c1.9,0,1.9-3,0-3C173,152,173,155,175,155L175,155z"/>
				</g>
			</g>
			<g>
				<g>
					<path class="st12" d="M234.7,149.4c0.1-0.1,0.2-0.2,0.3-0.3c0.1-0.1,0.2-0.3,0.3-0.5c0.1-0.2,0.1-0.4,0.1-0.6
						c0-0.2,0-0.4-0.1-0.6c-0.1-0.2-0.2-0.3-0.3-0.5c-0.1-0.1-0.2-0.2-0.3-0.2c-0.2-0.1-0.5-0.2-0.8-0.2c-0.1,0-0.3,0-0.4,0.1
						c-0.3,0.1-0.5,0.2-0.7,0.4c-0.1,0.1-0.2,0.2-0.3,0.3c-0.1,0.1-0.2,0.3-0.3,0.5c-0.1,0.2-0.1,0.4-0.1,0.6c0,0.2,0,0.4,0.1,0.6
						c0.1,0.2,0.2,0.3,0.3,0.5c0.1,0.1,0.2,0.2,0.3,0.2c0.2,0.1,0.5,0.2,0.8,0.2c0.1,0,0.3,0,0.4-0.1
						C234.3,149.8,234.5,149.6,234.7,149.4L234.7,149.4z"/>
				</g>
			</g>
			<g>
				<g>
					<path class="st12" d="M240.8,147.2c1.9,0,1.9-3,0-3C238.9,144.2,238.9,147.2,240.8,147.2L240.8,147.2z"/>
				</g>
			</g>
			<g>
				<g>
					<path class="st12" d="M239.3,154.4c1.9,0,1.9-3,0-3C237.4,151.4,237.4,154.4,239.3,154.4L239.3,154.4z"/>
				</g>
			</g>
			<g>
				<g>
					<path class="st12" d="M248,151.7c1.9,0,1.9-3,0-3C246.1,148.7,246.1,151.7,248,151.7L248,151.7z"/>
				</g>
			</g>
			<g>
				<g>
					<path class="st12" d="M179.3,159c1.9,0,1.9-3,0-3C177.4,156,177.4,159,179.3,159L179.3,159z"/>
				</g>
			</g>
			<g>
				<g>
					<path class="st12" d="M177.1,149.8c1.9,0,1.9-3,0-3C175.2,146.8,175.2,149.8,177.1,149.8L177.1,149.8z"/>
				</g>
			</g>
			<g>
				<g>
					<path class="st12" d="M206.8,191.7c0.1,0.2,0,0.4-0.1,0.6c-0.1,0.1-0.1,0.2,0,0c-0.1,0.1-0.1,0.1,0,0c0.1,0,0.1-0.1,0.2-0.1
						c0.1,0,0.1,0-0.1,0c0.1,0,0.2-0.1,0.3-0.1c0.2-0.1,0.4-0.1,0.6-0.2c0.7-0.2,1.2-0.2,2-0.2c0.4,0,0.8,0,1.1,0
						c0.5,0,0.4,0,0.9,0.1c0.8,0.2,1.6,0.4,2.4,0.7c0.7,0.3,1.7-0.3,1.8-1c0.2-0.9-0.3-1.5-1-1.8c-1.9-0.8-4.1-1.1-6.2-0.9
						c-2.1,0.2-5.4,0.8-4.9,3.6c0.1,0.8,1.1,1.3,1.8,1C206.6,193.2,207,192.5,206.8,191.7L206.8,191.7z"/>
				</g>
			</g>
			<g>
				<g>
					<path class="st12" d="M209.7,142.4c0.2-0.6,0.5-1.1,0.8-1.7c0.1-0.3,0.3-0.5,0.5-0.8c0.1-0.1,0.2-0.3,0.3-0.4
						c0-0.1,0.1-0.1,0.1-0.2c-0.1,0.1-0.1,0.1,0,0c0.2-0.2,0.4-0.4,0.6-0.6c0.1-0.1,0.4-0.3,0.2-0.1c0.1-0.1,0.3-0.2,0.4-0.3
						c0.1-0.1,0.3-0.1,0.4-0.2c-0.2,0.1,0,0,0.1,0c0.1,0,0.3-0.1,0.4-0.1c0.2-0.1-0.1,0-0.1,0c0.1,0,0.2,0,0.2,0c0.1,0,0.3,0,0.4,0
						c0.1,0,0.1,0,0.2,0c0,0-0.2-0.1-0.1,0c0.1,0.1,0.3,0.1,0.4,0.1c0.1,0,0.4,0.2,0.3,0.1c-0.2-0.1,0.2,0.1,0.3,0.1
						c0.1,0.1,0.2,0.1,0.3,0.2c0.1,0,0.2,0.2,0,0c0,0,0.1,0.1,0.1,0.1c0.1,0.1,0.2,0.2,0.3,0.3c0.1,0.1,0.1,0.1,0.2,0.2
						c0,0-0.1-0.2,0-0.1c0.1,0.1,0.1,0.2,0.2,0.3c0.1,0.1,0.2,0.4,0.1,0.1c0,0.1,0.1,0.3,0.1,0.4c0,0.1,0,0.2,0.1,0.2
						c0,0.2,0-0.1,0-0.1c0,0.1,0,0.2,0,0.4c0,0.1,0,0.5,0,0.3c0-0.2,0,0,0,0c0,0.1,0,0.2-0.1,0.2c0,0.2-0.1,0.3-0.1,0.5
						c0,0,0.1-0.2,0-0.1c-0.1,0.1-0.1,0.2-0.1,0.3c-0.1,0.1-0.1,0.2-0.2,0.4c0,0.1-0.1,0.1-0.1,0.2c0.2-0.2,0,0,0,0
						c-0.1,0.1-0.2,0.2-0.3,0.3c0,0-0.2,0.2,0,0c-0.1,0-0.1,0.1-0.2,0.1c-0.1,0.1-0.2,0.1-0.4,0.2c0,0-0.3,0.1-0.1,0.1
						c0.2-0.1-0.2,0-0.2,0c-0.7,0.2-1.3,1.1-1,1.8c0.2,0.8,1,1.3,1.8,1c3.3-1,5.1-5.1,3.3-8.1c-0.8-1.4-2.3-2.4-3.9-2.7
						c-1.8-0.3-3.5,0.2-4.9,1.4c-1.3,1.2-2.2,2.8-2.9,4.4c-0.3,0.7-0.2,1.6,0.5,2.1C208.3,143.3,209.4,143.2,209.7,142.4
						L209.7,142.4z"/>
				</g>
			</g>
			<g>
				<path class="st16" d="M176.3,145.1c3.1-3.1,8.9-8.4,12.9-3.4c1.3,1.6,3.6-0.7,2.3-2.3c-5.2-6.5-13.2-1-17.6,3.4
					C172.5,144.2,174.8,146.6,176.3,145.1L176.3,145.1z"/>
			</g>
			<g>
				<path class="st16" d="M245.8,144.1c-3.1-3.1-8.9-8.4-12.9-3.4c-1.3,1.6-3.6-0.7-2.3-2.3c5.2-6.5,13.2-1,17.6,3.4
					C249.6,143.2,247.3,145.6,245.8,144.1L245.8,144.1z"/>
			</g>
			<g>
				<g>
					<path class="st12" d="M210,147.1c0.2-0.2,0.5-0.3,0.7-0.5c0.2-0.1,0.3-0.2,0.4-0.4c0.1-0.1,0.2-0.3,0.3-0.5
						c0.1-0.2,0.1-0.4,0-0.6c0-0.2-0.1-0.4-0.2-0.6c-0.1-0.1-0.2-0.2-0.2-0.3c-0.2-0.2-0.4-0.3-0.7-0.4c-0.1,0-0.3,0-0.4-0.1
						c-0.3,0-0.5,0.1-0.8,0.2c-0.2,0.2-0.5,0.3-0.7,0.5c-0.2,0.1-0.3,0.2-0.4,0.4c-0.1,0.1-0.2,0.3-0.3,0.5c-0.1,0.2-0.1,0.4,0,0.6
						c0,0.2,0.1,0.4,0.2,0.6c0.1,0.1,0.2,0.2,0.2,0.3c0.2,0.2,0.4,0.3,0.7,0.4c0.1,0,0.3,0,0.4,0.1
						C209.5,147.3,209.7,147.2,210,147.1L210,147.1z"/>
				</g>
			</g>
			<g>
				<g>
					<path class="st12" d="M186.7,133.8c1.3,0.5,2.4,1.4,3.2,2.5c0.6,0.9,2,0,1.4-0.8c-0.9-1.4-2.2-2.5-3.7-3.1
						C186.6,132,185.7,133.4,186.7,133.8L186.7,133.8z"/>
				</g>
				<g>
					<path class="st12" d="M189.5,130.2c0.3,0.5,0.7,1.1,1,1.6c0.5,0.9,2,0.1,1.4-0.8c-0.3-0.5-0.7-1.1-1-1.6
						C190.4,128.4,189,129.3,189.5,130.2L189.5,130.2z"/>
				</g>
				<g>
					<path class="st12" d="M231,137c-0.3-1.3,0.8-2.5,2.1-2.5c1.1,0,1.1-1.6,0-1.6c-2.4,0-4.2,2.3-3.7,4.6
						C229.6,138.4,231.2,138,231,137L231,137z"/>
				</g>
				<g>
					<path class="st12" d="M230.9,131.4c0.2-0.2,0.4-0.3,0.7-0.3c1,0.2,1.5-1.4,0.4-1.6c-1-0.2-1.9,0.2-2.5,1
						C228.9,131.5,230.3,132.3,230.9,131.4L230.9,131.4z"/>
				</g>
				<g>
					<path class="st12" d="M189.4,144.8c0.6,0.2,1.3,0.4,1.9,0.6c1,0.3,1.4-1.3,0.4-1.6c-0.6-0.2-1.3-0.4-1.9-0.6
						C188.8,142.9,188.4,144.5,189.4,144.8L189.4,144.8z"/>
				</g>
				<g>
					<path class="st12" d="M233.2,143.8c0.6-0.4,1.3-0.6,2-0.7c0.4-0.1,0.7-0.6,0.6-1c-0.1-0.5-0.6-0.6-1-0.6
						c-0.9,0.1-1.7,0.4-2.4,0.8C231.5,142.9,232.3,144.3,233.2,143.8L233.2,143.8z"/>
				</g>
			</g>
			<path class="st11" d="M205.6,146.9c0,0,0.6-2.6,3.7-3.7c3.1-1.1,6-1.7,7.1-4c1.1-2.3,4,3.4,1.7,4.8c-2.3,1.4,4.5,1.7,3.4,2.8
				C220.4,148,210.4,150.6,205.6,146.9z"/>
			<g>
				<path class="st14" d="M213.5,140.3c0-0.1,0-0.2,0-0.3c0-1.1-1.6-1.1-1.6,0c0,0.1,0,0.2,0,0.3
					C211.9,141.3,213.5,141.3,213.5,140.3L213.5,140.3z"/>
			</g>
			<path class="st18" d="M214.8,184.6c4.5,0.8,7.9,2.3,10.9,3.6c-0.5-4.7-3.2-6.3-12-7.9c-9-1.7-13,5.3-13,5.3
				c-0.1,0.3-0.1,0.7-0.1,1C204.8,185,209.3,183.6,214.8,184.6z"/>
			<path class="st14" d="M198.3,181.8c-4.9,1.2-1.4,6.1-1.4,6.1l0.3,0c2-0.7,4-1.5,6.1-2.2C202.9,183.8,201.8,181,198.3,181.8z"/>
			<g>
				<g>
					<path class="st10" d="M217.5,235.1c0,0-8.4-10-2.1-10C225,225.1,217.5,235.1,217.5,235.1z"/>
					<path class="st10" d="M217.4,242.5c0,0-5.8,11.7,0.3,10.2C227.1,250.5,217.4,242.5,217.4,242.5z"/>
				</g>
				<g>
					<path class="st10" d="M214.7,236.2c0,0-13-1.2-8.6-5.6C213,223.8,214.7,236.2,214.7,236.2z"/>
					<path class="st10" d="M219.9,241.4c0,0,4.2,12.4,7.4,7C232.3,240.3,219.9,241.4,219.9,241.4z"/>
				</g>
				<g>
					<path class="st10" d="M213.3,238.6c0,0-10,8.4-10,2.1C203.2,231.1,213.3,238.6,213.3,238.6z"/>
					<path class="st10" d="M220.6,238.7c0,0,11.7,5.8,10.2-0.3C228.6,229,220.6,238.7,220.6,238.7z"/>
				</g>
				<g>
					<path class="st10" d="M214.3,241.3c0,0-1.2,13-5.6,8.6C201.9,243.1,214.3,241.3,214.3,241.3z"/>
					<path class="st10" d="M219.6,236.2c0,0,12.4-4.2,7-7.4C218.4,223.7,219.6,236.2,219.6,236.2z"/>
				</g>
				<path class="st8" d="M221.1,238.8c0,2-1.6,3.7-3.7,3.7c-2,0-3.7-1.6-3.7-3.7c0-2,1.6-3.7,3.7-3.7
					C219.5,235.1,221.1,236.8,221.1,238.8z"/>
			</g>
			<g>
				<g>
					<g>
						<polygon class="st19" points="294.4,235.3 281.6,196 304.2,195.6 						"/>
						<g>
							<path class="st20" d="M298.4,219.2c-0.2,0.1-0.3,0.3-0.5,0.4c0.1,0,0.2,0,0.4,0L298.4,219.2z"/>
							<path class="st20" d="M295.6,225.6c-1.1,1-2.2,2-3.4,3l1,3c0.7,0,1.4,0,2.1,0l0.4-1.6c-0.8,0-1.7,0-2.5,0c1.1-1,2.2-2,3.2-3
								l0.8-3.1c-1.4,0-2.7,0-4.1,0c-0.6,0.5-1.2,1.1-1.8,1.6C292.8,225.6,294.2,225.6,295.6,225.6z"/>
							<path class="st20" d="M299.1,216.4c-0.6,0.5-1.2,1.1-1.8,1.6c0.5,0,0.9,0,1.4,0L299.1,216.4z"/>
							<path class="st20" d="M291.3,225.7C291.3,225.7,291.3,225.6,291.3,225.7C291.3,225.6,291.3,225.6,291.3,225.7L291.3,225.7z"
								/>
							<path class="st20" d="M304.2,195.6l-1.9,0c-1.5,1.4-3.1,2.9-4.9,4.5c-2.5,0-5.1,0-7.6,0c1.6-1.6,3.1-3.2,4.3-4.4l-2.4,0
								c-1.1,1.1-2.7,2.7-4.3,4.3c-1.5,0-3.1,0-4.6,0l0.5,1.6c0.8,0,1.6,0,2.5,0c-0.7,0.7-1.3,1.3-1.8,1.9l0.6,1.7
								c1-1,2.2-2.3,3.6-3.6c2.5,0,5,0,7.5,0c-1.6,1.5-3.2,3-4.8,4.4c-2,0-4,0-6,0l0.5,1.6c1.2,0,2.5,0,3.7,0c-1,0.9-2,1.8-2.9,2.6
								l0.6,1.7c1.4-1.3,3.1-2.7,4.9-4.3c2.2,0,4.4,0,6.6,0c-2,1.7-4.1,3.5-6.1,5.2c-1.7,0-3.4,0-5.1,0l0.5,1.6c0.9,0,1.8,0,2.7,0
								c-0.7,0.6-1.4,1.2-2.1,1.8l1,3.1c2.1,0,4.1,0,6.2,0c0.6-0.5,1.2-1.1,1.8-1.6c-2.7,0-5.5,0-8.2,0c1.2-1.1,2.5-2.2,3.7-3.3
								c2.2,0,4.4,0,6.7,0l0.4-1.6c-1.7,0-3.5,0-5.2,0c2-1.8,4.1-3.5,6.1-5.2c0.1,0,0.2,0,0.4,0l0.8-3.1c-0.6,0.5-1.1,1-1.7,1.4
								c-2.2,0-4.4,0-6.6,0c1.7-1.4,3.4-2.9,5-4.4c1.4,0,2.7,0,4.1,0l0.4-1.6c-0.9,0-1.7,0-2.6,0c1.2-1,2.3-2,3.3-3L304.2,195.6z"/>
							<path class="st20" d="M290.7,224c0.8,0,1.6,0,2.4,0c1.6-1.5,3.2-2.9,4.8-4.4c-0.8,0-1.6,0-2.4,0
								C293.9,221,292.3,222.5,290.7,224L290.7,224z"/>
						</g>
						<g>
							<path class="st8" d="M290.2,222.5l0.6,1.7c2.7-2.5,5.5-5,8.2-7.5l0.7-2.8C296.5,216.7,293.4,219.5,290.2,222.5z"/>
							<path class="st8" d="M292.3,228.8c1.6-1.5,3.2-2.9,4.8-4.3l0.7-2.8c-2,1.8-4,3.6-6,5.4L292.3,228.8z"/>
							<path class="st8" d="M285.8,208.9l0.6,1.7c5.6-4.9,11.1-9.9,16.5-14.9l-2.5,0C295.6,200.1,290.7,204.5,285.8,208.9z"/>
							<path class="st8" d="M287.8,215l0.6,1.7c4.4-4,9-7.9,13.6-11.7l0.7-2.7C297.6,206.4,292.6,210.7,287.8,215z"/>
							<path class="st8" d="M283.6,202.2l0.6,1.7c2.7-2.7,5.4-5.4,8.1-8.1l-2.4,0C287.8,198,285.7,200.1,283.6,202.2z"/>
							<g>
								<path class="st8" d="M300.3,211.3c-4.6,0-9.1,0-13.7,0l0.5,1.6c4.3,0,8.5,0,12.8,0L300.3,211.3z"/>
								<path class="st8" d="M282.9,200.1c6.7,0,13.4,0,20.2,0l0.4-1.6c-7,0-14.1,0-21.1,0L282.9,200.1z"/>
								<path class="st8" d="M299.1,216.3c-3.6,0-7.3,0-10.9,0l0.5,1.6c3.3,0,6.6,0,10,0L299.1,216.3z"/>
								<path class="st8" d="M296.1,228.3c-1.3,0-2.7,0-4,0l0.5,1.6c1,0,2,0,3.1,0L296.1,228.3z"/>
								<path class="st8" d="M290.2,222.3l0.5,1.6c2.2,0,4.3,0,6.5,0l0.4-1.6C295.1,222.3,292.7,222.3,290.2,222.3z"/>
								<path class="st8" d="M284.4,204.5l0.5,1.6c5.6,0,11.1,0,16.7,0l0.4-1.6C296.1,204.5,290.3,204.5,284.4,204.5z"/>
							</g>
						</g>
					</g>
					<polygon class="st20" points="294.1,234.3 294.4,235.3 304.2,195.6 294.1,195.8 					"/>
				</g>
				<polygon class="st20" points="304.1,196 281.8,196 281.6,196 282.5,198.8 303.4,198.8 				"/>
				<rect x="279.6" y="194.8" class="st19" width="26.5" height="2.8"/>
			</g>
			<path class="st7" d="M301.1,206.6c-0.3-0.5-8.7,1.8-9.4,2.5c-3,3.5,2.6,8.1,2.6,11.9c0,1.3-0.4,2.6,0.3,3.7
				c0.6,1.1,2,1.4,3.2,1.2C308.3,223.6,305.9,213.3,301.1,206.6z"/>
			<path class="st7" d="M282.1,225.3c0,0-8.6-15.5,4-19.9c12.6-4.4,8.8,6.5,3.1,9C289.3,214.4,296,235.1,282.1,225.3z"/>
			<path class="st11" d="M240,122.2c-20.5-7.3-62.5-7.4-73.9,14.5c-2.6,5-5.4,12.3-6.7,20.3c-0.3,5.7,0.3,11.6,2.5,17.2
				c1.8,1.1,4,1.5,5.5,0.1l0,0c0.2-0.2,0.4-0.4,0.6-0.7c0.1-0.1,0.1-0.2,0.2-0.3c0.1-0.1,0.1-0.2,0.2-0.3c0.1-0.2,0.2-0.5,0.4-0.8
				c0.1-0.3,0.2-0.6,0.2-0.8c0-0.1,0-0.2,0.1-0.3c0-0.1,0-0.3,0.1-0.4c0-0.2,0.1-0.5,0.1-0.7l0,0l0,0c0.1-3.4-3.5-3.4-3.5-3.4
				c0.6,1.4,0.8,2.4,0.7,3.1c-0.1,1.1-0.8,1.5-1.7,1.4c0,0,0,0-0.1,0c-0.1,0-0.2,0-0.3,0c-0.1,0-0.1,0-0.2,0c-0.1,0-0.2-0.1-0.4-0.1
				c-0.1,0-0.2-0.1-0.3-0.1c-0.1,0-0.1-0.1-0.2-0.1c-0.1-0.1-0.3-0.1-0.4-0.2c0,0-0.1-0.1-0.1-0.1c-0.1-0.1-0.3-0.2-0.4-0.3
				c0,0-0.1-0.1-0.1-0.1c-0.1-0.1-0.3-0.2-0.4-0.4c0,0,0,0,0,0l0,0c-0.3-0.3-0.5-0.6-0.7-1c-0.1-0.1-0.1-0.3-0.2-0.5
				c-0.4-1.6-0.1-5.3,0.7-9.8c0,0,0-0.1,0-0.1c0.1-0.3,0.1-0.6,0.2-0.9c0-0.1,0-0.2,0.1-0.3c0-0.3,0.1-0.5,0.2-0.8
				c0-0.2,0.1-0.3,0.1-0.5c0-0.2,0.1-0.5,0.2-0.7c0-0.2,0.1-0.4,0.1-0.5c0-0.2,0.1-0.4,0.2-0.7c0-0.2,0.1-0.4,0.1-0.6
				c0.1-0.2,0.1-0.4,0.2-0.6c0.1-0.2,0.1-0.4,0.2-0.6c0.1-0.2,0.1-0.4,0.2-0.6c0.1-0.2,0.1-0.4,0.2-0.7c0.1-0.2,0.1-0.4,0.2-0.6
				c0.1-0.2,0.1-0.5,0.2-0.7c0.1-0.2,0.1-0.4,0.2-0.6c0.1-0.2,0.1-0.5,0.2-0.7c0.1-0.2,0.1-0.4,0.2-0.6c0.1-0.2,0.2-0.5,0.2-0.7
				c0.1-0.2,0.1-0.4,0.2-0.6c0.1-0.2,0.2-0.5,0.2-0.7c0.1-0.2,0.1-0.4,0.2-0.5c0.1-0.2,0.2-0.5,0.3-0.7c0.1-0.2,0.1-0.4,0.2-0.5
				c0.1-0.2,0.2-0.5,0.3-0.7c0.1-0.2,0.1-0.3,0.2-0.5c0.1-0.2,0.2-0.4,0.3-0.7c0.1-0.2,0.1-0.3,0.2-0.5c0.1-0.2,0.2-0.4,0.3-0.6
				c0.1-0.2,0.2-0.3,0.2-0.5c0.1-0.2,0.2-0.4,0.3-0.6c0.1-0.2,0.2-0.3,0.2-0.5c0.1-0.2,0.2-0.4,0.3-0.6c0.1-0.1,0.2-0.3,0.2-0.4
				c0.1-0.2,0.2-0.4,0.4-0.6c0.1-0.1,0.2-0.3,0.2-0.4c0.1-0.2,0.3-0.4,0.4-0.6c0.1-0.1,0.1-0.2,0.2-0.3c0.2-0.3,0.4-0.6,0.6-0.8
				c0,0,0,0,0,0c1.3-1.7,3-3.2,5-4.5c1-0.7,2-1.3,3-1.9c1.4-0.8,2.8-1.5,4.2-2.1c0.7-0.3,1.4-0.6,2.1-0.9c3.5-1.4,6.7-2.3,8.8-2.9
				c0.5,0.7,1.1,1.5,2,2.4l2-3.1c0,0,7.1,11,19.3,10.8c0,0-3.4-3.4-2-6.8l4.5,3.4c0,0,0.8-5.4,2.3-6.5c1.4-1.1,1.1,3.7,1.1,3.7
				s4.3-3.4,5.4-6c1.4,0.3,4,1,7,2.1c4.2,1.5,9.4,3.7,13.4,6.7c1.5,1.2,2.9,2.4,4,3.8c0.2,0.3,0.4,0.6,0.6,0.8
				c0.1,0.1,0.1,0.2,0.2,0.3c0.1,0.2,0.3,0.4,0.4,0.6c0.1,0.1,0.2,0.3,0.2,0.4c0.1,0.2,0.2,0.4,0.4,0.6c0.1,0.1,0.2,0.3,0.2,0.4
				c0.1,0.2,0.2,0.4,0.3,0.6c0.1,0.2,0.2,0.3,0.2,0.5c0.1,0.2,0.2,0.4,0.3,0.6c0.1,0.2,0.2,0.3,0.2,0.5c0.1,0.2,0.2,0.4,0.3,0.6
				c0.1,0.2,0.1,0.3,0.2,0.5c0.1,0.2,0.2,0.4,0.3,0.7c0.1,0.2,0.1,0.3,0.2,0.5c0.1,0.2,0.2,0.5,0.3,0.7c0.1,0.2,0.1,0.3,0.2,0.5
				c0.1,0.2,0.2,0.5,0.3,0.7c0.1,0.2,0.1,0.3,0.2,0.5c0.1,0.2,0.2,0.5,0.3,0.7c0.1,0.2,0.1,0.3,0.2,0.5c0.1,0.2,0.2,0.5,0.2,0.7
				c0.1,0.2,0.1,0.3,0.2,0.5c0.1,0.3,0.2,0.5,0.2,0.8c0,0.2,0.1,0.3,0.1,0.5c0.1,0.3,0.2,0.6,0.2,0.9c0,0.1,0.1,0.3,0.1,0.4
				c0.1,0.3,0.2,0.7,0.3,1c0,0.1,0,0.1,0.1,0.2c0.1,0.4,0.2,0.8,0.3,1.2c0,0.1,0.1,0.3,0.1,0.4c0.1,0.3,0.1,0.5,0.2,0.8
				c0,0.2,0.1,0.4,0.1,0.5c0.1,0.2,0.1,0.5,0.1,0.7c0,0.2,0.1,0.4,0.1,0.6c0,0.2,0.1,0.4,0.1,0.6c0,0.2,0.1,0.4,0.1,0.6
				c0,0.2,0.1,0.4,0.1,0.6c0,0.2,0.1,0.4,0.1,0.6c0,0.2,0.1,0.4,0.1,0.5c0,0.2,0.1,0.4,0.1,0.6c0,0.2,0.1,0.3,0.1,0.5
				c0,0.2,0.1,0.4,0.1,0.6c0,0.2,0,0.3,0.1,0.5c0,0.2,0.1,0.4,0.1,0.6c0,0.1,0,0.3,0,0.4c0,0.2,0,0.4,0.1,0.6c0,0.1,0,0.2,0,0.4
				c0,0.2,0,0.4,0.1,0.6c0,0.1,0,0.1,0,0.2c-0.4,1.2-0.9,2.4-1.5,3.6c-0.5,0.9,0.9,1.7,1.4,0.8c0,0,0-0.1,0.1-0.1
				c0,0.2-0.1,0.4-0.2,0.5c-0.2,0.4-0.5,0.8-0.9,1.1c-0.3,0.3-0.7,0.6-1,0.8c0,0,0,0,0,0c-0.4,0.2-0.7,0.4-1.1,0.5c0,0,0,0,0,0
				c-1.2,0.3-2.3-0.1-2.1-1.9c0.1-0.6,0.3-1.4,0.7-2.5c0,0-2.4,0-3.2,1.8v0c0,0,0,0.1,0,0.1c-0.1,0.1-0.1,0.3-0.1,0.4
				c0,0,0,0.1,0,0.1c0,0.2-0.1,0.3-0.1,0.5c0,0,0,0.1,0,0.1c0,0.2,0,0.4,0,0.6c0,0,0,0.1,0,0.1c0,0.2,0.1,0.5,0.1,0.7
				c0,0.1,0,0.1,0,0.2c0.1,0.3,0.1,0.6,0.3,0.9c0,0,0,0,0,0c0,0,0,0,0,0c0.1,0.3,0.2,0.5,0.3,0.8c1.4,2.7,3.9,2.6,6.1,1.4
				c0.8-2.3,1.4-4.7,1.8-7.2C262.8,147.2,254,127.2,240,122.2z"/>
			<g>
				<path class="st8" d="M196.1,113.5c-2.4,0.7-7.9,2.8-1.1,9.9l2-3.1c0,0,7.1,11,19.3,10.8c0,0-3.4-3.4-2-6.8l4.5,3.4
					c0,0,0.8-5.4,2.3-6.5c1.4-1.1,1.1,3.7,1.1,3.7s5.4-4.2,5.7-6.8C228.1,115.5,216.8,107,196.1,113.5z"/>
				<g>
					<g>
						<path class="st8" d="M254.9,122.4c-0.9-1-3.2-19.9,14.2-28.1l-0.9,4.7c0,0,11.4-7.3,24.6-5l-4.4,3.8c0,0,19.2,2.8,27.1,17
							l-5.7-0.9c0,0-11.4,7.3-17.7,9.8l10.4,0.6C302.5,124.2,272.2,141.3,254.9,122.4z"/>
						<path class="st19" d="M254.9,122.4c-0.9-1-3.2-19.9,14.2-28.1l-0.9,4.7c0,0,11.4-7.3,24.6-5l-4.4,3.8c0,0,19.2,2.8,27.1,17
							l-5.7-0.9c0,0-11.4,7.3-17.7,9.8l10.4,0.6C302.5,124.2,272.2,141.3,254.9,122.4z"/>
						<path class="st8" d="M292.5,94.2c-0.2-0.1-0.5-0.2-0.7-0.3C279,92.1,268.1,99,268.1,99l0.9-4.7c-9.4,4.5-13.1,12.1-14.3,18.3
							c14.8,14.1,39,0.5,39,0.5l-8.8-0.5c5.3-2.1,14.9-8.2,14.9-8.2l4.8,0.8c-0.3-0.6-0.7-1.2-1.1-1.7c-7.6-4.4-15.3-5.6-15.3-5.6
							L292.5,94.2z"/>
						<path class="st9" d="M250.5,120.1c0,0,1.3-1.9,6.3,0.3c5,2.2,6.3,8.2,3.8,10.7C258,133.7,245.4,124.6,250.5,120.1z"/>
						<path class="st8" d="M256.5,162.6c0,0-5,0-3.1,5.6c2,5.6,8.1,2.2,9.8-1.1c1.7-3.4,3.6-4.2,3.4-13.7
							c-0.3-9.5-3.1-37.6-42.9-40.1l2.8,5.3c0,0,18.5,3.9,25.5,12.9c7,9,10.4,30.3,9,33.1C259.6,167.4,253.7,169.1,256.5,162.6z"/>
						<g>
							<path class="st19" d="M263.5,152.4c-0.3-8.9-2.9-34.9-39.2-37.9l2.2,4.2c0,0,18.5,3.9,25.5,12.9c6.5,8.4,9.9,27.5,9.2,32.3
								C262.5,161.6,263.7,159.7,263.5,152.4z"/>
							<path class="st19" d="M260.1,165.7c-1.7,1.6-4.6,2.2-4.3-0.6c-1.1,0.5-2.2,0.4-2.5-0.7c-0.4,0.8-0.5,2,0.1,3.8
								c0.1,0.4,0.3,0.7,0.5,1C256.1,169.6,258.9,167.8,260.1,165.7z"/>
						</g>
					</g>
					<g>
						<path class="st8" d="M167,124.2c0.9-1,3.2-19.9-14.2-28.1l0.9,4.7c0,0-11.4-7.3-24.6-5l4.4,3.8c0,0-19.2,2.8-27.1,17l5.7-0.9
							c0,0,11.4,7.3,17.7,9.8l-10.4,0.6C119.4,126.1,149.7,143.1,167,124.2z"/>
						<path class="st19" d="M167,124.2c0.9-1,3.2-19.9-14.2-28.1l0.9,4.7c0,0-11.4-7.3-24.6-5l4.4,3.8c0,0-19.2,2.8-27.1,17l5.7-0.9
							c0,0,11.4,7.3,17.7,9.8l-10.4,0.6C119.4,126.1,149.7,143.1,167,124.2z"/>
						<path class="st8" d="M152.8,96.1l0.9,4.7c0,0-11.4-7.3-24.6-5l4.4,3.8c0,0-11.3,1.7-20.1,8.9c3.9,2.3,9.6,5.6,13.4,7.1
							l-10.4,0.6c0,0,30.3,17,47.6-1.9c0.3-0.4,0.9-3.3,0.5-7.3C162.3,102.9,158.7,98.9,152.8,96.1z"/>
						<path class="st9" d="M171.4,122c0,0-1.3-1.9-6.3,0.3c-5,2.2-6.3,8.2-3.8,10.7C163.8,135.6,176.5,126.4,171.4,122z"/>
						<path class="st8" d="M165.4,164.5c0,0,5,0,3.1,5.6c-2,5.6-8.1,2.2-9.8-1.1c-1.7-3.4-3.6-4.2-3.4-13.7
							c0.3-9.5,3.1-37.6,42.9-40.1l-2.8,5.3c0,0-18.5,3.9-25.5,12.9c-7,9-10.4,30.3-9,33.1C162.3,169.3,168.2,170.9,165.4,164.5z"/>
						<g>
							<path class="st19" d="M158.7,154.5c-0.2,7.1,0.8,9.4,2.1,11.5c-0.9-4.2,2.4-24,9.1-32.6c7-9,25.5-12.9,25.5-12.9l2.8-5.3
								c-3.6,0.2-6.9,0.7-9.9,1.3C161.1,123.6,158.9,146.1,158.7,154.5z"/>
							<path class="st19" d="M168.9,167.9c-0.7,0.5-1.8,0.2-2.8-0.4c-0.2,2.2-2.9,1.5-4.5-0.1c0.1,0.2,0.3,0.5,0.4,0.8
								c0.9,1.8,3,3.5,5.1,4c0.5-0.5,1-1.2,1.3-2.1C168.8,169.2,168.9,168.5,168.9,167.9z"/>
						</g>
					</g>
					<g>
						<path class="st21" d="M257.7,119.8c2.4-7.5,6.5-15.3,14.9-16.8c1-0.2,0.6-1.8-0.4-1.6c-9,1.6-13.5,9.9-16.1,17.9
							C255.8,120.4,257.4,120.8,257.7,119.8L257.7,119.8z"/>
					</g>
					<g>
						<path class="st21" d="M261.6,122.9c5.5,0.2,10.9,0.1,16.4-0.3c1-0.1,1.1-1.7,0-1.6c-5.5,0.5-10.9,0.6-16.4,0.3
							C260.5,121.2,260.5,122.9,261.6,122.9L261.6,122.9z"/>
					</g>
					<g>
						<path class="st21" d="M264.1,117.5c5.2-5.9,12.2-9.2,20-9.4c1.1,0,1.1-1.7,0-1.6c-8.2,0.2-15.7,3.7-21.2,9.9
							C262.3,117.1,263.4,118.3,264.1,117.5L264.1,117.5z"/>
					</g>
					<g>
						<path class="st21" d="M291.8,104.4c5.1,0.3,9.8,2.2,13.8,5.5c0.8,0.7,2-0.5,1.2-1.2c-4.3-3.6-9.3-5.6-14.9-6
							C290.8,102.7,290.8,104.3,291.8,104.4L291.8,104.4z"/>
					</g>
					<g>
						<path class="st21" d="M286.2,116.7c5,0.6,9.8,0.1,14.5-1.6c1-0.3,0.6-1.9-0.4-1.6c-4.6,1.6-9.3,2.1-14.1,1.5
							C285.1,115,285.2,116.6,286.2,116.7L286.2,116.7z"/>
					</g>
					<g>
						<path class="st21" d="M164.1,123.2c-0.1-3.7-0.6-7.4-1.6-11c-0.3-1-1.9-0.6-1.6,0.4c0.9,3.5,1.5,7,1.5,10.5
							C162.5,124.2,164.1,124.2,164.1,123.2L164.1,123.2z"/>
					</g>
					<g>
						<path class="st21" d="M160.5,126.5c-2.5-8.4-6.9-15.7-13.2-21.8c-0.8-0.7-1.9,0.4-1.2,1.2c6.1,5.9,10.3,13,12.7,21.1
							C159.2,128,160.8,127.5,160.5,126.5L160.5,126.5z"/>
					</g>
					<g>
						<path class="st21" d="M113.4,114.2c7.1-3.9,15.3-3.7,22.1,0.6c0.9,0.6,1.7-0.9,0.8-1.4c-7.4-4.6-16.2-4.8-23.8-0.6
							C111.7,113.3,112.5,114.7,113.4,114.2L113.4,114.2z"/>
					</g>
					<g>
						<path class="st21" d="M125.8,118.4c2-0.1,4,0.5,5.6,1.8c0.8,0.7,2-0.5,1.2-1.2c-1.9-1.6-4.2-2.4-6.7-2.3
							C124.7,116.8,124.7,118.4,125.8,118.4L125.8,118.4z"/>
					</g>
					<g>
						<path class="st21" d="M130.4,103c2.9,0,5.8,0,8.7,0c1.1,0,1.1-1.6,0-1.6c-2.9,0-5.8,0-8.7,0C129.4,101.3,129.4,103,130.4,103
							L130.4,103z"/>
					</g>
					<g>
						<path class="st21" d="M261,164.2c2.1-3.7,2.8-7.8,2.2-12.1c-0.2-1-1.7-0.6-1.6,0.4c0.5,3.8-0.2,7.5-2.1,10.8
							C259.1,164.3,260.5,165.2,261,164.2L261,164.2z"/>
					</g>
					<g>
						<path class="st21" d="M160.3,145.5c-1.5,4.4-2,8.9-1.4,13.6c0.1,1,1.8,1,1.6,0c-0.6-4.5-0.2-8.8,1.3-13.1
							C162.2,144.9,160.6,144.5,160.3,145.5L160.3,145.5z"/>
					</g>
					<g>
						<path class="st19" d="M196.1,113.5c-2.4,0.7-7.9,2.8-1.1,9.9l2-3.1c0,0,7.1,11,19.3,10.8c0,0-3.4-3.4-2-6.8l4.5,3.4
							c0,0,0.8-5.4,2.3-6.5c1.4-1.1,1.1,3.7,1.1,3.7s5.4-4.2,5.7-6.8C228.1,115.5,216.8,107,196.1,113.5z"/>
						<path class="st8" d="M223,113.6c-5.1-2.4-14.3-4.1-26.9-0.1c-0.6,0.2-1.4,0.5-2.1,0.9c2,2.6,8.6,10.1,18.6,9.9
							c0,0-3.4-3.4-2-6.8l4.5,3.4c0,0,0.8-5.4,2.3-6.5c1.4-1.1,1.1,3.7,1.1,3.7S221.4,115.8,223,113.6z"/>
						<g>
							<path class="st21" d="M201.9,114.2c-0.6,3.7,0.1,7.2,2.1,10.3c0.6,0.9,2,0.1,1.4-0.8c-1.8-2.7-2.5-5.8-1.9-9.1
								C203.7,113.7,202.1,113.2,201.9,114.2L201.9,114.2z"/>
						</g>
						<g>
							<path class="st21" d="M208.5,113.4c0,1.2,0,2.4,0,3.6c0,1.1,1.6,1.1,1.6,0c0-1.2,0-2.4,0-3.6
								C210.1,112.4,208.5,112.4,208.5,113.4L208.5,113.4z"/>
						</g>
						<g>
							<path class="st21" d="M214.4,123.4c-0.9-3.2,1.1-6.5,4.3-7.3c1-0.2,0.6-1.8-0.4-1.6c-4.1,0.9-6.6,5.3-5.5,9.3
								C213.1,124.9,214.7,124.4,214.4,123.4L214.4,123.4z"/>
						</g>
					</g>
				</g>
			</g>
			<g>
				<path class="st22" d="M169.4,139.3c0,0-11.6,3.9-12.8,1.9C155.5,139.3,159.7,133.8,169.4,139.3z"/>
				<path class="st22" d="M151.1,134.6c0,0-15.7,2.1-16.7-0.6C133.3,131.2,140.1,125.4,151.1,134.6z"/>
				<path class="st22" d="M154.6,149.7c0,0-10.5,6.7-12.1,5.1C140.9,153.1,143.7,146.7,154.6,149.7z"/>
				<path class="st22" d="M249.6,138.1c0,0,11.6,3.9,12.8,1.9C263.5,138.1,259.3,132.7,249.6,138.1z"/>
				<path class="st22" d="M267.9,133.5c0,0,15.7,2.1,16.7-0.6C285.7,130.1,278.9,124.2,267.9,133.5z"/>
				<path class="st22" d="M264.4,148.5c0,0,10.5,6.7,12.1,5.1C278.1,151.9,275.3,145.5,264.4,148.5z"/>
			</g>
			<g class="st5">
				<path class="st12" d="M241.5,134c-4.6-2.4-8.8-5.4-12.7-8.9c-2.4-2.1,1.1-5.6,3.5-3.5c3.6,3.2,7.4,5.9,11.7,8.1
					C246.7,131.2,244.2,135.5,241.5,134L241.5,134z"/>
			</g>
			<g>
				<path class="st23" d="M241.5,132.3c-4.6-2.4-8.8-5.4-12.7-8.9c-2.4-2.1,1.1-5.6,3.5-3.5c3.6,3.2,7.4,5.9,11.7,8.1
					C246.7,129.6,244.2,133.8,241.5,132.3L241.5,132.3z"/>
			</g>
			<g class="st5">
				<path class="st12" d="M178.8,136.1c4.6-2.4,8.8-5.4,12.7-8.9c2.4-2.1-1.1-5.6-3.5-3.5c-3.6,3.2-7.4,5.9-11.7,8.1
					C173.5,133.4,176,137.6,178.8,136.1L178.8,136.1z"/>
			</g>
			<g>
				<path class="st23" d="M178.3,134.3c4.6-2.4,8.8-5.4,12.7-8.9c2.4-2.1-1.1-5.6-3.5-3.5c-3.6,3.2-7.4,5.9-11.7,8.1
					C173,131.5,175.5,135.7,178.3,134.3L178.3,134.3z"/>
			</g>
			<g>
				<g>
					<path class="st16" d="M243.1,140.9c1.1-0.1,2.2-0.4,3.2-0.9c0.9-0.4,1.7-1,2.4-1.7c0.5-0.6,0.6-1.6,0-2.1
						c-0.6-0.5-1.5-0.6-2.1,0c-0.2,0.2-0.5,0.5-0.8,0.7c0.1-0.1,0.2-0.2,0.3-0.2c-0.5,0.4-1.1,0.7-1.6,1c0.1-0.1,0.2-0.1,0.4-0.2
						c-0.6,0.2-1.2,0.4-1.8,0.5c0.1,0,0.3,0,0.4-0.1c-0.1,0-0.2,0-0.3,0c-0.4,0-0.8,0.1-1.1,0.4c-0.3,0.3-0.5,0.7-0.4,1.1
						C241.7,140.1,242.3,140.9,243.1,140.9L243.1,140.9z"/>
				</g>
			</g>
			<g>
				<g>
					<path class="st16" d="M247,144.7c1,0.3,2.2,0.2,3.2-0.1c1-0.3,2-0.9,2.6-1.8c0.3-0.3,0.4-0.6,0.4-1.1c0-0.4-0.2-0.8-0.4-1.1
						c-0.3-0.3-0.7-0.5-1.1-0.4c-0.4,0-0.8,0.1-1.1,0.4c-0.2,0.3-0.4,0.5-0.7,0.7c0.1-0.1,0.2-0.2,0.3-0.2c-0.3,0.2-0.6,0.4-0.9,0.5
						c0.1-0.1,0.2-0.1,0.4-0.2c-0.4,0.1-0.7,0.3-1.1,0.3c0.1,0,0.3,0,0.4-0.1c-0.4,0.1-0.8,0.1-1.1,0c0.1,0,0.3,0,0.4,0.1
						c-0.1,0-0.3-0.1-0.4-0.1c-0.8-0.2-1.7,0.2-1.8,1C245.8,143.6,246.2,144.5,247,144.7L247,144.7z"/>
				</g>
			</g>
			<g>
				<g>
					<path class="st16" d="M178,139.5c-0.3-0.1-0.6-0.2-0.9-0.3c0.1,0.1,0.2,0.1,0.4,0.2c-0.5-0.2-1-0.5-1.4-0.8
						c0.1,0.1,0.2,0.2,0.3,0.2c-0.2-0.2-0.4-0.4-0.6-0.6c-0.3-0.3-0.7-0.4-1.1-0.4c-0.4,0-0.8,0.2-1.1,0.4c-0.3,0.3-0.5,0.7-0.4,1.1
						c0,0.4,0.2,0.8,0.4,1.1c1,1,2.2,1.7,3.6,2.1c0.4,0.1,0.8,0,1.2-0.2c0.3-0.2,0.6-0.5,0.7-0.9c0.1-0.4,0.1-0.8-0.2-1.2
						C178.7,139.8,178.4,139.6,178,139.5L178,139.5z"/>
				</g>
			</g>
			<g>
				<g>
					<path class="st16" d="M174.3,142.5c-0.2,0.1-0.3,0.1-0.5,0.1c0.1,0,0.3,0,0.4-0.1c-0.2,0-0.4,0-0.6,0c0.1,0,0.3,0,0.4,0.1
						c-0.3,0-0.5-0.1-0.7-0.2c0.1,0.1,0.2,0.1,0.4,0.2c-0.2-0.1-0.5-0.2-0.7-0.4c0.1,0.1,0.2,0.2,0.3,0.2c-0.2-0.1-0.3-0.3-0.5-0.5
						c0.1,0.1,0.2,0.2,0.2,0.3c-0.1-0.2-0.3-0.4-0.3-0.6c0.1,0.1,0.1,0.2,0.2,0.4c-0.1-0.2-0.1-0.3-0.1-0.5
						c-0.1-0.4-0.4-0.7-0.7-0.9c-0.3-0.2-0.8-0.3-1.2-0.2c-0.4,0.1-0.7,0.3-0.9,0.7c-0.2,0.4-0.2,0.7-0.2,1.2c0.2,1.1,1,2.1,2,2.7
						c1,0.6,2.3,0.8,3.4,0.4c0.4-0.1,0.7-0.3,0.9-0.7c0.2-0.3,0.3-0.8,0.2-1.2c-0.1-0.4-0.3-0.7-0.7-0.9
						C175.1,142.5,174.7,142.4,174.3,142.5L174.3,142.5z"/>
				</g>
			</g>
			<path class="st11" d="M289.3,204.5c1.2,0.4,2.7,1.5,2.5,4.6c-0.3,5.2-6.9,6.8-6.9,6.8s3.9-0.9,4.4,3.7c0.6,4.6-2.5,6.2-2.5,6.2
				s1,2.7,3.5,0.9c1.9-3.4-1-12.2-1-12.2C294.4,212.1,298,203,289.3,204.5z"/>
			<g class="st5">
				<path class="st12" d="M299.7,221.6c1.1-0.2,1.9-0.7,1.9-0.7S300.7,221.2,299.7,221.6z"/>
				<path class="st12" d="M300.3,211.4C300.3,211.3,300.3,211.3,300.3,211.4C300.3,211.3,300.3,211.3,300.3,211.4z"/>
				<path class="st12" d="M303.4,222.9c-2.3,1.4-4.8,2.3-6.3,1.6c-1.8-0.8,0.7-2.1,2.6-2.9c-1.1,0.3-2.5,0.3-3.6-0.7
					c-2.1-1.9,5.3-4.5,5.3-4.5c-4.1,1.5-7,1.1-7.2-0.9c-0.2-1.9,5.3-3.8,6-4.1c-0.6,0.2-5.4,1.7-7.3-0.4c-0.8-0.9,0-1.9,1.3-2.8
					c-1.3,0.4-2.3,0.8-2.5,1.1c-3,3.5,2.6,8.1,2.6,11.9c0,1.3-0.4,2.6,0.3,3.7c0.6,1.1,2,1.4,3.2,1.2
					C300.4,225.3,302.2,224.3,303.4,222.9z"/>
			</g>
			<path class="st10" d="M270.2,297.8c7.3-9.7,21.8-11.5,21.8-11.5s-34.6-22-41.5-29.3c-15,3.3-29.3,6.4-29.6,6.4
				c-0.6,0-25.1-2.2-34.6-4.1c-3.2,4.4-9.6,8-13.4,10.6c-6.1,4.2-12.3,8.8-19.3,11.4c0.2,0,0.3,0.1,0.5,0.1c0.5,0,1,0,1.5,0.1
				c0.7,0,1.6-0.1,2.5-0.3c1.7-0.3,25.3-14.3,27.8-15c2.5-0.8,8-0.8,8.5,1.3c0.5,2-6.3,13-6.3,13s9.3-11.5,11.8-11
				c2.5,0.5,20,2.5,26.3,0.5c6.3-2,25.3,17.8,25.3,17.8s-14.8-18.8-12.5-20c2.3-1.3,11.3-5,11.3-5l32.5,22.5c0,0-11.5,6.8-14.8,14.5
				c-0.1,0.3-0.2,0.6-0.2,0.8C268.7,299.7,269.5,298.8,270.2,297.8z"/>
			<path class="st14" d="M228.8,265.5c7.9-1.3,16.1-3.3,23.2-6.9c-1.1-1-1.9-1.8-2.4-2.5c-0.4-0.6-0.9-1.6-1.4-2.9
				c-6.6,3.2-14.2,4.8-21.2,5.9c-13.1,2.1-26.7,1.7-39.2-2.8c-0.7,2-2.1,3.8-3.8,5.5C198.3,267.3,213.6,268,228.8,265.5z"/>
			<g class="st5">
				<g>
					<path class="st12" d="M189.2,269.1c-4.8,6.5-9.5,13-14,19.6c-1.1,1.6,1.5,3.1,2.6,1.5c4.6-6.6,9.3-13.1,14-19.6
						c0.5-0.7,0.1-1.7-0.5-2.1C190.5,268.1,189.7,268.5,189.2,269.1L189.2,269.1z"/>
				</g>
			</g>
			<g class="st5">
				<g>
					<path class="st12" d="M241.9,272c3.3,5.3,7.1,10.4,11.1,15.2c0.5,0.6,1.6,0.5,2.1,0c0.6-0.6,0.5-1.5,0-2.1
						c-3.9-4.6-7.5-9.5-10.7-14.6C243.5,268.8,240.9,270.3,241.9,272L241.9,272z"/>
				</g>
			</g>
			<g class="st5">
				<g>
					<path class="st12" d="M252.9,268.8c6,4.8,12,9.6,18,14.4c0.6,0.5,1.5,0.6,2.1,0c0.5-0.5,0.6-1.6,0-2.1c-6-4.8-12-9.6-18-14.4
						c-0.6-0.5-1.5-0.6-2.1,0C252.3,267.2,252.2,268.3,252.9,268.8L252.9,268.8z"/>
				</g>
			</g>
			<g class="st5">
				<g>
					<path class="st12" d="M181.4,300c3.9,2.9,8.9,4.5,13.5,5.9c4.9,1.5,9.9,2.4,15,1.5c1.9-0.3,1.1-3.2-0.8-2.9
						c-4.7,0.8-9.4-0.2-13.8-1.7c-4.2-1.4-8.7-2.8-12.3-5.5C181.3,296.3,179.8,298.9,181.4,300L181.4,300z"/>
				</g>
			</g>
			<g class="st5">
				<g>
					<path class="st12" d="M191,223.9c0.6,8.8-0.1,17.5-1.9,26.1c-0.4,1.9,2.5,2.7,2.9,0.8c2-8.8,2.7-17.9,2.1-26.9
						C193.9,221.9,190.9,221.9,191,223.9L191,223.9z"/>
				</g>
			</g>
			<g class="st5">
				<g>
					<path class="st12" d="M243.8,219.1c0.5,0.3,0.9,0.6,1.4,1c0.1,0,0.1,0.1,0.2,0.1c-0.1,0-0.1-0.1-0.2-0.1c0,0,0.1,0.1,0.1,0.1
						c0.1,0.1,0.2,0.2,0.3,0.3c0.2,0.2,0.4,0.4,0.7,0.6c0.9,0.8,1.7,1.6,2.4,2.5c0.5,0.6,1.6,0.6,2.1,0c0.6-0.6,0.5-1.5,0-2.1
						c-1.6-1.9-3.5-3.5-5.6-4.8c-0.7-0.4-1.7-0.2-2.1,0.5C242.9,217.7,243.1,218.6,243.8,219.1L243.8,219.1z"/>
				</g>
			</g>
			<g class="st5">
				<g>
					<path class="st12" d="M183.1,220.9c-1.2,1.3-2,2.8-2.6,4.4c-0.1,0.3,0,0.8,0.2,1.2c0.2,0.3,0.5,0.6,0.9,0.7
						c0.4,0.1,0.8,0.1,1.2-0.2c0.3-0.2,0.5-0.5,0.7-0.9c0.1-0.2,0.1-0.3,0.2-0.5c-0.1,0.1-0.1,0.2-0.2,0.4c0.4-1,0.9-1.9,1.6-2.7
						c-0.1,0.1-0.2,0.2-0.2,0.3c0.2-0.2,0.3-0.4,0.5-0.6c0.3-0.3,0.4-0.7,0.4-1.1c0-0.4-0.2-0.8-0.4-1.1c-0.3-0.3-0.7-0.5-1.1-0.4
						C183.8,220.5,183.3,220.6,183.1,220.9L183.1,220.9z"/>
				</g>
			</g>
			<g class="st5">
				<g>
					<path class="st12" d="M231.3,257.1c4.8-0.9,9.5-2.3,14.1-4.2c0.7-0.3,1.3-1,1-1.8c-0.2-0.7-1.1-1.4-1.8-1
						c-4.5,1.9-9.2,3.3-14.1,4.2c-0.8,0.1-1.2,1.1-1,1.8C229.7,256.9,230.5,257.2,231.3,257.1L231.3,257.1z"/>
				</g>
			</g>
		</g>
		<g>
			<g class="st5">
				<path class="st12" d="M350.2,318.9c0,2.1-0.5,4-1.4,5.9c-0.2,0.5,0.5,0.9,0.7,0.4c1-2,1.5-4.1,1.5-6.3
					C351.1,318.4,350.2,318.4,350.2,318.9L350.2,318.9z"/>
			</g>
			<g class="st5">
				<path class="st12" d="M347.5,318.9c-0.7,1-1.3,2.1-1.9,3.1c-0.3,0.5,0.5,0.9,0.7,0.4c0.6-1.1,1.2-2.1,1.9-3.1
					C348.5,318.9,347.7,318.5,347.5,318.9L347.5,318.9z"/>
			</g>
			<g>
				<path class="st9" d="M372.1,319.6c-0.1,2.3-0.2,4.6-0.1,6.9c0.1,1.9,1.1,3.6,0.7,5.5c0,0.2-0.1,0.5-0.3,0.7
					c-0.4,0.5-1.2,0.4-1.9,0.3c0.1,0.5,0.3,1,0.1,1.5c-0.4,1.3-1.9,0.9-2.3,0c-0.3-0.6-0.4-1.2-1-1.5c-0.8-0.5-1.8,0.2-2.1,1.1
					c-0.3,0.8-0.1,1.8,0,2.7c0.2,2-0.1,4-0.8,5.8c-0.2,0.5-0.6,1.2-1.2,1.2c-0.6,0-1-0.5-1.2-1c-1.4-2.7-1.6-5.9-1.5-8.9
					c0-1,0.1-2.2-0.5-3c-0.7-1-2.2-1.2-3.4-1.1c-1.2,0.1-2.5,0.5-3.7,0.3c-2-0.3-3.6-2.2-3.6-4.2c-1.6,1-3.6,1.4-5.5,1
					c-0.6-0.1-1.2-0.4-1.3-0.9c-0.1-0.4,0.2-0.9,0.4-1.2c5.1-7.1,5.8-18.3,17.1-18.3c4.3,0,10.5,2.8,11.9,7.2
					C372.3,314.5,372.2,316.8,372.1,319.6z"/>
				<path class="st10" d="M372.1,319.6c-0.1,2.3-0.2,4.6-0.1,6.9c0.1,1.9,1.1,3.6,0.7,5.5c0,0.2-0.1,0.5-0.3,0.7
					c-0.4,0.5-1.2,0.4-1.9,0.3c0.1,0.5,0.3,1,0.1,1.5c-0.4,1.3-1.9,0.9-2.3,0c-0.3-0.6-0.4-1.2-1-1.5c-0.8-0.5-1.8,0.2-2.1,1.1
					c-0.3,0.8-0.1,1.8,0,2.7c0.2,2-0.1,4-0.8,5.8c-0.2,0.5-0.6,1.2-1.2,1.2c-0.6,0-1-0.5-1.2-1c-1.4-2.7-1.6-5.9-1.5-8.9
					c0-1,0.1-2.2-0.5-3c-0.7-1-2.2-1.2-3.4-1.1c-1.2,0.1-2.5,0.5-3.7,0.3c-2-0.3-3.6-2.2-3.6-4.2c-1.6,1-3.6,1.4-5.5,1
					c-0.6-0.1-1.2-0.4-1.3-0.9c-0.1-0.4,0.2-0.9,0.4-1.2c5.1-7.1,5.8-18.3,17.1-18.3c4.3,0,10.5,2.8,11.9,7.2
					C372.3,314.5,372.2,316.8,372.1,319.6z"/>
				<path class="st9" d="M372.5,328.8c-0.2-0.8-0.4-1.5-0.4-2.4c-0.1-2.3,0-4.6,0.1-6.9c0.1-2.7,0.1-5.1-0.1-5.9
					c-1.4-4.5-7.6-7.2-11.9-7.2c-10.3,0-11.8,9.4-15.9,16.4c1.9,0.3,3.8,0,5.4-1c0,2,1.6,3.9,3.6,4.2c1.2,0.2,2.5-0.2,3.7-0.3
					c1.2-0.1,2.7,0.1,3.4,1.1c0.6,0.8,0.6,2,0.5,3c-0.1,3,0,6.2,1.5,8.9c0.3,0.5,0.7,1,1.2,1c0.6,0,1-0.6,1.2-1.2
					c0.2-0.5,0.4-1,0.5-1.6c0-0.1,0-0.1,0-0.2c-0.1-0.9-0.3-1.8,0-2.7c0.1-0.2,0.2-0.4,0.3-0.5c0-0.3,0-0.6,0-0.8
					c-0.1-0.9-0.3-1.8,0-2.7c0.3-0.8,1.3-1.5,2.1-1.1c0.5,0.3,0.7,1,1,1.5c0.5,1,2,1.3,2.3,0c0.1-0.5,0-1-0.1-1.5
					C371.4,329,372,329.1,372.5,328.8z"/>
				<path class="st10" d="M372,313.6c-1.4-4.5-7.6-7.2-11.9-7.2c-8.2,0-10.8,5.9-13.6,11.9c0.3,0.4,0.8,0.5,1.3,0.5
					c1.8,0,3.6-0.7,4.9-1.9c0.4,1.9,2.2,3.3,4.1,3.2c1.2-0.1,2.3-0.6,3.4-1c1.1-0.4,2.5-0.4,3.4,0.4c0.7,0.7,0.9,1.7,1.1,2.7
					c0.5,2.8,1.2,5.7,3,8c0.3,0.4,0.8,0.8,1.3,0.7c0.5-0.1,0.8-0.8,0.9-1.3c0.3-1.8,0.2-3.7-0.3-5.5c-0.2-0.8-0.6-1.6-0.5-2.5
					c0.1-0.8,1-1.6,1.8-1.4c0.6,0.2,0.9,1,1.4,1.5c0-0.6,0-1.3,0.1-1.9C372.2,316.8,372.3,314.5,372,313.6z"/>
				<path class="st24" d="M372.6,305.3c0.5,2.6,0.6,5.8,1.7,8.2c0.4,0.9,3.4,5.1,0.2,4.6c0,0.9-0.3,2.2-1.4,2.3
					c-1.2,0-1.4-1.6-2.3-1.9c-0.8-0.3-1.6,0.5-1.8,1.4c-0.1,0.8,0.2,1.7,0.5,2.5c0.5,1.8,0.7,3.7,0.3,5.5c-0.1,0.5-0.3,1.2-0.9,1.3
					c-0.5,0.1-1-0.3-1.3-0.7c-1.8-2.2-2.6-5.1-3-8c-0.2-1-0.3-2-1.1-2.7c-0.9-0.8-2.2-0.7-3.4-0.4c-1.1,0.4-2.2,0.9-3.4,1
					c-1.9,0.1-3.7-1.3-4.1-3.2c-1.3,1.2-3.1,1.9-4.9,1.9c-0.5,0-1.2-0.1-1.4-0.6c-0.2-0.4,0-0.8,0.2-1.2c3.4-7.5,2-18,12.4-20.1
					c4-0.8,10.2,0.6,12.3,4.5C371.8,300.6,372.2,302.8,372.6,305.3z"/>
				<path class="st8" d="M373,316.4c1.1,0,1.5-1.3,1.4-2.3c0.1,0,0.1,0,0.2,0c-0.1-0.2-0.2-0.4-0.3-0.6c-1-2.5-1.2-5.6-1.7-8.2
					c-0.4-2.6-0.8-4.7-1.2-5.5c-2.1-3.9-8.4-5.3-12.3-4.5c-9.4,1.9-9.2,10.6-11.5,17.8c0.1,0,0.2,0,0.2,0c1.8,0,3.6-0.7,4.9-1.9
					c0.4,1.9,2.2,3.3,4.1,3.2c1.2-0.1,2.3-0.6,3.4-1c1.1-0.4,2.5-0.4,3.4,0.4c0.7,0.7,0.9,1.7,1.1,2.7c0.5,2.8,1.2,5.7,3,8
					c0.3,0.4,0.8,0.8,1.3,0.7c0.5-0.1,0.8-0.8,0.9-1.3c0-0.1,0-0.2,0-0.3c-0.1-0.4-0.2-0.8-0.3-1.1c-0.2-0.8-0.6-1.6-0.5-2.5
					c0.1-0.4,0.2-0.7,0.5-1c-0.1-0.2-0.1-0.4-0.1-0.6c-0.2-0.8-0.6-1.6-0.5-2.5c0.1-0.8,1-1.6,1.8-1.4
					C371.6,314.8,371.8,316.4,373,316.4z"/>
				<path class="st24" d="M372.6,305.2c-0.4-2.5-0.8-4.6-1.2-5.4c-2.1-3.9-8.4-5.3-12.3-4.5c-8.5,1.7-9.1,9.1-10.9,15.9
					c0.6,0.9,2.1,0.9,3,0.2c0.9-0.7,1.4-1.9,1.7-3.1c0.3-1.1,0.6-2.3,1.3-3.2c1.4,0.4,0.6,3.3,2,3.7c0.6,0.2,1.2-0.2,1.5-0.7
					s0.4-1.1,0.6-1.7c0.6-1.7,2.5-3.2,4-2.2c0.7,0.5,1.1,1.3,1.6,2c0.5,0.7,1.5,1.3,2.2,0.9c0.7-0.4,0.7-1.6,1.4-2.1
					c1.2-0.9,2.8,1.1,4.3,0.8C372.1,305.7,372.4,305.5,372.6,305.2z"/>
				<path class="st25" d="M355.5,293.6c2.3-1.3,4.9-2.2,7.5-1.8c4.2,0.7,7.1,4.5,9.2,8.2c0.4,0.8,0.9,1.6,0.9,2.5
					c0,0.9-0.5,1.8-1.4,2c-1.5,0.3-3.1-1.6-4.3-0.8c-0.7,0.5-0.7,1.7-1.4,2.1c-0.7,0.4-1.7-0.2-2.2-0.9c-0.5-0.7-0.8-1.6-1.6-2
					c-1.5-0.9-3.4,0.6-4,2.2c-0.2,0.6-0.3,1.2-0.6,1.7c-0.3,0.5-0.9,0.9-1.5,0.7c-1.4-0.5-0.6-3.3-2-3.7c-0.8,0.9-1,2.1-1.3,3.2
					c-0.3,1.1-0.7,2.3-1.7,3.1c-0.9,0.7-2.5,0.7-3.1-0.3c-0.5-0.8-0.1-1.9,0.2-2.8C350,301.7,349.9,296.8,355.5,293.6z"/>
				<path class="st16" d="M372.1,300c-2.1-3.7-5-7.4-9.1-8.1c-2.6-0.4-5.2,0.5-7.5,1.8c-5.7,3.2-5.6,8-7.3,13.6
					c0,0.1-0.1,0.2-0.1,0.3c0.7,0.2,1.5,0,2.1-0.4c0.9-0.7,1.4-1.9,1.7-3.1c0.3-1.1,0.6-2.3,1.3-3.2c1.4,0.4,0.6,3.3,2,3.7
					c0.6,0.2,1.2-0.2,1.5-0.7s0.4-1.1,0.6-1.7c0.6-1.7,2.5-3.2,4-2.2c0.7,0.5,1.1,1.3,1.6,2c0.5,0.7,1.5,1.3,2.2,0.9
					c0.7-0.4,0.7-1.6,1.4-2.1c1.2-0.9,2.8,1.1,4.3,0.8C371.5,301.2,372,300.6,372.1,300z"/>
				<path class="st26" d="M361.7,299.9c-0.5-0.2-0.1-0.9,0.4-0.7c1.5,0.6,2.6,1.8,3.1,3.3c0.2,0.5-0.6,0.7-0.8,0.2
					C363.9,301.5,362.9,300.5,361.7,299.9L361.7,299.9z M362.4,294.7c2.7,0.6,4.2,2.8,5.6,4.9c0.3,0.4,1,0,0.7-0.4
					c-1.5-2.3-3.2-4.7-6.1-5.3C362.1,293.8,361.9,294.5,362.4,294.7L362.4,294.7z M354.1,297.4c-1.6,2.6-2.7,5.4-3.3,8.3
					c-0.1,0.5,0.7,0.7,0.8,0.2c0.6-2.9,1.6-5.6,3.2-8.2C355.1,297.4,354.4,296.9,354.1,297.4L354.1,297.4z M355,302
					c0.6,0.7,1,1.5,1.1,2.4c0,0.5,0.9,0.5,0.8,0c-0.1-1.2-0.6-2.2-1.4-3C355.2,301,354.6,301.6,355,302L355,302z"/>
				<g>
					<path class="st8" d="M368.8,308.3c-0.4,1.3-0.7,2.6-0.8,3.9c-0.1,0.7,1,0.7,1.1,0c0.1-1.2,0.4-2.4,0.8-3.6
						C370,307.9,369,307.6,368.8,308.3L368.8,308.3z"/>
				</g>
				<g>
					<path class="st8" d="M361.7,310.4c1.5,2.4,2.5,4.9,3,7.7c0.1,0.7,1.2,0.4,1.1-0.3c-0.5-2.8-1.6-5.5-3.1-7.9
						C362.3,309.3,361.3,309.8,361.7,310.4L361.7,310.4z"/>
				</g>
				<g>
					<path class="st8" d="M353.9,308.8c0,2.4-0.7,4.6-2,6.6c-0.4,0.6,0.5,1.1,0.9,0.6c1.4-2.1,2.2-4.6,2.2-7.1
						C354.9,308.1,353.9,308.1,353.9,308.8L353.9,308.8z"/>
				</g>
				<g>
					<path class="st8" d="M355.6,310.5c0,0.8,0,1.6,0,2.4c0,0.7,1.1,0.7,1.1,0c0-0.8,0-1.6,0-2.4
						C356.7,309.8,355.6,309.8,355.6,310.5L355.6,310.5z"/>
				</g>
				<g class="st5">
					<path class="st12" d="M360.8,324.2c-0.4,1.5-0.1,3.2-0.1,4.7c0.1,2,0.2,4.1,0.2,6.1c0,0.5,0.8,0.5,0.8,0
						c-0.1-1.8-0.1-3.5-0.2-5.3c-0.1-1.7-0.4-3.7,0-5.3C361.7,323.9,360.9,323.7,360.8,324.2L360.8,324.2z"/>
				</g>
				<g class="st5">
					<path class="st12" d="M363.2,338.8c1.2,0.3,1.7-0.9,1.9-1.9c0.5-2.7,0.1-5.9-0.1-8.6c0-0.5-0.9-0.5-0.8,0
						c0.1,0.9,0.6,10-0.7,9.7C362.9,337.9,362.7,338.7,363.2,338.8L363.2,338.8z"/>
				</g>
				<g class="st5">
					<path class="st12" d="M370.3,321.2c0.1,2.2,0.3,4.4,0.5,6.6c0,0.5,0.9,0.5,0.8,0c-0.2-2.2-0.4-4.4-0.5-6.6
						C371.1,320.7,370.3,320.7,370.3,321.2L370.3,321.2z"/>
				</g>
				<g>
					<g>
						<path class="st8" d="M361.2,298.2c1.1,0,1.1-1.6,0-1.6C360.2,296.5,360.2,298.2,361.2,298.2L361.2,298.2z"/>
					</g>
					<g>
						<path class="st8" d="M366.8,298.7c0.1-0.1,0.1-0.2,0.2-0.3c0.5-0.9-0.9-1.8-1.4-0.8c-0.1,0.1-0.1,0.2-0.2,0.3
							C364.9,298.8,366.4,299.6,366.8,298.7L366.8,298.7z"/>
					</g>
					<g>
						<path class="st8" d="M366.1,293.7c1.1,0,1.1-1.6,0-1.6C365.1,292.1,365.1,293.7,366.1,293.7L366.1,293.7z"/>
					</g>
					<g>
						<path class="st8" d="M360,293.1c1.1,0,1.1-1.6,0-1.6C358.9,291.5,358.9,293.1,360,293.1L360,293.1z"/>
					</g>
					<g>
						<path class="st8" d="M354.8,295.7c1.1,0,1.1-1.6,0-1.6C353.7,294.1,353.7,295.7,354.8,295.7L354.8,295.7z"/>
					</g>
					<g>
						<path class="st8" d="M355.5,301.1c1.1,0,1.1-1.6,0-1.6C354.5,299.4,354.5,301.1,355.5,301.1L355.5,301.1z"/>
					</g>
					<g>
						<path class="st8" d="M350.5,301.2c0.1,0,0.1,0,0.2,0c1.1,0,1.1-1.6,0-1.6c-0.1,0-0.1,0-0.2,0
							C349.4,299.6,349.4,301.2,350.5,301.2L350.5,301.2z"/>
					</g>
					<g>
						<path class="st8" d="M356.9,306.1c1.1,0,1.1-1.6,0-1.6C355.9,304.5,355.9,306.1,356.9,306.1L356.9,306.1z"/>
					</g>
				</g>
			</g>
		</g>
	</g>
</g>
<g id="DESIGNED_BY_FREEPIK">
</g>
</svg>
