<?xml version="1.0" encoding="utf-8"?>
<!-- Generator: Adobe Illustrator 24.3.0, SVG Export Plug-In . SVG Version: 6.00 Build 0)  -->
<svg version="1.1" id="Layer_1" xmlns="http://www.w3.org/2000/svg" xmlns:xlink="http://www.w3.org/1999/xlink" x="0px" y="0px"
	 viewBox="0 0 1600 1200" style="enable-background:new 0 0 1600 1200;" xml:space="preserve">
<style type="text/css">
	.st0{fill:#F83C1E;}
	.st1{fill:#2C99B0;}
	.st2{fill:#D0E215;}
	.st3{fill:#E95272;}
	.st4{fill:#F6B800;}
	.st5{fill:#423783;}
	.st6{fill:#FFEAAB;}
</style>
<desc>Created with Sketch.</desc>
<rect x="331" y="881" transform="matrix(0.682 -0.7314 0.7314 0.682 -729.3494 1044.9252)" class="st0" width="1011.8" height="960.3"/>
<polygon class="st1" points="1303.2,-570.5 2768.6,426.5 1849.8,1533.8 384.5,536.8 "/>
<path class="st2" d="M522,733.4c-11.9,5.3-25.8,0-31.1-11.8c-5.3-11.9,0-25.8,11.8-31.1c72.8-32.6,136.1-83.7,183.6-147.8
	c6.5-8.8,18.3-11.9,28.3-7.5c14.9,6.5,31,9.9,47.6,9.9c65.8,0,119.1-53.3,119.1-119.1c0-43.1-23.1-82.2-59.8-103.3
	c-18.9-10.9-14.1-39.4,7.3-43.5c121.1-23,210-129.4,210-254.2c0-142.9-115.8-258.7-258.7-258.7c-78.5,0-151.3,35.2-200.1,94.7
	c-8.2,10-23.1,11.5-33.1,3.3c-10-8.2-11.5-23.1-3.3-33.1c57.7-70.3,143.7-111.9,236.5-111.9c168.9,0,305.8,136.9,305.8,305.8
	c0,147.5-105.1,273.1-248.3,300.4l7.3-43.5c51.2,29.4,83.4,84,83.4,144.1c0,91.8-74.4,166.1-166.1,166.1c-23.1,0-45.6-4.7-66.4-13.8
	l9.4-21.6l18.9,14C671.8,641.2,602.1,697.4,522,733.4z M573.9-174.3c11.2,6.6,14.8,21.1,8.2,32.2c-6.6,11.2-21.1,14.8-32.2,8.2
	c-71.2-42.3-152.5-64.9-237.1-64.9C56-198.8-152.1,9.4-152.1,266.1c0,6.1,0.1,12.2,0.4,18.3c0.5,13-9.6,23.9-22.6,24.4
	c-13,0.5-23.9-9.6-24.4-22.6c-0.3-6.7-0.4-13.4-0.4-20.1c0-282.7,229.2-511.9,511.9-511.9C405.9-245.8,495.5-220.8,573.9-174.3z"/>
<path class="st3" d="M1377.8,564c282.1,0,510.8-228.7,510.8-510.8s-228.7-510.8-510.8-510.8c-82,0-161.3,19.4-232.7,56
	c-11,5.6-15.4,19.1-9.7,30.2c5.6,11,19.1,15.4,30.2,9.7c65.1-33.4,137.4-51.1,212.3-51.1c257.3,0,466,208.6,466,466
	s-208.6,466-466,466c-12.4,0-22.4,10-22.4,22.4S1365.4,564,1377.8,564z M1042.5,438.6C1134.8,519,1252.8,564,1377.8,564
	c12.4,0,22.4-10,22.4-22.4s-10-22.4-22.4-22.4c-114,0-221.6-41.1-305.9-114.4c-9.3-8.1-23.5-7.1-31.6,2.2S1033.1,430.4,1042.5,438.6
	z"/>
<rect x="1108" y="620.8" transform="matrix(0.682 -0.7314 0.7314 0.682 -394.1751 1295.3044)" class="st4" width="368.9" height="960.3"/>
<path class="st5" d="M279.4,471.7c-143,0-259-116-259-259c0-137,106.8-250.2,242.9-258.5c16.5-1,30.8,11.6,31.8,28.1
	c1,16.5-11.6,30.8-28.1,31.8C162.4,20.5,80.4,107.4,80.4,212.7c0,109.9,89.1,199,199,199c16.6,0,30,13.4,30,30
	C309.4,458.3,295.9,471.7,279.4,471.7z"/>
<circle class="st5" cx="220.2" cy="757.9" r="211.2"/>
<circle class="st1" cx="512.8" cy="711.1" r="20.9"/>
<path class="st6" d="M1252.7,373.7c-9.9,9.9-26,9.9-35.9,0c-9.9-9.9-9.9-26,0-35.9c9.9-9.9,26-9.9,35.9,0
	C1262.6,347.7,1262.6,363.8,1252.7,373.7z M1318.6,296.1c-9.9,9.9-26,9.9-35.9,0c-9.9-9.9-9.9-26,0-35.9c9.9-9.9,26-9.9,35.9,0
	C1328.6,270.1,1328.6,286.2,1318.6,296.1z M1399.4,215.3c-9.9,9.9-26,9.9-35.9,0c-9.9-9.9-9.9-26,0-35.9c9.9-9.9,26-9.9,35.9,0
	C1409.3,189.3,1409.3,205.4,1399.4,215.3z M1485.8,128.7c-9.9,9.9-26,9.9-35.9,0c-9.9-9.9-9.9-26,0-35.9c9.9-9.9,26-9.9,35.9,0
	C1495.8,102.7,1495.8,118.8,1485.8,128.7z M1310.3,431.3c-5,5-13,5-18,0c-5-5-5-13,0-18c5-5,13-5,18,0
	C1315.2,418.3,1315.2,426.3,1310.3,431.3z M1390,351.6c-5,5-13,5-18,0c-5-5-5-13,0-18s13-5,18,0C1395,338.6,1395,346.6,1390,351.6z
	 M1469.7,271.8c-5,5-13,5-18,0c-5-5-5-13,0-18c5-5,13-5,18,0C1474.7,258.8,1474.7,266.9,1469.7,271.8z M1549.3,192.2c-5,5-13,5-18,0
	c-5-5-5-13,0-18c5-5,13-5,18,0C1554.3,179.2,1554.3,187.2,1549.3,192.2z"/>
</svg>
