<?xml version="1.0" encoding="utf-8"?>
<!-- Generator: Adobe Illustrator 24.3.0, SVG Export Plug-In . SVG Version: 6.00 Build 0)  -->
<svg version="1.1" id="Layer_1" xmlns="http://www.w3.org/2000/svg" xmlns:xlink="http://www.w3.org/1999/xlink" x="0px" y="0px"
	 viewBox="0 0 392.2 392.2" style="enable-background:new 0 0 392.2 392.2;" xml:space="preserve">
<style type="text/css">
	.st0{fill:#3F439B;}
	.st1{enable-background:new    ;}
	.st2{opacity:0.49;}
	.st3{opacity:0.58;}
	.st4{fill:#88BCE6;}
	.st5{fill:#F8D0BB;}
	.st6{fill:#FEC23E;}
	.st7{fill:#EE3279;}
	.st8{fill:#CC1D64;}
	.st9{opacity:0.58;fill:#F39B99;enable-background:new    ;}
	.st10{fill:#F39B99;}
	.st11{opacity:0.2;fill:#CC1D64;enable-background:new    ;}
	.st12{fill:#FFFFFF;}
	.st13{fill:#F8DECC;}
	.st14{fill:#521110;}
	.st15{opacity:0.31;fill:#521110;enable-background:new    ;}
	.st16{fill:#DF3426;}
	.st17{fill:#F89942;}
	.st18{opacity:0.51;fill:#F89942;enable-background:new    ;}
	.st19{fill:#FFD33F;}
	.st20{fill:#D1ECF3;}
	.st21{fill:#F47E42;}
	.st22{fill:#F79143;}
	.st23{fill:#421312;}
	.st24{opacity:0.29;fill:#FEC23E;enable-background:new    ;}
</style>
<g id="OBJECTS">
	<path class="st0" d="M368.5,282.5c12.9-25.9,20.1-55,20.1-85.8c0-106.5-86.3-192.8-192.7-192.8S3.2,90.2,3.2,196.6
		c0,30.8,7.3,60,20.1,85.8h345.2L368.5,282.5L368.5,282.5z"/>
	<g class="st1">
		<path class="st0" d="M63.7,352.6c-2.3,0.2-4.6,0.4-6.8,0.4c-2.3,0-3.7-0.1-4.4-0.3c-0.7-0.2-1-0.6-1-1v-6.9h-14
			c-1.3,0-1.9-3.1-1.9-9.3c0-0.7,1.5-3.8,4.6-9.1c3-5.4,5.2-8.9,6.3-10.6c0.4-0.6,2.1-1.2,5-1.8c2.9-0.6,5.8-0.8,8.5-0.8
			c4.7,0,7.1,0.9,7.1,2.6v36C67.1,352,66,352.3,63.7,352.6z M52.4,335.9l0.1-12.2l-3.9,12.2H52.4z"/>
		<path class="st0" d="M97.5,352.6c-2.1,0.5-4.7,0.8-7.8,0.8s-5.7-0.3-7.8-0.8s-4-1.5-5.7-3c-3.4-2.9-5.1-8.5-5.1-16.9
			c0-8.1,1.8-13.6,5.3-16.4c1.8-1.4,3.7-2.4,5.8-3s4.6-0.8,7.5-0.8s5.5,0.3,7.6,0.8c2.1,0.6,4,1.6,5.8,3c3.6,2.9,5.3,8.4,5.3,16.4
			c0,8.4-1.7,14-5.1,16.9C101.6,351.1,99.6,352.1,97.5,352.6z M88.5,343.9c0.3,0.5,0.7,0.7,1.2,0.7s0.9-0.3,1.2-0.8s0.5-1.6,0.7-3.3
			c0.2-1.7,0.3-4.2,0.3-7.3s-0.1-5.7-0.3-7.4c-0.2-1.8-0.4-3-0.7-3.5c-0.3-0.6-0.7-0.9-1.2-0.9s-0.9,0.3-1.2,0.8
			c-0.7,1.3-1.1,4.9-1.1,11C87.4,339.2,87.8,342.8,88.5,343.9z"/>
		<path class="st0" d="M139.1,352.6c-2.3,0.2-4.6,0.4-6.8,0.4c-2.3,0-3.7-0.1-4.4-0.3c-0.7-0.2-1-0.6-1-1v-6.9h-14
			c-1.3,0-1.9-3.1-1.9-9.3c0-0.7,1.5-3.8,4.6-9.1c3-5.4,5.2-8.9,6.3-10.6c0.4-0.6,2.1-1.2,5-1.8c2.9-0.6,5.8-0.8,8.5-0.8
			c4.7,0,7.1,0.9,7.1,2.6v36C142.5,352,141.4,352.3,139.1,352.6z M127.8,335.9l0.1-12.2l-3.9,12.2H127.8z"/>
		<path class="st0" d="M188,352.9h-23.8c-1.8,0-3.1-0.1-3.7-0.4c-0.6-0.3-1-0.7-1-1.2v-35.5c0-1,0.4-1.7,1.3-2.1
			c0.9-0.4,2.5-0.6,4.7-0.6h22.6c0.8,0,1.2,1.3,1.2,3.9s-0.2,4.6-0.5,5.9c-0.3,1.4-0.8,2-1.3,2c-2.4,0-6.5-0.2-12.3-0.7v3.8
			c5.5-0.2,9.1-0.3,10.8-0.3c1,0,1.5,1.2,1.5,3.5c0,2.4-0.2,4.1-0.6,5.4c-0.4,1.2-0.9,1.8-1.6,1.8l-10.2-0.2v3.6
			c6.5-0.5,11-0.7,13.5-0.7c0.8,0,1.2,1.3,1.2,3.9s-0.2,4.6-0.5,5.9C189.1,352.2,188.6,352.9,188,352.9z"/>
		<path class="st0" d="M209.5,351.3c0,0.5-1.1,0.9-3.4,1.2c-2.3,0.3-4.6,0.4-6.9,0.4c-2.3,0-3.8-0.1-4.4-0.4c-0.7-0.3-1-0.7-1-1.2
			v-36.1c0-1,1.2-1.7,3.7-2.1c2.4-0.4,5.5-0.6,9.3-0.6c3.7,0,6.2,0,7.3,0c1.1,0,2.4,0.1,3.9,0.2s2.7,0.3,3.6,0.6
			c0.9,0.3,1.9,0.6,2.9,1c1.1,0.4,1.9,0.9,2.5,1.6s1.2,1.4,1.7,2.3c1,1.6,1.5,3.9,1.5,6.9s-0.5,5.5-1.5,7.5s-2.3,3.6-4,4.6
			c4.3,6.8,6.5,11.1,6.5,12.9s-3.7,2.7-11.1,2.7c-2.1,0-3.6-0.1-4.4-0.3c-0.8-0.2-1.3-0.6-1.6-1.2l-3.6-11.6l-1-0.1V351.3z
			 M209.5,331.2h1.5c2.2,0,3.3-1.7,3.3-5c0-1.7-0.3-2.9-0.9-3.6s-1.2-1.1-2-1.1h-1.9V331.2z"/>
		<path class="st0" d="M249.7,351.3c0,0.5-1.1,0.9-3.4,1.2c-2.3,0.3-4.6,0.4-6.9,0.4s-3.8-0.1-4.4-0.4s-1-0.7-1-1.2v-36.1
			c0-1,1.2-1.7,3.7-2.1c2.4-0.4,5.5-0.6,9.3-0.6c3.7,0,6.2,0,7.3,0c1.1,0,2.4,0.1,3.9,0.2s2.7,0.3,3.6,0.6c0.9,0.3,1.9,0.6,2.9,1
			c1.1,0.4,1.9,0.9,2.5,1.6s1.2,1.4,1.7,2.3c1,1.6,1.5,3.9,1.5,6.9s-0.5,5.5-1.5,7.5s-2.3,3.6-4,4.6c4.3,6.8,6.5,11.1,6.5,12.9
			s-3.7,2.7-11.1,2.7c-2.1,0-3.6-0.1-4.4-0.3c-0.8-0.2-1.3-0.6-1.6-1.2l-3.6-11.6l-1-0.1V351.3z M249.7,331.2h1.5
			c2.2,0,3.3-1.7,3.3-5c0-1.7-0.3-2.9-0.9-3.6s-1.2-1.1-2-1.1h-1.9V331.2z"/>
		<path class="st0" d="M293.1,353.4c-3.1,0-5.8-0.3-8-0.9s-4.3-1.6-6.1-3.1c-3.8-3-5.7-8.6-5.7-17c0-3.5,0.5-6.6,1.5-9.2
			s2.5-4.7,4.3-6.2c3.6-3,8.2-4.5,14-4.5c3,0,5.5,0.3,7.7,0.8s4.3,1.5,6.2,2.9c3.9,2.8,5.9,8.3,5.9,16.3c0,7.2-1.8,12.5-5.3,15.9
			C304,351.7,299.2,353.4,293.1,353.4z M291.3,343.8c0.4,0.5,1.1,0.8,1.9,0.8s1.4-0.3,1.9-0.8s0.8-1.7,1.1-3.5
			c0.3-1.8,0.4-4.3,0.4-7.4c0-3.2-0.2-5.6-0.4-7.3c-0.3-1.7-0.7-2.8-1.1-3.4c-0.4-0.5-1.1-0.8-1.9-0.8s-1.4,0.3-1.9,0.8
			c-0.4,0.5-0.8,1.6-1.1,3.4c-0.3,1.7-0.4,4.2-0.4,7.3c0,3.2,0.1,5.7,0.4,7.4C290.4,342.1,290.8,343.3,291.3,343.8z"/>
		<path class="st0" d="M332.3,351.3c0,0.5-1.1,0.9-3.4,1.2c-2.3,0.3-4.6,0.4-6.9,0.4s-3.8-0.1-4.4-0.4c-0.7-0.3-1-0.7-1-1.2v-36.1
			c0-1,1.2-1.7,3.7-2.1c2.4-0.4,5.5-0.6,9.3-0.6s6.2,0,7.3,0c1.1,0,2.4,0.1,3.9,0.2s2.7,0.3,3.6,0.6c0.9,0.3,1.9,0.6,2.9,1
			c1.1,0.4,1.9,0.9,2.5,1.6s1.2,1.4,1.7,2.3c1,1.6,1.5,3.9,1.5,6.9s-0.5,5.5-1.5,7.5s-2.3,3.6-4,4.6c4.3,6.8,6.5,11.1,6.5,12.9
			s-3.7,2.7-11.1,2.7c-2.1,0-3.6-0.1-4.4-0.3c-0.8-0.2-1.3-0.6-1.6-1.2l-3.6-11.6l-1-0.1V351.3z M332.3,331.2h1.5
			c2.2,0,3.3-1.7,3.3-5c0-1.7-0.3-2.9-0.9-3.6s-1.2-1.1-2-1.1h-1.9V331.2z"/>
	</g>
	<g class="st1">
		<path class="st0" d="M104.2,388.6v-14.4c0-0.3,0.4-0.6,1.3-1c0.9-0.3,1.8-0.5,2.8-0.5c0.5,0,0.8,0.1,1.1,0.2s0.4,0.2,0.5,0.3
			c0.1,0.1,0.2,0.6,0.3,1.4h0.2c0-0.1,0.2-0.3,0.4-0.6c0.2-0.3,0.5-0.5,0.7-0.7s0.6-0.3,1.1-0.5s1-0.2,1.7-0.2
			c0.6,0,1.2,0.1,1.7,0.4s0.9,0.6,1.2,1s0.4,0.8,0.6,1.4c0.1,0.6,0.2,1,0.3,1.4c0,0.3,0,0.8,0,1.5s0,1.3-0.1,1.9
			c0,0.6-0.1,1.3-0.3,1.9c-0.1,0.7-0.3,1.2-0.5,1.7s-0.5,0.9-0.9,1.3c-0.7,0.8-1.7,1.1-3.1,1.1c-0.5,0-0.9-0.1-1.3-0.2
			s-0.6-0.3-0.8-0.5c-0.4-0.4-0.6-0.8-0.7-1.1v-0.2h-0.2l0.3,2.1v2.6c0,0.2-0.4,0.3-1.3,0.4s-1.8,0.1-2.7,0.1s-1.5,0-1.8-0.1
			C104.3,389,104.2,388.8,104.2,388.6z M111.5,376.5c-0.1-0.5-0.3-0.8-0.6-0.8s-0.5,0.2-0.6,0.5v6c0,0.4,0.2,0.6,0.6,0.6
			c0.5,0,0.8-1.2,0.8-3.5C111.7,377.9,111.7,377,111.5,376.5z"/>
		<path class="st0" d="M123.6,386.1c-1.4,0-2.5-0.3-3.3-1c-0.3-0.3-0.6-0.7-0.8-1.2s-0.4-1.2-0.4-1.9s0.2-1.3,0.5-1.9
			c0.3-0.5,0.8-0.9,1.2-1.2c0.5-0.3,1.1-0.5,1.7-0.7c1-0.3,2.1-0.4,3.3-0.4h0.8c0-0.6-0.2-1.1-0.6-1.3c-0.2-0.1-0.5-0.2-0.8-0.2
			s-0.8,0.1-1.3,0.3s-1,0.4-1.3,0.6s-0.6,0.3-0.7,0.3c-0.3,0-0.6-0.4-1.1-1.1s-0.7-1.4-0.7-2c0-0.2,0.3-0.5,0.8-0.8
			c0.6-0.3,1.4-0.6,2.4-0.9s2-0.4,3-0.4s1.8,0.1,2.5,0.2c0.7,0.2,1.3,0.4,1.7,0.6s0.8,0.5,1.1,0.9s0.5,0.7,0.7,1s0.3,0.7,0.4,1.2
			c0.1,0.6,0.2,1.3,0.2,2.1v6.9c0,0.2-0.4,0.3-1.2,0.4s-1.6,0.1-2.4,0.1c-0.8,0-1.3,0-1.5-0.1s-0.4-0.1-0.4-0.2s-0.1-0.2-0.1-0.3
			l-0.2-1.3h-0.2C126.4,385.4,125.3,386.1,123.6,386.1z M126.7,382.3v-2.7c-0.4,0-0.7,0.2-1,0.5c-0.2,0.3-0.4,0.7-0.4,1.1
			c0,1,0.2,1.5,0.7,1.5c0.2,0,0.4,0,0.5-0.1C126.6,382.5,126.7,382.4,126.7,382.3z"/>
		<path class="st0" d="M142,384.4v-1.3h-0.2c-0.1,0.1-0.2,0.2-0.3,0.3c-0.2,0.1-0.5,0.3-1.1,0.5s-1.3,0.3-2,0.3
			c-0.8,0-1.4-0.1-1.9-0.3c-0.5-0.2-0.9-0.5-1.2-0.9c-0.3-0.3-0.5-0.8-0.7-1.4c-0.3-0.9-0.4-2.1-0.4-3.6c0-1.8,0.4-3.1,1.1-4.1
			c0.3-0.4,0.7-0.7,1.3-1s1.2-0.4,1.8-0.4c0.7,0,1.2,0.1,1.6,0.2c0.4,0.1,0.7,0.3,1,0.5c0.4,0.4,0.7,0.8,0.7,1.1v0.2h0.2l0.2-0.9
			c0.2-0.6,1.4-1,3.6-1c1,0,1.6,0.2,1.8,0.5c0.1,0.2,0.2,0.4,0.2,0.5s0,0.4,0,0.7v9.5c0,1.8-0.6,3.2-1.8,4.1s-2.9,1.4-5.1,1.4
			c-2.4,0-4-0.2-4.9-0.7c-0.4-0.2-0.6-0.4-0.6-0.7c0-0.4,0.1-1,0.4-1.8c0.3-0.9,0.6-1.3,0.8-1.3c0.1,0,0.3,0.1,0.6,0.2
			c1.2,0.3,2.1,0.5,2.8,0.5s1.2-0.1,1.5-0.3C141.9,385.1,142,384.8,142,384.4z M141.1,381.5c0.2,0,0.3-0.1,0.4-0.2
			c0.1-0.1,0.2-0.3,0.2-0.4v-4.7c-0.1-0.3-0.2-0.5-0.5-0.5c-0.6,0-0.9,0.9-0.9,2.8c0,0.9,0.1,1.6,0.2,2.1
			C140.7,381.2,140.9,381.5,141.1,381.5z"/>
		<path class="st0" d="M155.4,380.7c0,1,0.5,1.5,1.4,1.5c0.5,0,1.3-0.2,2.1-0.6c0.9-0.4,1.3-0.6,1.4-0.6c0.3,0,0.7,0.4,1.1,1.3
			c0.5,0.9,0.7,1.5,0.7,1.9c0,0.6-0.6,1-1.8,1.3s-2.4,0.5-3.6,0.5s-2.1-0.1-2.9-0.3c-0.8-0.2-1.4-0.4-1.9-0.7
			c-0.5-0.3-0.9-0.6-1.3-1c-0.4-0.4-0.6-0.8-0.8-1.2s-0.3-0.8-0.4-1.2c-0.2-0.7-0.2-1.4-0.2-2.1c0-2.8,0.7-4.7,2.2-5.7
			c0.7-0.5,1.5-0.9,2.4-1.1s1.9-0.3,3.1-0.3c3.8,0,5.8,1.3,5.8,4c0,2.8-2.2,4.3-6.5,4.3L155.4,380.7L155.4,380.7z M155.4,377.4v1.5
			c0.4,0,0.8-0.2,1.1-0.5s0.4-0.8,0.4-1.3c0-0.9-0.2-1.4-0.7-1.4C155.6,375.8,155.4,376.3,155.4,377.4z"/>
		<path class="st0" d="M182.9,378.3v7c0,0.2-0.4,0.3-1.3,0.4c-0.9,0.1-1.8,0.1-2.7,0.1s-1.5,0-1.8-0.1s-0.4-0.2-0.4-0.4v-7.2
			c0-0.7,0-1.1-0.1-1.3s-0.1-0.4-0.1-0.6c-0.1-0.3-0.3-0.4-0.6-0.4c-0.4,0-0.6,0.2-0.6,0.6v9c0,0.2-0.4,0.3-1.3,0.4
			c-0.9,0.1-1.7,0.1-2.7,0.1s-1.5,0-1.8-0.1s-0.4-0.2-0.4-0.4v-11.2c0-0.3,0.4-0.6,1.3-1c0.9-0.3,1.8-0.5,2.8-0.5s1.5,0.3,1.6,0.8
			l0.2,1h0.2c0.4-0.9,1.2-1.5,2.3-1.8c0.4-0.1,0.9-0.2,1.5-0.2c1.5,0,2.6,0.5,3.1,1.4C182.6,374.8,182.9,376.3,182.9,378.3z"/>
		<path class="st0" d="M191.5,386.1c-1.1,0-2.1-0.1-2.9-0.3c-0.8-0.2-1.6-0.5-2.2-1c-1.4-1-2.1-2.9-2.1-5.6c0-2.4,0.7-4.2,2.1-5.2
			c1.3-1,3-1.5,5.1-1.5c0.9,0,1.7,0,2.3,0.1s1.3,0.3,1.9,0.5c0.7,0.3,1.2,0.6,1.6,1.1c0.4,0.5,0.7,1.1,1,1.9s0.4,1.8,0.4,2.9
			c0,2.3-0.7,4-2,5.2C195.4,385.5,193.7,386.1,191.5,386.1z M190.7,381.7c0.1,0.5,0.2,0.9,0.3,1s0.3,0.2,0.5,0.2s0.3-0.1,0.5-0.2
			s0.2-0.4,0.3-1c0.1-0.5,0.1-1.2,0.1-2.1c0-0.8,0-1.5-0.1-1.9c0-0.4-0.1-0.8-0.1-1c-0.1-0.2-0.1-0.4-0.2-0.6
			c-0.1-0.2-0.3-0.3-0.5-0.3s-0.3,0.1-0.5,0.2s-0.2,0.4-0.3,1s-0.2,1.3-0.2,2.4C190.5,380.3,190.6,381.1,190.7,381.7z"/>
		<path class="st0" d="M209,385.7c-0.3,0.3-0.9,0.4-1.9,0.4s-1.8-0.1-2.4-0.2s-1.2-0.4-1.8-0.8c-1.1-0.7-1.7-2.3-1.7-4.6v-3.6h-1.1
			c-0.2,0-0.3-0.2-0.4-0.5c-0.1-0.3-0.2-0.8-0.2-1.4s0.1-1.1,0.3-1.6s0.4-0.7,0.7-0.7h0.7v-2.8c0-0.5,0.5-0.8,1.4-1.1
			c0.9-0.3,1.8-0.4,2.7-0.4c1.4,0,2.1,0.3,2.1,1v3.3h1.7c0.4,0,0.6,0.6,0.6,1.7c0,0.7-0.1,1.4-0.3,1.8c-0.2,0.5-0.4,0.7-0.7,0.7
			h-1.3v4.2c0,0.4,0.2,0.7,0.5,0.9c0.3,0.2,0.7,0.3,0.9,0.3c0.3,0,0.4,0.1,0.5,0.4s0.1,0.6,0.1,1.2
			C209.4,384.8,209.3,385.4,209,385.7z"/>
		<path class="st0" d="M223.5,378.4v7c0,0.2-0.4,0.3-1.3,0.4c-0.8,0.1-1.9,0.1-3.1,0.1s-1.8-0.2-1.8-0.5v-7h-1.2
			c-0.4,0-0.6-0.7-0.6-2.1c0-0.5,0.1-1.1,0.3-1.5c0.2-0.5,0.4-0.7,0.7-0.7h0.8c0-1,0.1-1.9,0.4-2.7c0.3-0.8,0.7-1.3,1.1-1.7
			s0.9-0.7,1.5-1c0.9-0.4,1.9-0.5,3-0.5c2.8,0,4.2,0.5,4.2,1.4c0,1-0.1,1.8-0.3,2.5s-0.5,1-0.8,1c-0.1,0-0.4,0-0.8-0.1
			s-0.7-0.1-1.1-0.1c-0.9,0-1.3,0.3-1.3,0.9c0,0.2,0,0.3,0.1,0.5h3c0.4,0,0.6,0.7,0.6,2c0,0.6-0.1,1.1-0.3,1.6
			c-0.2,0.5-0.4,0.7-0.7,0.7h-2.4L223.5,378.4L223.5,378.4z"/>
		<path class="st0" d="M235.9,386.1c-1.1,0-2.1-0.1-2.9-0.3s-1.6-0.5-2.2-1c-1.4-1-2.1-2.9-2.1-5.6c0-2.4,0.7-4.2,2.1-5.2
			c1.3-1,3-1.5,5.1-1.5c0.9,0,1.7,0,2.3,0.1c0.6,0.1,1.3,0.3,1.9,0.5c0.7,0.3,1.2,0.6,1.6,1.1s0.7,1.1,1,1.9s0.4,1.8,0.4,2.9
			c0,2.3-0.7,4-2,5.2C239.9,385.5,238.1,386.1,235.9,386.1z M235.1,381.7c0.1,0.5,0.2,0.9,0.3,1c0.1,0.1,0.3,0.2,0.5,0.2
			s0.3-0.1,0.5-0.2c0.1-0.1,0.2-0.4,0.3-1c0.1-0.5,0.1-1.2,0.1-2.1c0-0.8,0-1.5-0.1-1.9c0-0.4-0.1-0.8-0.1-1
			c-0.1-0.2-0.1-0.4-0.2-0.6s-0.3-0.3-0.5-0.3s-0.3,0.1-0.5,0.2c-0.1,0.1-0.2,0.4-0.3,1c-0.1,0.6-0.2,1.3-0.2,2.4
			C234.9,380.3,235,381.1,235.1,381.7z"/>
		<path class="st0" d="M249.1,386.1c-1.7,0-2.9-0.4-3.6-1.3s-1-2.4-1-4.6V374c0-0.3,0.4-0.6,1.3-0.9s1.8-0.4,2.8-0.4
			c1.3,0,2,0.3,2,1v5.8c0,1.2,0,2,0.1,2.5s0.3,0.8,0.7,0.8c0.5,0,0.7-0.2,0.7-0.6V374c0-0.3,0.5-0.6,1.4-0.9s2-0.4,3.1-0.4
			c1.1,0,1.7,0.3,1.7,0.9v11.7c0,0.2-0.5,0.4-1.4,0.5c-1,0.1-1.9,0.1-2.8,0.1s-1.4-0.1-1.4-0.4l-0.2-1.5h-0.2
			c-0.1,0.5-0.4,1-0.8,1.3c-0.2,0.2-0.5,0.3-0.9,0.5C250.1,386,249.6,386.1,249.1,386.1z"/>
		<path class="st0" d="M273.7,378.3v7c0,0.2-0.4,0.3-1.3,0.4s-1.8,0.1-2.7,0.1c-0.9,0-1.5,0-1.8-0.1s-0.4-0.2-0.4-0.4v-7.2
			c0-0.7,0-1.1-0.1-1.3c-0.1-0.2-0.1-0.4-0.1-0.6c-0.1-0.3-0.3-0.4-0.6-0.4c-0.4,0-0.6,0.2-0.6,0.6v9c0,0.2-0.4,0.3-1.3,0.4
			s-1.7,0.1-2.7,0.1s-1.5,0-1.8-0.1s-0.4-0.2-0.4-0.4v-11.2c0-0.3,0.4-0.6,1.3-1c0.9-0.3,1.8-0.5,2.8-0.5s1.5,0.3,1.6,0.8l0.2,1h0.2
			c0.4-0.9,1.2-1.5,2.3-1.8c0.4-0.1,0.9-0.2,1.5-0.2c1.5,0,2.6,0.5,3.1,1.4C273.4,374.8,273.7,376.3,273.7,378.3z"/>
		<path class="st0" d="M279.5,386.1c-0.6,0-1.1-0.1-1.6-0.3c-0.5-0.2-0.9-0.4-1.2-0.6s-0.6-0.6-0.8-1c-0.2-0.4-0.4-0.8-0.5-1.2
			c-0.1-0.4-0.2-0.8-0.3-1.4c-0.1-0.8-0.1-1.7-0.1-2.8c0-2.1,0.4-3.7,1.2-4.8c0.8-1.1,1.8-1.7,3.2-1.7c1.4,0,2.4,0.3,3,1
			c0.1,0.2,0.2,0.3,0.3,0.5h0.2l-0.3-1.6v-2.8c0-0.3,0.4-0.7,1.3-1s1.8-0.5,2.8-0.5s1.7,0.2,2,0.6c0.1,0.2,0.2,0.3,0.2,0.5v16.2
			c0,0.2-0.4,0.3-1.3,0.4c-0.8,0.1-1.7,0.1-2.4,0.1c-0.8,0-1.3,0-1.5-0.1s-0.4-0.1-0.4-0.2c-0.1-0.1-0.1-0.2-0.1-0.3l-0.2-1.3h-0.2
			c-0.1,0.5-0.4,1-0.8,1.3C281.4,385.9,280.6,386.1,279.5,386.1z M282.1,382.8c0.2,0,0.4-0.2,0.5-0.5v-6.1c0-0.2-0.1-0.3-0.2-0.4
			c-0.2-0.1-0.3-0.1-0.4-0.1c-0.5,0-0.8,1.2-0.8,3.6c0,1.3,0.1,2.2,0.2,2.7C281.6,382.5,281.8,382.8,282.1,382.8z"/>
		<path class="st0" d="M295.4,383.7c0,0.9-0.2,1.5-0.6,1.8s-1,0.5-1.8,0.5s-1.4-0.2-1.8-0.5s-0.6-0.9-0.6-1.8s0.2-1.5,0.6-1.8
			s1-0.4,1.8-0.4s1.4,0.1,1.8,0.4C295.2,382.3,295.4,382.9,295.4,383.7z"/>
		<path class="st0" d="M302,383.7c0,0.9-0.2,1.5-0.6,1.8s-1,0.5-1.8,0.5s-1.4-0.2-1.8-0.5s-0.6-0.9-0.6-1.8s0.2-1.5,0.6-1.8
			s1-0.4,1.8-0.4s1.4,0.1,1.8,0.4C301.8,382.3,302,382.9,302,383.7z"/>
		<path class="st0" d="M308.7,383.7c0,0.9-0.2,1.5-0.6,1.8s-1,0.5-1.8,0.5s-1.4-0.2-1.8-0.5s-0.6-0.9-0.6-1.8s0.2-1.5,0.6-1.8
			s1-0.4,1.8-0.4s1.4,0.1,1.8,0.4C308.5,382.3,308.7,382.9,308.7,383.7z"/>
	</g>
	<g class="st2">
		<g class="st3">
			<path class="st4" d="M309.5,303.6L309.5,303.6c0.1-0.1,0.1-0.1,0.1-0.2s0.1-0.1,0.1-0.2s0.1-0.1,0.1-0.2c0,0,0,0,0-0.1l0,0
				c0,0,0-0.1,0.1-0.1c0-0.1,0.1-0.1,0.1-0.2s0.1-0.2,0.1-0.2c0-0.1,0.1-0.1,0.1-0.2l0,0l0,0c0-0.1,0.1-0.1,0.1-0.2s0.1-0.2,0.1-0.2
				c0-0.1,0.1-0.2,0.1-0.3c0-0.1,0.1-0.2,0.1-0.3c0-0.1,0.1-0.2,0.1-0.3c0-0.1,0-0.2,0.1-0.3c0-0.1,0.1-0.2,0.1-0.3
				c0-0.1,0-0.2,0.1-0.3c0-0.1,0.1-0.2,0.1-0.4c0-0.1,0-0.2,0.1-0.3c0-0.1,0-0.2,0.1-0.4c0-0.1,0-0.2,0.1-0.3c0-0.1,0-0.3,0.1-0.4
				c0-0.1,0-0.2,0.1-0.4c0-0.1,0-0.3,0.1-0.4c0-0.1,0-0.2,0-0.4c0-0.1,0-0.3,0.1-0.4c0-0.1,0-0.2,0-0.4c0-0.1,0-0.3,0-0.4
				s0-0.3,0-0.4s0-0.3,0-0.4s0-0.3,0-0.4s0-0.3,0-0.4s0-0.3,0-0.4s0-0.3,0-0.5c0-0.1,0-0.3,0-0.5c0-0.1,0-0.3,0-0.5
				c0-0.1,0-0.3,0-0.5s0-0.3,0-0.5s0-0.3,0-0.5c0-0.1,0-0.3,0-0.4c0-0.2,0-0.3,0-0.5c0-0.1,0-0.3,0-0.4c0-0.2,0-0.3,0-0.5
				c0-0.1,0-0.3,0-0.4s0-0.2,0-0.3c0-0.1,0-0.1,0-0.2s0-0.3,0-0.4c0-0.2,0-0.4,0-0.6c0-0.1,0-0.2,0-0.4c0-0.1,0-0.3,0-0.4
				s0-0.1,0-0.2s0-0.2,0-0.4c0-0.2,0-0.4,0-0.6c0-0.1,0-0.2,0-0.3c0-0.2,0-0.4,0-0.6c0-0.1,0-0.2,0-0.3c0-0.2,0-0.5,0-0.7
				c0-0.1,0-0.2,0-0.2c0-0.2,0-0.5,0-0.8c0-0.1,0-0.1,0-0.2c0-0.3,0-0.5,0-0.8v-0.1c-0.2-2.6-0.4-5.1-0.8-7.4
				c-0.2-1.5-0.5-2.9-0.8-4.2c-0.2-0.8-0.4-1.5-0.6-2.1c-0.5-1.7-1.1-3-1.8-3.8l0,0c0,0-0.1-0.1-0.1-0.2l-0.1-0.1l0,0
				c-0.1-0.1-0.2-0.2-0.3-0.2l0,0l-0.1-0.1c0,0-0.1,0-0.1-0.1l0,0c-0.1,0-0.2-0.1-0.3-0.1l0,0c-0.1,0-0.2-0.1-0.3-0.1l0,0
				c-0.1,0-0.1,0-0.2,0h-0.1l0,0c-0.1,0-0.2,0-0.3,0l0,0c-0.1,0-0.2,0-0.3,0.1l0,0c-0.3,0.1-0.6,0.3-0.9,0.6
				c-0.9,0.9-1.7,1.9-2.3,3.1c-0.3,0.6-0.6,1.2-0.9,1.9c-0.5,1.3-0.9,2.7-1.2,4.1c-0.1,0.4-0.1,0.7-0.2,1.1s-0.1,0.8-0.2,1.2
				c-0.1,0.6-0.2,1.3-0.2,1.9c0,0.4-0.1,0.8-0.1,1.2c0,0.7-0.1,1.4-0.1,2.1s0,1.4,0,2c0,2.6,0.2,4.8,0.3,6.1c0,0.2,0,0.3,0,0.5
				c0.1,0.5,0.1,0.8,0.1,0.8s-3-1.8-7.3-4.4c-0.1,0-0.1-0.1-0.2-0.1c-0.6-0.4-1.2-0.7-1.9-1.1l0,0c-0.6-0.4-1.2-0.7-1.8-1.1
				c-0.1-0.1-0.3-0.2-0.4-0.3c-0.5-0.3-1.1-0.7-1.7-1c-0.1-0.1-0.2-0.1-0.4-0.2c-0.7-0.4-1.3-0.8-2-1.2c-0.1-0.1-0.3-0.2-0.4-0.2
				c-0.6-0.3-1.1-0.7-1.7-1c-0.1-0.1-0.3-0.2-0.4-0.2c-0.7-0.4-1.4-0.8-2.1-1.2l0,0l0,0c-4.1-2.4-8-4.7-10.8-6.3
				c2.9-0.8,4.9-1.1,4.9-1.1l0,0l0,0c0,0-34.6-22-41.5-29.3l0,0c0,0,0,0-0.1-0.1s-0.2-0.2-0.3-0.3c-0.2-0.2-0.3-0.4-0.4-0.6l0,0l0,0
				c-0.1-0.2-0.2-0.4-0.4-0.6c-0.1-0.1-0.1-0.2-0.2-0.4c0-0.1-0.1-0.2-0.2-0.3c-0.1-0.2-0.2-0.4-0.3-0.6c0-0.1,0-0.1-0.1-0.2
				c-0.1-0.2-0.2-0.5-0.3-0.8l0,0c-1.5-3.9-3.3-10.4-4.8-17.2l1.7-0.7c0.1,0.3,0.3,0.5,0.4,0.8l0,0c2.1,3.6,4.6,7.2,7.6,10.3l0,0
				l0,0c0.9,1,1.9,1.9,2.9,2.8l0,0l0,0c1,0.8,1.9,1.6,2.9,2.4c0,0,0.1,0,0.1,0.1c1,0.7,2,1.4,3,2c0.1,0,0.1,0.1,0.2,0.1
				c0.5,0.2,0.9,0.5,1.4,0.7c0.1,0,0.2,0.1,0.2,0.1c0.5,0.2,1,0.5,1.5,0.7c0.1,0,0.1,0.1,0.2,0.1c0.4,0.2,0.9,0.3,1.3,0.5
				c0.1,0,0.3,0.1,0.4,0.1c0.5,0.2,1.1,0.3,1.6,0.5c0.4,0.1,0.7,0.1,1,0.2c0.1,0,0.3,0,0.4,0.1c2.1,0.3,4.1,0.1,5.9-0.5
				c3-1,5.6-3.1,7.9-5.5c0.6-0.6,1.1-1.2,1.7-1.9c4.9-5.9,4.8-12.5,6.5-19.4l0.2,0.5l0,0l0.2,0.6l0.4,1.1l0,0l0.9,2.6l0,0l0.3,1
				l2.3-9.3c0.4,0,0.8,0,1.1-0.1c0.1,0,0.1,0,0.2,0c0.2-0.1,0.5-0.1,0.7-0.2c0.2,0,0.3-0.1,0.5-0.2c0.1,0,0.2-0.1,0.4-0.1
				c0.2-0.1,0.4-0.2,0.6-0.2c0.1,0,0.1,0,0.2-0.1c0.2-0.1,0.4-0.2,0.6-0.3h0.1c0.2-0.1,0.4-0.2,0.6-0.4l0,0
				c5.5-3.7,3.5-11.7-0.4-17.3l2-8.2l0,0l0.1-0.3l0.2-1h2.4v-3H261v2.8h2.5l1.5,4.6l0,0l0.5,1.5l0,0l0.1,0.2l0,0l0,0l0.2,0.8
				l0.1,0.3l0.3,0.9c-10.6,5-2.7,19.3-2.7,19.3c0.6,0.4,1.1,0.8,1.6,1.1c-1.1,4.7-0.9,9.9-3.1,14.1c-1.1,2-2.7,3.8-4.4,5.3
				c-2.5,2.3-4.7,2.2-7.6,0.7c-5.4-2.8-10-7.2-13.4-12.3c-0.5-0.8-1-1.6-1.5-2.4l3.6-1.5c0,0-0.3-1-0.9-2.4l0,0l0,0
				c-0.2-0.5-0.5-1.1-0.8-1.7c0,0,0-0.1-0.1-0.1c-0.3-0.6-0.7-1.3-1.1-2c0,0,0-0.1-0.1-0.1c-0.2-0.3-0.4-0.6-0.6-0.9l-0.1-0.1
				c-0.5-0.7-1-1.4-1.5-2.1c0-0.1-0.1-0.1-0.1-0.1c-0.6-0.7-1.2-1.4-1.8-2.1l-0.1-0.1c-0.3-0.3-0.6-0.6-1-0.9c0,0,0-0.1-0.1-0.1
				c-0.7-0.7-1.5-1.3-2.3-1.9l-0.1-0.1c-0.8-0.6-1.7-1.1-2.7-1.5c0,0-0.1,0-0.1-0.1c-0.5-0.2-0.9-0.4-1.4-0.6c0,0,0,0-0.1,0
				c-0.5-0.2-1.1-0.3-1.6-0.4l0,0l0,0c-0.7-0.2-1.5-0.3-2.3-0.4c-6.4-4-12.4-5.7-18-5.9c0-0.2,0.1-0.5,0.1-0.8c0-0.1,0-0.2,0-0.3
				c0.1-0.5,0.1-1.1,0.2-1.7c0-0.1,0-0.1,0-0.2c0-0.5,0.1-1.1,0.1-1.7c0-0.1,0-0.1,0-0.2c12.7-1.4,24.4-5.3,31.1-11.6
				c5.6-0.4,16.1-2.5,17.5-11.8c1.2-8.5-3.3-10.4-6.5-10.7c0.1-0.1,0.1-0.2,0.2-0.4c1.7-3.4,3.6-4.2,3.4-13.7c0-1-0.1-2.3-0.2-3.7
				c3.1,1.8,9,5.1,10.2,3.9c1.5-1.5-0.9-7.3-10.4-5.4c-0.6-4.8-2.1-10.9-5.8-16.7c0.1-0.1,0.1-0.1,0.2-0.2c0.8-0.8,1.2-2.1,1.2-3.4
				c3.1,1.7,6.3,2.6,9.6,3.1c-1.1,0.7-2.3,1.5-3.5,2.5c0,0,15.7,2.1,16.7-0.6c0.2-0.6,0-1.5-0.5-2.2c10.2-1.8,18.4-6.3,18.4-6.3
				l-10.4-0.6c6.3-2.5,17.7-9.8,17.7-9.8l5.7,0.9c-2.9-5.2-7.4-8.9-11.8-11.5l0,0l0,0c-1-0.6-1.9-1.1-2.9-1.5l0,0
				c-0.5-0.2-0.9-0.4-1.4-0.6l0,0c-3.2-1.4-6.2-2.3-8.2-2.8l0,0c-0.3-0.1-0.5-0.1-0.8-0.2l0,0c-0.5-0.1-0.9-0.2-1.2-0.3l0,0
				c-0.1,0-0.2-0.1-0.4-0.1H270c-0.1,0-0.1,0-0.2,0c0,0,0,0-0.1,0s0,0,0,0l0,0l4.4-3.8c-0.3-0.1-0.6-0.1-0.9-0.1l0,0l0,0
				c-12.9-1.7-23.7,5.2-23.7,5.2l1-4.7c-0.6,0.3-1.1,0.6-1.6,0.8c-0.2,0.1-0.3,0.2-0.5,0.3c-0.3,0.2-0.7,0.4-1,0.6
				c-0.2,0.1-0.4,0.2-0.6,0.4c-0.3,0.2-0.6,0.4-0.8,0.6c-0.2,0.1-0.4,0.3-0.5,0.4c-0.2,0.2-0.5,0.4-0.7,0.6
				c-0.2,0.1-0.3,0.3-0.5,0.4c-0.2,0.2-0.5,0.4-0.7,0.6c-0.2,0.1-0.3,0.3-0.5,0.5s-0.4,0.4-0.6,0.6c-0.1,0.1-0.3,0.3-0.4,0.5
				c-0.2,0.2-0.4,0.5-0.6,0.7c-0.1,0.1-0.2,0.3-0.4,0.4c-0.2,0.2-0.4,0.5-0.5,0.7c-0.1,0.1-0.2,0.3-0.3,0.4
				c-0.2,0.3-0.4,0.6-0.5,0.8c-0.1,0.1-0.1,0.2-0.2,0.3c-0.2,0.4-0.4,0.7-0.6,1c0,0.1,0,0.1-0.1,0.1c-0.9,1.6-1.5,3.3-2,4.9l0,0
				c-0.1,0.4-0.2,0.8-0.3,1.2l0,0c-0.1,0.4-0.2,0.8-0.2,1.2l0,0l0,0c-0.5,2.8-0.6,5.3-0.5,7.1c-3-0.7-3.9,0.5-3.9,0.5
				c-0.3,0.2-0.5,0.5-0.6,0.7c-6.2-4-14.6-6.9-26.1-7.6l0.5,0.9c-1.5-0.8-3.3-1.6-5.6-2.1c-0.1,0-0.1,0-0.2-0.1
				c-0.4-0.1-0.7-0.2-1.1-0.2c-0.1,0-0.2,0-0.3-0.1c-0.4-0.1-0.8-0.1-1.2-0.2c-0.1,0-0.1,0-0.2,0c-1-0.1-2-0.2-3-0.3
				c-0.1,0-0.3,0-0.4,0c-0.4,0-0.8,0-1.2,0c-0.2,0-0.4,0-0.5,0c-0.4,0-0.8,0-1.2,0c-0.2,0-0.4,0-0.6,0c-0.4,0-0.9,0.1-1.4,0.1
				c-0.1,0-0.3,0-0.4,0c-0.6,0.1-1.2,0.1-1.8,0.2c-0.1,0-0.3,0.1-0.5,0.1c-0.5,0.1-1,0.1-1.4,0.2c-0.2,0-0.5,0.1-0.7,0.1
				c-0.4,0.1-0.9,0.2-1.3,0.3c-0.2,0.1-0.5,0.1-0.7,0.2c-0.5,0.1-0.9,0.2-1.4,0.4c-0.2,0.1-0.4,0.1-0.7,0.2
				c-0.7,0.2-1.4,0.4-2.1,0.6c-0.1,0.1-0.3,0.1-0.5,0.1l0,0c-0.5,0.2-1.1,0.4-1.6,0.7l0,0l0,0c-0.6,0.3-1.2,0.8-1.6,1.4
				c-0.1,0-0.2,0-0.4,0.1c-0.4,0.1-0.8,0.1-1.2,0.2c-0.9,0.1-1.7,0.3-2.5,0.4l0,0c-6.7,1.4-12,3.6-16.2,6.3
				c-0.2-0.3-0.4-0.5-0.6-0.7c0,0-0.8-1.2-3.9-0.5c0.3-3.6-0.2-9.9-3.9-15.9c-0.1-0.1-0.1-0.1-0.1-0.2c-0.3-0.5-0.6-0.9-0.9-1.4l0,0
				c-0.4-0.5-0.7-0.9-1.1-1.4c-0.1-0.1-0.1-0.1-0.2-0.2c-0.3-0.4-0.7-0.7-1.1-1.1c-0.1-0.1-0.2-0.2-0.3-0.3
				c-0.4-0.4-0.8-0.8-1.3-1.2l-0.1-0.1c-0.5-0.4-1-0.8-1.5-1.2c-0.1-0.1-0.3-0.2-0.4-0.3c-0.4-0.3-0.9-0.6-1.3-0.8
				c-0.2-0.1-0.3-0.2-0.5-0.3c-0.6-0.3-1.2-0.7-1.9-1l0,0l0,0l0.9,4.7c0,0-0.2-0.1-0.5-0.3c-0.2-0.1-0.4-0.2-0.6-0.4
				c-0.1-0.1-0.2-0.1-0.4-0.2c-0.6-0.3-1.3-0.6-2.1-1c-0.2-0.1-0.4-0.2-0.6-0.3c-0.4-0.2-0.9-0.4-1.4-0.6c-0.5-0.2-1-0.4-1.6-0.6
				c-0.3-0.1-0.6-0.2-0.9-0.3c-0.6-0.2-1.2-0.4-1.8-0.5c-0.3-0.1-0.6-0.2-1-0.2c-3.9-0.9-8.6-1.4-13.6-0.6l0,0l0,0l4.4,3.8l0,0l0,0
				h-0.1h-0.1h-0.1c-0.2,0-0.4,0.1-0.7,0.1c0,0,0,0-0.1,0s-0.2,0.1-0.4,0.1l0,0c-3.4,0.7-11.8,3-18.6,8.6l0,0l0,0
				c-2.7,2.2-5.1,4.9-7,8.2l5.7-0.9c0,0,11.4,7.2,17.7,9.8l-10.4,0.6c0,0,6.6,3.7,15.4,5.8c-0.5,0.7-0.7,1.5-0.5,2.1
				c1,2.8,16.7,0.6,16.7,0.6c-0.7-0.6-1.5-1.2-2.2-1.7c3.8-0.4,7.6-1.4,11.1-3.3c0,1.3,0.4,2.5,1.2,3.4c0.1,0.1,0.1,0.1,0.2,0.2
				c-0.9,1.4-1.6,2.8-2.3,4.2c-2.3,0.9-3.2,2.8-2.6,3.8c0.1,0.2,0.5,0.4,0.9,0.5c-1.8,5.5-2.1,10.5-2.2,13.6c-0.2,7.7,1,9.8,2.4,12
				c-3.2,0.3-7.8,2.2-6.5,10.7c1.3,8.8,10.6,11.1,16.4,11.7c7.8,7.8,23.1,11.9,38.8,12.4c0,0.1,0,0.2,0,0.4s0,0.3,0,0.5
				s0.1,0.5,0.1,0.8c0,0.2,0.1,0.4,0.1,0.7c0,0.1,0,0.3,0.1,0.4c0,0.2,0.1,0.5,0.1,0.7c0,0.1,0,0.2,0.1,0.4c0,0.2,0.1,0.4,0.1,0.7
				c-0.6,0.4-1.8,1.4-3.2,2.6c-5.4,1.9-9.9,4.1-13.2,4.9c0,0,0,0.5,0,1.4c-0.6,0.1-1.4,0.3-2.4,0.9l0,0l0,0
				c-0.1,0.1-0.3,0.2-0.4,0.2l0,0c-0.1,0.1-0.3,0.2-0.5,0.3c0,0,0,0-0.1,0c-0.2,0.1-0.3,0.2-0.5,0.3c0,0,0,0-0.1,0
				c-0.2,0.1-0.4,0.3-0.5,0.4l0,0c-0.2,0.1-0.4,0.3-0.6,0.5l0,0c-2.2,1.9-4.8,4.9-7.8,10l0,0l0,0c-0.6,1-1.2,2.1-1.8,3.3l4.6,2.4
				c-4.6,15-12.5,32.7-26.9,38c-1.2,0.4-2.1,1.1-2.7,2c-1.7-0.1-17.5,3.4-20.4,17.8c0,0,0.2,3.5,3,3.7s8.4-10.1,10.4-10.6
				c0.1,0,0.2,0,0.2,0c0.1,0.3,0.2,0.7,0.3,1c-0.4,1.2-1.2,3,0,4c1.1,0.8,7.4-2.8,10.2-6.9c0.6,0,1.2-0.1,1.9-0.4
				c0.4-0.1,0.7-0.3,1.1-0.4c0.4,0.1,0.9,0.3,1.3,0.5c-0.1,0-0.2,0.1-0.3,0.2s-0.2,0.1-0.4,0.2c-0.1,0.1-0.2,0.1-0.4,0.2l0,0l0,0
				c0,0-0.1,0-0.1,0.1c-0.1,0.1-0.2,0.1-0.4,0.2s-0.4,0.2-0.6,0.4c-0.1,0-0.2,0.1-0.3,0.2c-0.3,0.1-0.5,0.3-0.8,0.4l0,0l0,0
				c-0.2,0.1-0.4,0.2-0.7,0.4c-0.1,0-0.1,0.1-0.2,0.1c-0.3,0.2-0.6,0.4-0.9,0.5c-0.1,0.1-0.2,0.1-0.3,0.2c-0.3,0.2-0.6,0.4-1,0.6
				c-0.1,0.1-0.2,0.1-0.3,0.2c-0.4,0.2-0.7,0.4-1.1,0.6c-0.1,0-0.2,0.1-0.3,0.1c-0.4,0.2-0.8,0.5-1.2,0.7c-0.1,0-0.1,0.1-0.2,0.1
				c-0.4,0.2-0.8,0.5-1.3,0.8l0,0l0,0c-2.9,1.7-5.9,3.5-8.9,5.3l0,0l0,0c-0.2,0.1-0.3,0.2-0.5,0.3c-0.3,0.2-0.6,0.4-1,0.6
				c-0.2,0.1-0.4,0.3-0.7,0.4c-0.3,0.2-0.6,0.3-0.8,0.5c-0.2,0.1-0.3,0.2-0.5,0.3c-0.3,0.2-0.6,0.4-0.9,0.6
				c-0.2,0.1-0.3,0.2-0.5,0.3c-0.3,0.2-0.6,0.3-0.8,0.5c-0.2,0.1-0.4,0.2-0.6,0.3c-0.2,0.1-0.5,0.3-0.7,0.4s-0.3,0.2-0.5,0.3
				c-1.2,0.7-2.3,1.4-3.2,2c0,0,0,0-0.1,0c-0.3,0.2-0.6,0.4-0.9,0.5c0,0,0,0-0.1,0c-0.3,0.2-0.5,0.3-0.7,0.4l0,0
				c-0.9,0.5-1.4,0.9-1.4,0.9s0.8-6,0.2-12.5c-0.1-0.7-0.1-1.5-0.2-2.2c-0.1-0.7-0.2-1.5-0.4-2.2c-0.3-1.4-0.7-2.8-1.2-4.1
				c-0.3-0.6-0.5-1.3-0.9-1.9c-0.6-1.2-1.4-2.2-2.3-3.1c-0.3-0.3-0.6-0.5-0.9-0.6l0,0c-0.1,0-0.2-0.1-0.3-0.1l0,0
				c-0.1,0-0.2,0-0.3,0l0,0h-0.1c-0.1,0-0.1,0-0.2,0l0,0c-0.1,0-0.2,0-0.3,0.1l0,0c-0.1,0-0.2,0.1-0.3,0.1l0,0
				c-0.1,0-0.2,0.1-0.3,0.2l0,0c-0.1,0.1-0.2,0.1-0.3,0.2l0,0c-0.1,0.1-0.2,0.2-0.3,0.3l0,0c-1.8,2.1-3,7.6-3.7,13.9
				c-0.1,1.2-0.2,2.4-0.3,3.7v0.1c0,0.3,0,0.5-0.1,0.8c0,0.1,0,0.1,0,0.2c0,0.2,0,0.5,0,0.8c0,0.1,0,0.2,0,0.2c0,0.1,0,0.1,0,0.2
				c0,0.2,0,0.4,0,0.5s0,0.2,0,0.3c0,0.2,0,0.5,0,0.7c0,0.1,0,0.2,0,0.3c0,0.2,0,0.4,0,0.6c0,0.1,0,0.2,0,0.3c0,0.2,0,0.4,0,0.6
				c0,0.1,0,0.2,0,0.4c0,0.2,0,0.4,0,0.6c0,0.1,0,0.3,0,0.4c0,0.2,0,0.4,0,0.5s0,0.3,0,0.4c0,0.2,0,0.4,0,0.5s0,0.3,0,0.4
				s0,0.1,0,0.2s0,0.2,0,0.3c0,0.1,0,0.3,0,0.4c0,0.2,0,0.3,0,0.5c0,0.1,0,0.3,0,0.5c0,0.1,0,0.3,0,0.5s0,0.3,0,0.5
				c0,0.1,0,0.1,0,0.2s0,0.1,0,0.2s0,0.3,0,0.4s0,0.3,0,0.4s0,0.3,0,0.4s0,0.2,0,0.2c0,0.1,0,0.1,0,0.2s0,0.3,0.1,0.4
				c0,0.1,0,0.3,0.1,0.4c0,0.1,0,0.3,0.1,0.4c0,0.1,0,0.3,0.1,0.4c0,0.1,0,0.3,0.1,0.4c0,0.1,0,0.2,0.1,0.4c0,0.1,0,0.3,0.1,0.4
				c0,0.1,0,0.2,0.1,0.4c0,0.1,0.1,0.3,0.1,0.4s0,0.2,0.1,0.3c0,0.1,0.1,0.2,0.1,0.4c0,0.1,0,0.2,0.1,0.3c0,0.1,0.1,0.2,0.1,0.4
				c0,0.1,0.1,0.2,0.1,0.3c0,0.1,0.1,0.2,0.1,0.3c0,0.1,0.1,0.2,0.1,0.3c0,0.1,0.1,0.2,0.1,0.3c0,0.1,0.1,0.2,0.1,0.3
				c0,0.1,0.1,0.2,0.1,0.3c0,0.1,0.1,0.2,0.1,0.2c0,0.1,0.1,0.2,0.1,0.3c0,0.1,0.1,0.1,0.1,0.2l0,0l0,0l0,0c0,0.1,0.1,0.2,0.1,0.2
				c0,0.1,0.1,0.1,0.1,0.2c0,0,0,0,0,0.1s0,0,0,0s0,0.1,0.1,0.1l0,0c0,0.1,0.1,0.1,0.1,0.2l0.1,0.1c0,0,0,0,0.1,0.1c0,0,0,0,0.1,0.1
				c0,0,0,0.1,0.1,0.1l0.1,0.1c0,0,0,0.1,0.1,0.1l0,0l0,0c0.1,0.1,0.2,0.2,0.3,0.2l1.7-0.6l0,0l12.3-4.4l0,0l41.7-14.9
				c12.9,13.4,37.7,13.5,54.7,12.5c10.8-0.6,32.4-1.3,41.6-10l44.9,16l0,0l12.3,4.4l0,0l1.7,0.6c0.1-0.1,0.2-0.2,0.3-0.2
				c0,0,0-0.1,0.1-0.1C309.5,303.7,309.5,303.7,309.5,303.6L309.5,303.6z M209.4,102.3c0.5,0.1,1.3,0.3,2.2,0.6
				c-0.1,0-0.1,0-0.2,0.1c-0.7-0.1-1.4-0.2-2.1-0.4C209.4,102.5,209.4,102.4,209.4,102.3z M169.8,239.5c0,0.1-0.1,0.2-0.1,0.3l0,0
				c-0.2,0.5-0.4,0.9-0.6,1.4l-0.1,0.1c-0.4,0.7-0.8,1.3-1.3,2l-0.1,0.1c-0.5,0.7-1.1,1.3-1.8,1.9l0,0c-0.1,0-0.1,0.1-0.2,0.1
				c-0.1,0.1-0.2,0.2-0.4,0.4c-0.2,0.2-0.4,0.4-0.6,0.6c-0.1,0.1-0.2,0.2-0.3,0.3c-0.3,0.3-0.6,0.5-1,0.8c-0.1,0.1-0.3,0.2-0.4,0.3
				c-0.2,0.2-0.4,0.3-0.6,0.5c-0.1,0.1-0.3,0.2-0.4,0.3c-0.2,0.1-0.4,0.3-0.6,0.4c-0.1,0.1-0.3,0.2-0.4,0.3
				c-0.2,0.1-0.4,0.3-0.7,0.5c-0.1,0.1-0.3,0.2-0.4,0.3c-0.3,0.2-0.7,0.4-1,0.7c-0.2,0.1-0.3,0.2-0.5,0.3c-0.2,0.1-0.4,0.2-0.6,0.4
				c-0.1,0.1-0.2,0.1-0.3,0.2c6.3-7.9,10.8-17.6,14.1-27.2C171.2,230.8,170.6,236.8,169.8,239.5z"/>
		</g>
		<g class="st3">
			<path class="st4" d="M136.4,133.1c-10.9-2.9-13.7,3.4-12.1,5.1C126,139.7,136.4,133.1,136.4,133.1z"/>
		</g>
	</g>
	<g>
		<g>
			<path class="st5" d="M143.9,271.1c-2.1,0.2-35.5,20.7-35.5,20.7s2.6-19.1-4.8-26c-7.4-6.9-10.1,36.1-4.2,40.8l62.6-22.3
				C162,284.3,148.7,270.6,143.9,271.1z"/>
			<path class="st6" d="M122.3,283.4c-7.4,4.4-13.9,8.4-13.9,8.4s0-0.3,0.1-0.8c-3.7,3.5-7.7,7.5-11.2,11.2c0.5,2.1,1.2,3.7,2.1,4.4
				l25.2-9C124.8,291.8,123.2,286.2,122.3,283.4z"/>
			<path class="st7" d="M103.6,265.8c7.4,6.9,4.8,26,4.8,26s3.6-2.2,8.5-5.2c-0.5,5.9-2.1,11.2-3.6,15.1l-13.9,5
				C93.6,301.8,96.2,258.9,103.6,265.8z"/>
			<path class="st8" d="M103,265.3c2.4,7.2,4.5,21.8-2,40.7l-1.7,0.6C93.7,302,96.1,261.2,103,265.3z"/>
			<g>
				<path class="st9" d="M131.4,279.5c0.9,2.6,4.4,3.7,7.8,2.5c3.4-1.2,5.4-4.3,4.4-6.9c-0.4-1.2-1.4-2.1-2.7-2.6
					c-2.4,1.3-5.9,3.3-9.7,5.5C131.1,278.6,131.2,279,131.4,279.5z"/>
				<g>
					<g>
						<path class="st10" d="M138.7,278.2c-0.1,0-0.2,0-0.2,0c-1.1,0-1.1,1.6,0,1.6c0.1,0,0.2,0,0.2,0
							C139.7,279.8,139.7,278.2,138.7,278.2L138.7,278.2z"/>
					</g>
					<g>
						<path class="st10" d="M140.9,275.7c1.1,0,1.1-1.6,0-1.6C139.8,274,139.8,275.7,140.9,275.7L140.9,275.7z"/>
					</g>
					<g>
						<path class="st10" d="M133.5,279.6c1.1,0,1.1-1.6,0-1.6S132.4,279.6,133.5,279.6L133.5,279.6z"/>
					</g>
				</g>
			</g>
			<path class="st11" d="M153.1,283c-0.8-0.6-51.8,19.7-51.8,19.7s-1.5,0.9-3.1,2.1c0.4,0.8,0.8,1.4,1.2,1.8l57-20.3
				C155.5,285.3,154.5,284.2,153.1,283z"/>
		</g>
		<g>
			<path class="st5" d="M265.6,274.7c2.1,0.2,35.5,20.7,35.5,20.7s-2.6-19.1,4.8-26s10.1,36.1,4.2,40.8l-62.5-22.3
				C247.6,288,260.8,274.2,265.6,274.7z"/>
			<path class="st7" d="M305.9,269.4c-7.4,6.9-4.8,26-4.8,26s-3.6-2.2-8.5-5.2c0.5,5.9,2.1,11.2,3.6,15.1l13.9,5
				C316,305.5,313.3,262.5,305.9,269.4z"/>
			<path class="st8" d="M306.5,269c-2.4,7.2-4.5,21.8,2,40.7l1.7,0.6C315.8,305.6,313.5,264.8,306.5,269z"/>
			<path class="st6" d="M297.1,293c-4-2.4-10.3-6.2-16.3-9.8c-1.7,3.4-4.1,9.8-2.1,15.9l21,7.5L297.1,293z"/>
			<g>
				<path class="st9" d="M278.8,284.6c-0.9,2.6-4.4,3.7-7.8,2.5s-5.4-4.3-4.4-6.9c0.4-1.2,1.5-2.1,2.7-2.6c2.4,1.3,5.9,3.3,9.7,5.5
					C279,283.6,278.9,284.1,278.8,284.6z"/>
				<g>
					<g>
						<path class="st10" d="M271.5,283.3c0.1,0,0.2,0,0.2,0c1,0,1,1.6,0,1.6c-0.1,0-0.2,0-0.2,0
							C270.4,284.9,270.4,283.3,271.5,283.3L271.5,283.3z"/>
					</g>
					<g>
						<path class="st10" d="M269.2,280.7c-1,0-1-1.6,0-1.6C270.3,279.1,270.3,280.7,269.2,280.7L269.2,280.7z"/>
					</g>
					<g>
						<path class="st10" d="M276.6,284.7c-1,0-1-1.6,0-1.6C277.7,283,277.7,284.7,276.6,284.7L276.6,284.7z"/>
					</g>
				</g>
			</g>
			<path class="st11" d="M310.2,310.2c0.7-0.5,1.2-1.6,1.7-3c-1.7-0.6-3.6-0.8-3.6-0.8l-52.7-18.8c-1.7,0.1-2.7,0.9-3.4,1.9
				L310.2,310.2z"/>
		</g>
		<path class="st5" d="M165.9,215.2c-4.2,15.9-12.1,39.8-29.3,46.2c-1.2,0.4-2.1,1.1-2.7,2c-1.7-0.1-17.5,3.4-20.4,17.8
			c0,0,0.2,3.5,3,3.7s8.4-10.1,10.4-10.6s-1.5,3.5,0.5,4.9c1.1,0.8,7.4-2.8,10.2-6.9c0.6,0,1.2-0.1,1.9-0.4
			c21.5-7.9,31.5-33.3,36.9-53.8C178.2,211.3,167.7,208.4,165.9,215.2z"/>
		<path class="st9" d="M165.9,215.2c-4.2,15.9-12.1,39.8-29.3,46.2c-1.2,0.4-2.1,1.1-2.7,2c-1.7-0.1-17.5,3.4-20.4,17.8
			c0,0,0.2,3.5,3,3.7s8.4-10.1,10.4-10.6s-1.5,3.5,0.5,4.9c1.1,0.8,7.4-2.8,10.2-6.9c0.6,0,1.2-0.1,1.9-0.4
			c21.5-7.9,31.5-33.3,36.9-53.8C178.2,211.3,167.7,208.4,165.9,215.2z"/>
		<path class="st5" d="M173.4,214.8c0.3-1.1,0.3-2.1,0-2.9c-2.8-1.3-6.5-0.5-7.6,3.3c-4.2,15.9-12.1,39.8-29.3,46.2
			c-1.2,0.4-2.1,1.1-2.7,2c-1.7-0.1-17.5,3.4-20.4,17.8c0,0,0,0.2,0.1,0.4c2.6,0.1,5.4-5,6.6-6.7c0.8-1.1,1.8-2.9,3-3.6
			c2.2-1.2,4.6,3.3,4.1,5c-0.1,0.2-0.1,0.5,0,0.7c0.1,0.1,0.2,0.1,0.3,0.1c0.9,0.1,1.7-0.3,2.4-0.8c2.2-1.5,4-3.3,5.2-5.7
			c1.1-2.3,2.5-2.3,4.8-3.4c4.1-2,7.9-4.7,11.2-7.9c6.8-6.6,11.6-15,15.3-23.6C169.4,228.9,171.6,221.9,173.4,214.8z"/>
		<path class="st5" d="M143.5,156.9c0,0-11.3-2.2-9.4,10.6s21,11.9,21,11.9L143.5,156.9z"/>
		<path class="st9" d="M143.5,156.9c0,0-0.2,0-0.6-0.1c-2.4,1.2-4.5,3.9-3.6,9.9c1.2,8.2,9.4,10.8,15.2,11.6L143.5,156.9z"/>
		<path class="st5" d="M243.1,157.1c0,0,11.3-2.2,9.4,10.6s-21,11.9-21,11.9L243.1,157.1z"/>
		<path class="st9" d="M243.1,157.1l-10.2,19.8c5.7-0.9,13.2-3.6,14.4-11.4c0.6-4.2-0.2-6.9-1.6-8.4
			C244.2,156.8,243.1,157.1,243.1,157.1z"/>
		<path class="st8" d="M174.6,204.9c0,0-6.8-1.3-15.7,16.1l17.8,9.3C176.7,230.3,179.3,205.3,174.6,204.9z"/>
		<path class="st7" d="M160.7,217.7l9.8,5.1c0,0,1-9.6,0.6-17C168.7,207.1,165,210.2,160.7,217.7z"/>
		<g>
			<path class="st5" d="M224,215.8c4.3,12.3,14.6,26.8,28,30.2c7.1,1.8,12.6-2.5,16.9-7.7c5.4-6.5,4.7-13.9,7.1-21.5
				c1.8-5.7-7.2-8.2-9-2.5c-1.6,5-1,10.9-3.5,15.6c-1.1,2-2.7,3.8-4.4,5.3c-2.5,2.3-4.7,2.2-7.6,0.7c-8.8-4.5-15.4-13.4-18.6-22.5
				C231,207.7,222,210.1,224,215.8L224,215.8z"/>
			<path class="st9" d="M271,211.2c-0.1,2.6-1.3,4.1-1.3,4.1s3.7-3.7,3.2,3.2c-0.5,6.9-6.7,25.1-17.6,24.8
				c-10.9-0.3-21.9-16.6-21.9-16.6l4.7-3.2c-0.8-1.2-1.6-2.5-2.3-3.8c-3-0.9-7.3-1-10.6-0.8c2.5,5.9,6.2,12,10.9,16.9
				c1,0.9,1.9,1.9,2.9,2.8c3.9,3.4,8.2,6,13,7.2c7.1,1.8,12.6-2.5,16.9-7.7c5.4-6.5,4.7-13.9,7.1-21.5
				C277.2,213.2,273.9,210.9,271,211.2z"/>
		</g>
		<path class="st8" d="M226.3,225.6l14-5.9c0,0-5-16.5-18.8-17.8C207.6,200.6,226.3,225.6,226.3,225.6z"/>
		<path class="st7" d="M223.7,202.3c1.3,7.3,5.8,18.6,5.8,18.6l9.8-3.6C237.5,213,232.7,204.3,223.7,202.3z"/>
		<path class="st7" d="M173.6,203.6c9-2.2,26.7-15,47.9-1.7c0,0,6.9,37.7,11.2,43.7s42.4,30.2,42.4,30.2s-14.5,1.8-21.8,11.5
			c-7.9,10.6-31.8,11.2-43.4,11.9c-17.8,1.1-44.3,0.9-56.5-14.5c-2.4-3.1-4.3-6.7-7-9.5c-2.6-2.8-6.3-4.8-10.2-4.3
			c7.1-2.6,13.5-7.2,19.7-11.5c4.7-3.2,13.3-7.9,15.1-13.8C173.3,237.7,173.6,203.6,173.6,203.6z"/>
		<path class="st9" d="M143.9,271.1c-0.5,0-2.5,1.1-5.4,2.7c3.2,0.2,6.1,2,8.3,4.3c2.6,2.8,4.4,6.2,6.7,9.2l8.4-3
			C162,284.3,148.7,270.6,143.9,271.1z"/>
		<path class="st9" d="M273.8,279c-4.3-2.5-7.5-4.2-8.2-4.3c-4.8-0.5-18,13.3-18,13.3l6.2,2.2C259.5,282.6,269.7,279.8,273.8,279z"
			/>
		<path class="st7" d="M173.6,203.6c9-2.2,26.7-15,47.9-1.7c0,0,6.9,37.7,11.2,43.7s42.4,30.2,42.4,30.2s-14.5,1.8-21.8,11.5
			c-7.9,10.6-31.8,11.2-43.4,11.9c-17.8,1.1-44.3,0.9-56.5-14.5c-2.4-3.1-4.3-6.7-7-9.5c-2.6-2.8-6.3-4.8-10.2-4.3
			c7.1-2.6,13.5-7.2,19.7-11.5c4.7-3.2,13.3-7.9,15.1-13.8C173.3,237.7,173.6,203.6,173.6,203.6z"/>
		<path class="st8" d="M190.3,197.8c0,0-14.2,9.4-4.2,14.7s11.3-5.8,11.3-5.8s5,10.2,11,6.3c6-3.9,4.7-11-5.2-15.2
			C193.3,193.6,190.3,197.8,190.3,197.8z"/>
		<path class="st12" d="M190.3,195.8c0,0-14.2,9.4-4.2,14.7s11.3-5.8,11.3-5.8s5,10.2,11,6.3s4.7-11-5.2-15.2
			C193.3,191.6,190.3,195.8,190.3,195.8z"/>
		<path class="st5" d="M189.3,188.2c0,1.8,0,12.1,4.1,15.1c4.1,3,10.2,3,10.5-14.5C204.4,171.2,189.3,188.2,189.3,188.2z"/>
		<path class="st9" d="M191.9,194.4c0.5-1.9,5.6,0.8,8-0.5c2-1.1,2.7,4.1,1.8,7.8c1.3-2.4,2.1-6.5,2.3-12.9c0-0.9,0-1.6-0.1-2.3
			l-14.6,4.1c0.2,3.8,0.9,10.4,4.1,12.8C193.4,203.3,191.4,196.3,191.9,194.4z"/>
		<path class="st13" d="M149,126.3c-5.8,11.2-12.9,33.7-0.5,50.6c14.5,19.8,72.7,19.7,88.5,0.6s6.4-58.4-14.1-65.6
			C202.5,104.5,160.4,104.3,149,126.3z"/>
		<path class="st5" d="M223,111.8c-20.5-7.3-62.5-7.4-73.9,14.5c-2.6,5-5.4,12.3-6.7,20.3c-0.4,8.4,1.2,17.2,6.8,24.8
			c14.5,19.8,72.7,19.7,88.5,0.6c3.9-4.7,6.3-10.6,7.3-17C245.8,136.7,237,116.7,223,111.8z"/>
		<path class="st14" d="M165.8,152.6c-1.2,1.4-2.2,3-3,4.6c-3.4,6.4-5.8,15.7,1.9,19.9c11.9,6.5,19.4-5.5,33.1-3.1
			c13.6,2.4,17.4,11.3,28.7,1.7c11.3-9.6-3.1-36.5-28.7-35.8c-3.8,0.1-7.8-0.8-11.5,0c-2.7,0.5-5.5,1.6-8,2.8
			C173.2,144.9,169.2,148.4,165.8,152.6z"/>
		<path class="st15" d="M197.4,153c-0.4,0.4-0.5,1-0.5,1.6c0.1,2,1.4,3.8,1.7,5.7c0.5,2.4-0.8,5.2-3.1,6.1c-2.3,0.9-5.4-0.7-5.6-3.2
			c-0.1-0.9,0.2-1.9,0.9-2.6c0.3-0.3,0.6-0.5,0.8-0.9c0.2-0.3,0.4-0.7,0.4-1.1c0.5-2.4-1.6-5-4-5.1c-3.9-0.2-8.1,1.2-11.3,3.4
			c-2.3,1.6-3.2,3.9-5.1,5.8c-0.6,0.7-6.7,9.3-4.5,15.4c10.5,3.7,17.9-6.4,30.6-4.2c11.6,2,16.1,8.8,24.1,4.8
			c3-5.4-0.1-12.3-3.7-16.7c-2.4-2.9-5.5-5.3-8.9-6.9c-2.8-1.3-7.9-3.3-10.9-2.7c-0.3,0.1-0.6,0.1-0.8,0.3
			C197.5,152.9,197.5,153,197.4,153z"/>
		<path class="st15" d="M173,179.1c7.8-0.5,14.6-6.8,24.8-5c10.8,1.9,15.4,7.8,22.5,5.5c-3.3-9.1-11.7-15.6-21.7-16.4
			c-0.5,1.5-1.5,2.8-3,3.4c-2.1,0.8-4.9-0.5-5.5-2.6C182.3,165.9,175.9,171.6,173,179.1z"/>
		<path class="st12" d="M198.2,140.6c0,0-1.1,7,4.3,6.6c4-0.3,3.8-4.3,3.4-6.5c-2.4-0.5-4.8-0.8-7.4-0.8
			C198.4,140.1,198.3,140.4,198.2,140.6z"/>
		
			<ellipse transform="matrix(0.2671 -0.9637 0.9637 0.2671 30.0488 318.9844)" class="st9" cx="224.7" cy="139.7" rx="7.3" ry="11.5"/>
		<path class="st9" d="M174.2,137.5c1.6,3.7-1.9,8.7-7.7,11.2c-5.9,2.5-11.9,1.5-13.4-2.1s1.9-8.7,7.7-11.2
			C166.6,132.9,172.6,133.8,174.2,137.5z"/>
		<g>
			<g>
				<path class="st10" d="M165.7,144.5c1.9,0,1.9-3,0-3C163.8,141.5,163.8,144.5,165.7,144.5L165.7,144.5z"/>
			</g>
		</g>
		<g>
			<g>
				<path class="st10" d="M168.7,139.1c1.9,0,1.9-3,0-3S166.8,139.1,168.7,139.1L168.7,139.1z"/>
			</g>
		</g>
		<g>
			<g>
				<path class="st10" d="M171.4,142.7c1.9,0,1.9-3,0-3S169.5,142.7,171.4,142.7L171.4,142.7z"/>
			</g>
		</g>
		<g>
			<g>
				<path class="st10" d="M157.9,144.5c1.9,0,1.9-3,0-3S156,144.5,157.9,144.5L157.9,144.5z"/>
			</g>
		</g>
		<g>
			<g>
				<path class="st10" d="M217.6,138.9c0.1-0.1,0.2-0.2,0.3-0.3c0.1-0.1,0.2-0.3,0.3-0.5c0.1-0.2,0.1-0.4,0.1-0.6
					c0-0.2,0-0.4-0.1-0.6c-0.1-0.2-0.2-0.4-0.3-0.5c-0.1-0.1-0.2-0.2-0.3-0.2c-0.2-0.1-0.5-0.2-0.8-0.2c-0.1,0-0.3,0-0.4,0.1
					c-0.2,0.1-0.5,0.2-0.7,0.4c-0.1,0.1-0.2,0.2-0.3,0.3c-0.1,0.1-0.2,0.3-0.3,0.5c-0.1,0.2-0.1,0.4-0.1,0.6c0,0.2,0,0.4,0.1,0.6
					c0.1,0.2,0.2,0.4,0.3,0.5c0.1,0.1,0.2,0.2,0.3,0.2c0.2,0.1,0.5,0.2,0.8,0.2c0.1,0,0.3,0,0.4-0.1
					C217.2,139.3,217.5,139.1,217.6,138.9L217.6,138.9z"/>
			</g>
		</g>
		<g>
			<g>
				<path class="st10" d="M223.8,136.7c1.9,0,1.9-3,0-3C221.8,133.7,221.8,136.7,223.8,136.7L223.8,136.7z"/>
			</g>
		</g>
		<g>
			<g>
				<path class="st10" d="M222.3,143.9c1.9,0,1.9-3,0-3C220.3,140.9,220.3,143.9,222.3,143.9L222.3,143.9z"/>
			</g>
		</g>
		<g>
			<g>
				<path class="st10" d="M231,141.2c1.9,0,1.9-3,0-3S229,141.2,231,141.2L231,141.2z"/>
			</g>
		</g>
		<g>
			<g>
				<path class="st10" d="M162.3,148.5c1.9,0,1.9-3,0-3S160.4,148.5,162.3,148.5L162.3,148.5z"/>
			</g>
		</g>
		<g>
			<g>
				<path class="st10" d="M160.1,139.3c1.9,0,1.9-3,0-3S158.2,139.3,160.1,139.3L160.1,139.3z"/>
			</g>
		</g>
		<g>
			<g>
				<path class="st10" d="M189.8,181.2c0.1,0.2,0,0.4-0.1,0.6c-0.1,0.1-0.1,0.2,0,0c-0.1,0.1-0.1,0.1,0,0c0.1,0,0.1-0.1,0.2-0.1
					c0.1-0.1,0.1,0-0.1,0c0.1,0,0.2-0.1,0.3-0.1c0.2-0.1,0.4-0.1,0.6-0.2c0.7-0.2,1.2-0.2,2-0.2c0.4,0,0.8,0,1.1,0
					c0.5,0,0.4,0,0.9,0.1c0.8,0.1,1.6,0.4,2.4,0.7c0.7,0.3,1.7-0.3,1.9-1.1c0.2-0.9-0.3-1.5-1.1-1.9c-1.9-0.8-4.1-1.1-6.2-0.9
					c-2.1,0.2-5.4,0.8-4.9,3.6c0.1,0.8,1.1,1.3,1.9,1.1C189.6,182.7,189.9,182,189.8,181.2L189.8,181.2z"/>
			</g>
		</g>
		<g>
			<g>
				<path class="st10" d="M192.7,131.9c0.2-0.6,0.5-1.1,0.8-1.7c0.1-0.3,0.3-0.5,0.4-0.8c0.1-0.1,0.2-0.3,0.3-0.4
					c0-0.1,0.1-0.1,0.1-0.2c-0.1,0.1-0.1,0.1,0,0c0.2-0.2,0.4-0.4,0.6-0.6c0.1-0.1,0.4-0.3,0.1-0.1c0.1-0.1,0.2-0.2,0.4-0.2
					s0.3-0.1,0.4-0.2c-0.2,0.1,0.1,0,0.1,0c0.1,0,0.3-0.1,0.4-0.1c0.1-0.1-0.1,0-0.1,0c0.1,0,0.2,0,0.2,0c0.1,0,0.3,0,0.4,0
					c0.1,0,0.1,0,0.2,0c0,0-0.2-0.1-0.1,0c0.1,0.1,0.3,0.1,0.4,0.1c0.1,0,0.4,0.2,0.3,0.1c-0.2-0.1,0.2,0.1,0.3,0.1
					c0.1,0.1,0.2,0.1,0.3,0.2c0.1,0,0.2,0.2,0,0c0.1,0,0.1,0.1,0.1,0.1c0.1,0.1,0.2,0.2,0.3,0.3s0.1,0.1,0.2,0.2
					c0,0-0.1-0.2-0.1-0.1c0.1,0.1,0.1,0.2,0.2,0.3c0.1,0.1,0.2,0.4,0.1,0.1c0,0.1,0.1,0.3,0.1,0.4c0,0.1,0,0.2,0.1,0.2
					c0.1,0.2,0-0.1,0-0.1c0,0.1,0,0.2,0,0.4c0,0.1,0,0.5,0,0.3s0,0,0,0c0,0.1,0,0.2-0.1,0.2c0,0.2-0.1,0.3-0.1,0.5
					c0,0,0.1-0.2,0-0.1c-0.1,0.1-0.1,0.2-0.1,0.3c-0.1,0.1-0.1,0.2-0.2,0.4c0,0.1-0.1,0.1-0.1,0.1c0.2-0.2,0,0,0,0
					c-0.1,0.1-0.2,0.2-0.3,0.3c0,0-0.2,0.2,0,0c-0.1,0.1-0.1,0.1-0.2,0.1c-0.1,0.1-0.2,0.1-0.4,0.2c0,0-0.3,0.1-0.1,0.1
					c0.2-0.1-0.2,0.1-0.2,0.1c-0.8,0.2-1.3,1.1-1.1,1.9c0.2,0.8,1,1.3,1.9,1.1c3.3-1,5.1-5.1,3.3-8.1c-0.8-1.4-2.3-2.4-3.9-2.7
					c-1.8-0.3-3.5,0.2-4.9,1.4c-1.3,1.1-2.2,2.8-2.9,4.4c-0.3,0.7-0.2,1.6,0.5,2.1C191.2,132.8,192.3,132.7,192.7,131.9L192.7,131.9
					z"/>
			</g>
		</g>
		<g>
			<path class="st14" d="M159.3,134.6c3.1-3.1,8.9-8.4,12.9-3.4c1.3,1.6,3.6-0.7,2.3-2.3c-5.2-6.6-13.2-1-17.6,3.4
				C155.5,133.7,157.8,136.1,159.3,134.6L159.3,134.6z"/>
		</g>
		<g>
			<path class="st14" d="M228.8,133.6c-3.1-3.1-8.9-8.4-12.9-3.4c-1.3,1.6-3.6-0.7-2.3-2.3c5.2-6.6,13.2-1,17.6,3.4
				C232.6,132.7,230.2,135.1,228.8,133.6L228.8,133.6z"/>
		</g>
		<g>
			<g>
				<path class="st10" d="M192.9,136.6c0.2-0.2,0.5-0.3,0.7-0.5c0.2-0.1,0.3-0.2,0.4-0.4c0.1-0.1,0.2-0.3,0.3-0.5s0.1-0.4,0-0.6
					c0-0.2-0.1-0.4-0.2-0.6c-0.1-0.1-0.2-0.2-0.2-0.3c-0.2-0.2-0.4-0.3-0.7-0.4c-0.1,0-0.3,0-0.4-0.1c-0.3,0-0.5,0.1-0.8,0.2
					c-0.2,0.2-0.5,0.3-0.7,0.5c-0.2,0.1-0.3,0.2-0.4,0.4c-0.1,0.1-0.2,0.3-0.3,0.5s-0.1,0.4,0,0.6c0,0.2,0.1,0.4,0.2,0.6
					c0.1,0.1,0.2,0.2,0.2,0.3c0.2,0.2,0.4,0.3,0.7,0.4c0.1,0,0.3,0,0.4,0.1C192.4,136.8,192.7,136.7,192.9,136.6L192.9,136.6z"/>
			</g>
		</g>
		<g>
			<g>
				<path class="st10" d="M169.7,123.3c1.3,0.6,2.4,1.4,3.1,2.5c0.6,0.9,2,0,1.4-0.8c-0.9-1.4-2.2-2.5-3.7-3.1
					C169.5,121.5,168.7,122.9,169.7,123.3L169.7,123.3z"/>
			</g>
			<g>
				<path class="st10" d="M172.5,119.7c0.3,0.5,0.7,1.1,1,1.6c0.6,0.9,2,0.1,1.4-0.8c-0.3-0.5-0.7-1.1-1-1.6
					C173.4,117.9,171.9,118.8,172.5,119.7L172.5,119.7z"/>
			</g>
			<g>
				<path class="st10" d="M213.9,126.5c-0.3-1.3,0.8-2.5,2.1-2.5c1,0,1-1.6,0-1.6c-2.4-0.1-4.2,2.3-3.7,4.6
					C212.6,127.9,214.1,127.5,213.9,126.5L213.9,126.5z"/>
			</g>
			<g>
				<path class="st10" d="M213.8,120.9c0.1-0.2,0.4-0.3,0.7-0.3c1,0.2,1.5-1.4,0.4-1.6c-1-0.2-1.9,0.2-2.5,1
					C211.8,121,213.2,121.8,213.8,120.9L213.8,120.9z"/>
			</g>
			<g>
				<path class="st10" d="M172.4,134.3c0.6,0.2,1.3,0.4,1.9,0.6c1,0.3,1.4-1.2,0.4-1.6c-0.6-0.2-1.3-0.4-1.9-0.6
					C171.8,132.4,171.4,134,172.4,134.3L172.4,134.3z"/>
			</g>
			<g>
				<path class="st10" d="M216.1,133.3c0.6-0.4,1.3-0.6,2-0.7c0.4-0.1,0.7-0.6,0.6-1c-0.1-0.5-0.6-0.6-1-0.6
					c-0.9,0.1-1.7,0.4-2.4,0.8C214.4,132.4,215.2,133.8,216.1,133.3L216.1,133.3z"/>
			</g>
		</g>
		<path class="st9" d="M188.5,136.4c0,0,0.6-2.6,3.7-3.7c3.1-1.1,6-1.7,7.1-4s4,3.4,1.7,4.8c-2.3,1.4,4.5,1.7,3.4,2.8
			C203.3,137.5,193.4,140.1,188.5,136.4z"/>
		<g>
			<path class="st12" d="M196.5,129.8c0-0.1,0-0.2,0-0.3c0-1.1-1.6-1.1-1.6,0c0,0.1,0,0.2,0,0.3
				C194.8,130.8,196.5,130.8,196.5,129.8L196.5,129.8z"/>
		</g>
		<path class="st16" d="M197.8,174.1c4.5,0.8,7.9,2.3,10.9,3.6c-0.5-4.7-3.2-6.3-12-7.9c-9-1.7-13,5.3-13,5.3
			c-0.1,0.3-0.1,0.7-0.1,1C187.8,174.5,192.3,173.1,197.8,174.1z"/>
		<path class="st12" d="M181.3,171.3c-4.9,1.2-1.4,6.1-1.4,6.1h0.3c2-0.7,4-1.5,6.1-2.2C185.9,173.3,184.7,170.5,181.3,171.3z"/>
		<g>
			<g>
				<path class="st8" d="M200.4,224.6c0,0-8.4-10-2.1-10C208,214.6,200.4,224.6,200.4,224.6z"/>
				<path class="st8" d="M200.4,232c0,0-5.8,11.7,0.3,10.2C210,240,200.4,232,200.4,232z"/>
			</g>
			<g>
				<path class="st8" d="M197.7,225.7c0,0-13-1.1-8.6-5.6C195.9,213.3,197.7,225.7,197.7,225.7z"/>
				<path class="st8" d="M202.8,230.9c0,0,4.2,12.4,7.4,7C215.3,229.8,202.8,230.9,202.8,230.9z"/>
			</g>
			<g>
				<path class="st8" d="M196.2,228.1c0,0-10,8.4-10,2.1C186.2,220.6,196.2,228.1,196.2,228.1z"/>
				<path class="st8" d="M203.5,228.2c0,0,11.7,5.8,10.2-0.3C211.5,218.5,203.5,228.2,203.5,228.2z"/>
			</g>
			<g>
				<path class="st8" d="M197.3,230.8c0,0-1.1,13-5.6,8.6C184.9,232.6,197.3,230.8,197.3,230.8z"/>
				<path class="st8" d="M202.5,225.7c0,0,12.4-4.2,7-7.4C201.3,213.2,202.5,225.7,202.5,225.7z"/>
			</g>
			<path class="st6" d="M204.1,228.3c0,2-1.6,3.7-3.7,3.7c-2.1,0-3.7-1.6-3.7-3.7s1.6-3.7,3.7-3.7
				C202.4,224.6,204.1,226.3,204.1,228.3z"/>
		</g>
		<g>
			<g>
				<g>
					<polygon class="st17" points="277.4,224.8 264.6,185.5 287.2,185.1 					"/>
					<g>
						<path class="st18" d="M281.3,208.7c-0.2,0.1-0.3,0.3-0.5,0.4c0.1,0,0.2,0,0.4,0L281.3,208.7z"/>
						<path class="st18" d="M278.6,215.1c-1.1,1-2.2,2-3.4,3l1,3c0.7,0,1.4,0,2.1,0l0.4-1.6c-0.8,0-1.7,0-2.5,0c1.1-1,2.1-2,3.2-3
							l0.8-3.1c-1.4,0-2.7,0-4.1,0c-0.6,0.5-1.2,1.1-1.8,1.6C275.7,215.1,277.1,215.1,278.6,215.1z"/>
						<path class="st18" d="M282,205.9c-0.6,0.5-1.2,1.1-1.8,1.6c0.5,0,0.9,0,1.4,0L282,205.9z"/>
						<path class="st18" d="M274.2,215.2C274.3,215.2,274.3,215.1,274.2,215.2C274.3,215.1,274.3,215.1,274.2,215.2L274.2,215.2z"/>
						<path class="st18" d="M287.2,185.1h-1.9c-1.5,1.4-3.1,2.9-4.9,4.5c-2.5,0-5.1,0-7.6,0c1.6-1.6,3.1-3.1,4.3-4.4h-2.4
							c-1.1,1.1-2.7,2.8-4.2,4.3c-1.5,0-3.1,0-4.6,0l0.5,1.6c0.8,0,1.6,0,2.5,0c-0.7,0.7-1.3,1.3-1.9,1.9l0.6,1.8
							c1-1,2.2-2.3,3.6-3.6c2.5,0,5,0,7.5,0c-1.6,1.5-3.2,3-4.8,4.4c-2,0-4,0-6,0l0.5,1.6c1.2,0,2.5,0,3.7,0c-1,0.9-2,1.8-2.9,2.6
							l0.5,1.7c1.5-1.3,3.1-2.7,4.9-4.3c2.2,0,4.4,0,6.6,0c-2,1.7-4,3.4-6.1,5.2c-1.7,0-3.4,0-5.1,0l0.5,1.6c0.9,0,1.8,0,2.7,0
							c-0.7,0.6-1.4,1.2-2.1,1.8l1,3.1c2.1,0,4.1,0,6.2,0c0.6-0.5,1.2-1.1,1.8-1.6c-2.7,0-5.5,0-8.2,0c1.2-1.1,2.5-2.2,3.7-3.3
							c2.2,0,4.4,0,6.6,0l0.4-1.6c-1.7,0-3.5,0-5.2,0c2-1.8,4.1-3.5,6.1-5.2c0.1,0,0.2,0,0.4,0l0.8-3.1c-0.6,0.5-1.1,1-1.7,1.4
							c-2.2,0-4.4,0-6.6,0c1.6-1.4,3.4-2.9,5-4.4c1.4,0,2.7,0,4,0l0.4-1.6c-0.9,0-1.7,0-2.6,0c1.2-1,2.3-2,3.3-3L287.2,185.1z"/>
						<path class="st18" d="M273.7,213.5c0.8,0,1.6,0,2.4,0c1.6-1.5,3.2-2.9,4.8-4.4c-0.8,0-1.6,0-2.5,0
							C276.8,210.6,275.2,212,273.7,213.5L273.7,213.5z"/>
					</g>
					<g>
						<path class="st6" d="M273.2,212l0.6,1.7c2.7-2.5,5.5-5,8.2-7.5l0.7-2.8C279.5,206.2,276.3,209,273.2,212z"/>
						<path class="st6" d="M275.3,218.3c1.6-1.5,3.1-2.9,4.8-4.4l0.7-2.8c-2,1.8-4,3.6-6,5.4L275.3,218.3z"/>
						<path class="st6" d="M268.8,198.4l0.5,1.7c5.6-4.9,11.1-9.9,16.5-14.9l-2.5,0.1C278.6,189.6,273.7,194,268.8,198.4z"/>
						<path class="st6" d="M270.7,204.5l0.5,1.7c4.5-4,9-7.9,13.5-11.7l0.7-2.7C280.5,195.9,275.6,200.1,270.7,204.5z"/>
						<path class="st6" d="M266.6,191.7l0.6,1.8c2.7-2.7,5.4-5.4,8.1-8.1h-2.4C270.8,187.5,268.7,189.6,266.6,191.7z"/>
						<g>
							<path class="st6" d="M283.3,200.8c-4.6,0-9.1,0-13.7,0l0.5,1.6c4.3,0,8.5,0,12.8,0L283.3,200.8z"/>
							<path class="st6" d="M265.9,189.6c6.7,0,13.4,0,20.2,0l0.4-1.6c-7,0-14.1,0-21.1,0L265.9,189.6z"/>
							<path class="st6" d="M282.1,205.8c-3.6,0-7.3,0-10.9,0l0.5,1.6c3.3,0,6.6,0,10,0L282.1,205.8z"/>
							<path class="st6" d="M279.1,217.8c-1.3,0-2.7,0-4,0l0.5,1.6c1,0,2,0,3.1,0L279.1,217.8z"/>
							<path class="st6" d="M273.1,211.8l0.5,1.6c2.2,0,4.3,0,6.5,0l0.4-1.6C278.1,211.8,275.6,211.8,273.1,211.8z"/>
							<path class="st6" d="M267.3,194l0.5,1.6c5.6,0,11.1,0,16.7,0l0.4-1.6C279.1,194,273.2,194,267.3,194z"/>
						</g>
					</g>
				</g>
				<polygon class="st18" points="277,223.8 277.4,224.8 287.2,185.1 277,185.3 				"/>
			</g>
			<polygon class="st18" points="287.1,185.5 264.8,185.5 264.6,185.5 265.5,188.3 286.4,188.3 			"/>
			<rect x="262.6" y="184.3" class="st17" width="26.5" height="2.8"/>
		</g>
		<path class="st5" d="M284.1,196.1c-0.3-0.4-8.7,1.8-9.4,2.5c-3,3.5,2.5,8.1,2.6,11.9c0,1.2-0.4,2.6,0.2,3.7s2,1.4,3.2,1.1
			C291.2,213.1,288.8,202.8,284.1,196.1z"/>
		<path class="st5" d="M265.1,214.8c0,0-8.5-15.5,4-19.9c12.6-4.4,8.8,6.5,3.1,9C272.2,203.9,279,224.6,265.1,214.8z"/>
		<path class="st9" d="M223,111.8c-20.5-7.3-62.5-7.4-73.9,14.5c-2.6,5-5.4,12.3-6.7,20.3c-0.3,5.7,0.3,11.6,2.5,17.2
			c1.8,1.1,4,1.5,5.5,0.1l0,0c0.2-0.2,0.4-0.4,0.6-0.7c0.1-0.1,0.1-0.2,0.2-0.3c0.1-0.1,0.1-0.2,0.2-0.3c0.1-0.2,0.2-0.5,0.4-0.8
			c0.1-0.3,0.2-0.6,0.2-0.8c0-0.1,0.1-0.2,0.1-0.3s0.1-0.3,0.1-0.4c0-0.2,0.1-0.5,0.1-0.7l0,0l0,0c0.1-3.4-3.5-3.4-3.5-3.4
			c0.6,1.4,0.8,2.4,0.7,3.1c-0.1,1.1-0.8,1.4-1.7,1.4h-0.1c-0.1,0-0.2,0-0.3-0.1c-0.1,0-0.1,0-0.2-0.1c-0.1,0-0.2-0.1-0.4-0.1
			c-0.1,0-0.2-0.1-0.3-0.1s-0.1-0.1-0.2-0.1c-0.1-0.1-0.3-0.1-0.4-0.2l-0.1-0.1c-0.1-0.1-0.3-0.2-0.4-0.3l-0.1-0.1
			c-0.1-0.1-0.3-0.2-0.4-0.4l0,0l0,0c-0.3-0.3-0.5-0.6-0.7-1c-0.1-0.1-0.1-0.3-0.1-0.5c-0.4-1.6-0.1-5.3,0.7-9.8v-0.1
			c0.1-0.3,0.1-0.6,0.2-0.9c0-0.1,0-0.2,0.1-0.3c0.1-0.2,0.1-0.5,0.1-0.8c0-0.1,0.1-0.3,0.1-0.4c0.1-0.2,0.1-0.5,0.1-0.7
			s0.1-0.4,0.1-0.5c0.1-0.2,0.1-0.4,0.1-0.7c0.1-0.2,0.1-0.4,0.1-0.6c0.1-0.2,0.1-0.4,0.2-0.6c0.1-0.2,0.1-0.4,0.2-0.6
			c0.1-0.2,0.1-0.4,0.2-0.6c0.1-0.2,0.1-0.4,0.2-0.7c0.1-0.2,0.1-0.4,0.2-0.6c0.1-0.2,0.1-0.5,0.2-0.7c0.1-0.2,0.1-0.4,0.2-0.6
			c0.1-0.2,0.1-0.5,0.2-0.7c0.1-0.2,0.1-0.4,0.2-0.6c0.1-0.2,0.1-0.5,0.2-0.7c0.1-0.2,0.1-0.4,0.2-0.6c0.1-0.2,0.2-0.5,0.2-0.7
			c0.1-0.2,0.1-0.4,0.2-0.6c0.1-0.2,0.2-0.5,0.3-0.7s0.1-0.4,0.2-0.5c0.1-0.2,0.2-0.4,0.3-0.7c0.1-0.2,0.1-0.4,0.2-0.5
			c0.1-0.2,0.2-0.4,0.3-0.7c0.1-0.2,0.1-0.3,0.2-0.5c0.1-0.2,0.2-0.4,0.3-0.6c0.1-0.2,0.1-0.3,0.2-0.5c0.1-0.2,0.2-0.4,0.3-0.6
			c0.1-0.2,0.2-0.3,0.2-0.5c0.1-0.2,0.2-0.4,0.3-0.6c0.1-0.1,0.2-0.3,0.2-0.4c0.1-0.2,0.2-0.4,0.4-0.6c0.1-0.1,0.2-0.3,0.2-0.4
			c0.1-0.2,0.3-0.4,0.4-0.6c0.1-0.1,0.1-0.2,0.2-0.3c0.2-0.3,0.4-0.6,0.6-0.8l0,0c1.3-1.7,3-3.2,5-4.5c1-0.7,2-1.3,3-1.9
			c1.4-0.8,2.8-1.5,4.2-2.1c0.7-0.3,1.4-0.6,2.1-0.9c3.5-1.4,6.7-2.4,8.8-2.9c0.5,0.7,1.1,1.5,2,2.4l2-3.1c0,0,7.1,11.1,19.3,10.8
			c0,0-3.4-3.4-2-6.8l4.5,3.4c0,0,0.9-5.4,2.3-6.5s1.1,3.7,1.1,3.7s4.3-3.4,5.4-6c1.4,0.3,4,1,7,2.1c4.2,1.5,9.4,3.7,13.4,6.7
			c1.5,1.2,2.9,2.4,4,3.8c0.2,0.3,0.4,0.6,0.6,0.9c0.1,0.1,0.1,0.2,0.2,0.3c0.1,0.2,0.3,0.4,0.4,0.6c0.1,0.1,0.2,0.2,0.2,0.4
			c0.1,0.2,0.2,0.4,0.4,0.6c0.1,0.1,0.2,0.3,0.2,0.4c0.1,0.2,0.2,0.4,0.3,0.6c0.1,0.1,0.2,0.3,0.2,0.5c0.1,0.2,0.2,0.4,0.3,0.6
			c0.1,0.2,0.1,0.3,0.2,0.5s0.2,0.4,0.3,0.6c0.1,0.2,0.1,0.3,0.2,0.5s0.2,0.4,0.3,0.7c0.1,0.2,0.1,0.3,0.2,0.5s0.2,0.4,0.3,0.7
			c0.1,0.2,0.1,0.3,0.2,0.5s0.2,0.5,0.3,0.7c0.1,0.2,0.1,0.4,0.2,0.5c0.1,0.2,0.2,0.5,0.2,0.7c0.1,0.2,0.1,0.3,0.2,0.5
			s0.2,0.5,0.2,0.7c0.1,0.2,0.1,0.3,0.2,0.5c0.1,0.3,0.2,0.5,0.2,0.8c0,0.2,0.1,0.3,0.1,0.5c0.1,0.3,0.2,0.6,0.2,0.9
			c0,0.1,0.1,0.3,0.1,0.4c0.1,0.4,0.2,0.7,0.3,1c0,0.1,0,0.1,0.1,0.2c0.1,0.4,0.2,0.8,0.3,1.2c0,0.1,0.1,0.3,0.1,0.4
			c0.1,0.3,0.1,0.5,0.2,0.8c0,0.2,0.1,0.4,0.1,0.5c0,0.2,0.1,0.5,0.1,0.7s0.1,0.4,0.1,0.6c0,0.2,0.1,0.4,0.1,0.6
			c0,0.2,0.1,0.4,0.1,0.6c0,0.2,0.1,0.4,0.1,0.6c0,0.2,0.1,0.4,0.1,0.6c0,0.2,0.1,0.4,0.1,0.5c0,0.2,0.1,0.4,0.1,0.6
			c0,0.2,0,0.3,0.1,0.5c0,0.2,0.1,0.4,0.1,0.6c0,0.1,0,0.3,0.1,0.4c0,0.2,0,0.4,0.1,0.6c0,0.1,0,0.3,0,0.4c0,0.2,0,0.4,0.1,0.6
			c0,0.1,0,0.2,0,0.4s0,0.4,0,0.6c0,0.1,0,0.1,0,0.1c-0.4,1.2-0.9,2.4-1.5,3.6c-0.5,0.9,0.9,1.7,1.4,0.8v-0.1c0,0.2-0.1,0.4-0.1,0.5
			c-0.2,0.4-0.5,0.8-0.9,1.1c-0.3,0.3-0.7,0.6-1,0.8l0,0c-0.4,0.2-0.7,0.4-1.1,0.4l0,0c-1.2,0.3-2.3-0.1-2.1-1.9
			c0.1-0.6,0.3-1.4,0.7-2.5c0,0-2.4,0-3.2,1.8l0,0v0.1c0,0.1-0.1,0.2-0.1,0.4c0,0.1,0,0.1,0,0.1c0,0.2-0.1,0.4-0.1,0.5v0.1
			c0,0.2,0,0.4,0,0.6v0.1c0,0.2,0.1,0.5,0.1,0.8c0,0.1,0,0.1,0,0.2c0.1,0.3,0.1,0.6,0.3,0.9l0,0l0,0c0.1,0.3,0.2,0.6,0.3,0.8
			c1.4,2.7,3.9,2.6,6.1,1.4c0.8-2.3,1.4-4.7,1.8-7.2C245.8,136.7,237,116.7,223,111.8z"/>
		<g>
			<path class="st6" d="M179.1,103c-2.4,0.8-7.9,2.8-1.1,9.9l2-3.1c0,0,7.1,11.1,19.3,10.8c0,0-3.4-3.4-2-6.8l4.5,3.4
				c0,0,0.9-5.4,2.3-6.5s1.1,3.7,1.1,3.7s5.4-4.2,5.7-6.8C211.1,105,199.8,96.5,179.1,103z"/>
			<g>
				<g>
					<path class="st6" d="M237.8,111.9c-0.9-1-3.1-19.9,14.2-28.1l-1,4.7c0,0,11.4-7.2,24.6-5.1l-4.4,3.8c0,0,19.2,2.8,27.1,17
						l-5.7-0.9c0,0-11.4,7.2-17.7,9.8l10.4,0.6C285.5,113.8,255.2,130.8,237.8,111.9z"/>
					<path class="st17" d="M237.8,111.9c-0.9-1-3.1-19.9,14.2-28.1l-1,4.7c0,0,11.4-7.2,24.6-5.1l-4.4,3.8c0,0,19.2,2.8,27.1,17
						l-5.7-0.9c0,0-11.4,7.2-17.7,9.8l10.4,0.6C285.5,113.8,255.2,130.8,237.8,111.9z"/>
					<path class="st6" d="M275.5,83.7c-0.2-0.1-0.5-0.2-0.7-0.3c-12.9-1.8-23.7,5.2-23.7,5.2l1-4.7c-9.4,4.5-13.1,12.1-14.3,18.3
						c14.8,14.1,39,0.4,39,0.4l-8.8-0.5c5.3-2.1,14.9-8.2,14.9-8.2l4.8,0.8c-0.3-0.6-0.7-1.2-1.1-1.7c-7.6-4.4-15.3-5.6-15.3-5.6
						L275.5,83.7z"/>
					<path class="st7" d="M233.4,109.6c0,0,1.3-1.9,6.3,0.3s6.3,8.2,3.8,10.7C241,123.2,228.4,114.1,233.4,109.6z"/>
					<path class="st6" d="M239.4,152.1c0,0-5,0-3.1,5.6c2,5.6,8.1,2.2,9.8-1.1s3.6-4.2,3.4-13.7c-0.3-9.5-3.1-37.6-42.9-40.1
						l2.8,5.3c0,0,18.5,3.9,25.5,12.9s10.4,30.3,9,33.1S236.6,158.6,239.4,152.1z"/>
					<g>
						<path class="st17" d="M246.4,141.9c-0.3-8.9-2.9-34.9-39.2-37.9l2.2,4.2c0,0,18.5,3.9,25.5,12.9c6.5,8.4,9.9,27.5,9.2,32.3
							C245.4,151.1,246.6,149.2,246.4,141.9z"/>
						<path class="st17" d="M243,155.3c-1.7,1.6-4.6,2.2-4.3-0.6c-1.1,0.5-2.2,0.4-2.5-0.7c-0.4,0.8-0.5,2,0.1,3.8
							c0.1,0.4,0.3,0.7,0.5,1C239.1,159.1,241.8,157.3,243,155.3z"/>
					</g>
				</g>
				<g>
					<path class="st6" d="M150,113.7c0.9-1,3.1-19.9-14.2-28.1l0.9,4.7c0,0-11.4-7.2-24.6-5.1l4.4,3.8c0,0-19.2,2.8-27.1,17l5.7-0.9
						c0,0,11.4,7.2,17.7,9.8l-10.4,0.6C102.3,115.6,132.6,132.6,150,113.7z"/>
					<path class="st17" d="M150,113.7c0.9-1,3.1-19.9-14.2-28.1l0.9,4.7c0,0-11.4-7.2-24.6-5.1l4.4,3.8c0,0-19.2,2.8-27.1,17
						l5.7-0.9c0,0,11.4,7.2,17.7,9.8l-10.4,0.6C102.3,115.6,132.6,132.6,150,113.7z"/>
					<path class="st6" d="M135.8,85.6l0.9,4.7c0,0-11.4-7.2-24.6-5.1l4.4,3.8c0,0-11.3,1.7-20.1,8.9c3.9,2.3,9.6,5.6,13.4,7.1
						l-10.4,0.6c0,0,30.3,17,47.6-1.9c0.3-0.4,0.9-3.3,0.4-7.3C145.2,92.4,141.6,88.4,135.8,85.6z"/>
					<path class="st7" d="M154.4,111.5c0,0-1.3-1.9-6.3,0.3s-6.3,8.2-3.8,10.7S159.4,115.9,154.4,111.5z"/>
					<path class="st6" d="M148.4,154c0,0,5.1,0,3.1,5.6s-8.1,2.2-9.8-1.1s-3.6-4.2-3.4-13.7s3.1-37.6,42.9-40.1l-2.8,5.3
						c0,0-18.5,3.9-25.5,12.9s-10.4,30.3-9,33.1S151.2,160.4,148.4,154z"/>
					<g>
						<path class="st17" d="M141.6,144c-0.2,7.1,0.8,9.4,2.1,11.5c-0.9-4.2,2.4-24,9.1-32.6c7-9,25.5-12.9,25.5-12.9l2.8-5.3
							c-3.6,0.2-6.9,0.7-9.9,1.3C144,113.1,141.9,135.6,141.6,144z"/>
						<path class="st17" d="M151.9,157.4c-0.7,0.4-1.8,0.2-2.8-0.4c-0.2,2.2-2.9,1.5-4.5-0.1c0.1,0.2,0.3,0.5,0.4,0.8
							c0.9,1.8,3,3.5,5.1,4c0.5-0.5,1-1.1,1.3-2.1C151.7,158.7,151.8,158,151.9,157.4z"/>
					</g>
				</g>
				<g>
					<path class="st19" d="M240.6,109.3c2.4-7.5,6.5-15.3,14.9-16.8c1-0.2,0.6-1.8-0.4-1.6c-9,1.6-13.5,9.9-16.1,17.9
						C238.7,109.9,240.3,110.3,240.6,109.3L240.6,109.3z"/>
				</g>
				<g>
					<path class="st19" d="M244.5,112.4c5.5,0.2,10.9,0.1,16.4-0.3c1-0.1,1-1.7,0-1.6c-5.5,0.5-10.9,0.6-16.4,0.3
						C243.5,110.7,243.5,112.4,244.5,112.4L244.5,112.4z"/>
				</g>
				<g>
					<path class="st19" d="M247.1,107c5.2-5.9,12.2-9.2,20-9.4c1,0,1-1.7,0-1.6c-8.2,0.2-15.7,3.7-21.2,9.9
						C245.2,106.6,246.4,107.8,247.1,107L247.1,107z"/>
				</g>
				<g>
					<path class="st19" d="M274.8,93.9c5.1,0.3,9.8,2.2,13.8,5.5c0.8,0.7,2-0.5,1.2-1.2c-4.3-3.6-9.3-5.6-14.9-6
						C273.7,92.2,273.7,93.8,274.8,93.9L274.8,93.9z"/>
				</g>
				<g>
					<path class="st19" d="M269.1,106.2c5,0.6,9.8,0.1,14.5-1.6c1-0.3,0.6-1.9-0.4-1.6c-4.6,1.6-9.3,2.1-14.1,1.5
						C268.1,104.5,268.1,106.1,269.1,106.2L269.1,106.2z"/>
				</g>
				<g>
					<path class="st19" d="M147,112.7c-0.1-3.7-0.6-7.4-1.6-11c-0.3-1-1.9-0.6-1.6,0.4c0.9,3.5,1.4,7,1.6,10.5
						C145.4,113.7,147,113.7,147,112.7L147,112.7z"/>
				</g>
				<g>
					<path class="st19" d="M143.4,116c-2.5-8.4-6.9-15.7-13.2-21.8c-0.8-0.7-1.9,0.4-1.2,1.2c6.1,5.9,10.3,12.9,12.7,21.1
						C142.1,117.5,143.7,117,143.4,116L143.4,116z"/>
				</g>
				<g>
					<path class="st19" d="M96.4,103.7c7.1-3.9,15.3-3.7,22.1,0.6c0.9,0.6,1.7-0.9,0.8-1.4c-7.4-4.6-16.2-4.8-23.8-0.6
						C94.6,102.8,95.5,104.2,96.4,103.7L96.4,103.7z"/>
				</g>
				<g>
					<path class="st19" d="M108.7,107.9c2.1-0.1,4,0.5,5.6,1.8c0.8,0.7,2-0.5,1.2-1.2c-1.9-1.6-4.2-2.4-6.7-2.3
						C107.7,106.3,107.7,107.9,108.7,107.9L108.7,107.9z"/>
				</g>
				<g>
					<path class="st19" d="M113.4,92.5c2.9,0,5.8,0,8.7,0c1.1,0,1.1-1.6,0-1.6c-2.9,0-5.8,0-8.7,0C112.3,90.8,112.3,92.5,113.4,92.5
						L113.4,92.5z"/>
				</g>
				<g>
					<path class="st19" d="M244,153.7c2.1-3.7,2.8-7.8,2.2-12.1c-0.1-1-1.7-0.6-1.6,0.4c0.5,3.8-0.2,7.5-2.1,10.8
						C242.1,153.8,243.5,154.7,244,153.7L244,153.7z"/>
				</g>
				<g>
					<path class="st19" d="M143.2,135c-1.5,4.4-2,8.9-1.4,13.6c0.1,1,1.8,1,1.6,0c-0.6-4.5-0.2-8.8,1.3-13.1
						C145.1,134.4,143.5,134,143.2,135L143.2,135z"/>
				</g>
				<g>
					<path class="st17" d="M179.1,103c-2.4,0.8-7.9,2.8-1.1,9.9l2-3.1c0,0,7.1,11.1,19.3,10.8c0,0-3.4-3.4-2-6.8l4.5,3.4
						c0,0,0.9-5.4,2.3-6.5s1.1,3.7,1.1,3.7s5.4-4.2,5.7-6.8C211.1,105,199.8,96.5,179.1,103z"/>
					<path class="st6" d="M206,103.1c-5.1-2.4-14.3-4.1-26.9-0.1c-0.6,0.2-1.4,0.4-2.1,0.9c2,2.6,8.6,10.1,18.6,9.9
						c0,0-3.4-3.4-2-6.8l4.5,3.4c0,0,0.9-5.4,2.3-6.5s1.1,3.7,1.1,3.7S204.3,105.3,206,103.1z"/>
					<g>
						<path class="st19" d="M184.9,103.8c-0.6,3.7,0.1,7.2,2.1,10.3c0.6,0.9,2,0.1,1.4-0.8c-1.8-2.7-2.5-5.9-1.9-9.1
							C186.6,103.2,185,102.7,184.9,103.8L184.9,103.8z"/>
					</g>
					<g>
						<path class="st19" d="M191.5,102.9c0,1.2,0,2.4,0,3.6c0,1.1,1.6,1.1,1.6,0c0-1.2,0-2.4,0-3.6
							C193.1,101.9,191.5,101.9,191.5,102.9L191.5,102.9z"/>
					</g>
					<g>
						<path class="st19" d="M197.3,112.9c-0.9-3.2,1.1-6.5,4.3-7.3c1-0.2,0.6-1.8-0.4-1.6c-4.1,0.9-6.6,5.3-5.5,9.3
							C196,114.3,197.6,113.9,197.3,112.9L197.3,112.9z"/>
					</g>
				</g>
			</g>
		</g>
		<g>
			<path class="st20" d="M152.4,128.8c0,0-11.6,3.9-12.8,1.9C138.4,128.8,142.7,123.3,152.4,128.8z"/>
			<path class="st20" d="M134,124.1c0,0-15.7,2.1-16.7-0.6S123,114.9,134,124.1z"/>
			<path class="st20" d="M137.5,139.2c0,0-10.5,6.7-12.1,5.1C123.8,142.6,126.7,136.2,137.5,139.2z"/>
			<path class="st20" d="M232.5,127.6c0,0,11.6,3.9,12.8,1.9C246.5,127.6,242.2,122.2,232.5,127.6z"/>
			<path class="st20" d="M250.9,123c0,0,15.7,2.1,16.7-0.6C268.6,119.6,261.9,113.7,250.9,123z"/>
			<path class="st20" d="M247.4,138c0,0,10.5,6.7,12.1,5.1C261.1,141.4,258.2,135.1,247.4,138z"/>
		</g>
		<g class="st3">
			<path class="st10" d="M224.4,123.5c-4.6-2.4-8.8-5.4-12.6-8.9c-2.4-2.1,1.1-5.6,3.5-3.5c3.5,3.2,7.5,5.9,11.7,8.1
				C229.7,120.7,227.2,125,224.4,123.5L224.4,123.5z"/>
		</g>
		<g>
			<path class="st21" d="M224.4,121.8c-4.6-2.4-8.8-5.4-12.6-8.9c-2.4-2.1,1.1-5.6,3.5-3.5c3.5,3.2,7.5,5.9,11.7,8.1
				C229.7,119.1,227.2,123.3,224.4,121.8L224.4,121.8z"/>
		</g>
		<g class="st3">
			<path class="st10" d="M161.7,125.6c4.6-2.4,8.8-5.4,12.6-8.9c2.4-2.1-1.1-5.6-3.5-3.5c-3.6,3.2-7.4,5.9-11.7,8.1
				C156.4,122.9,158.9,127.1,161.7,125.6L161.7,125.6z"/>
		</g>
		<g>
			<path class="st21" d="M161.2,123.8c4.6-2.4,8.8-5.4,12.6-8.9c2.4-2.1-1.1-5.6-3.5-3.5c-3.6,3.2-7.4,5.9-11.7,8.1
				C156,121,158.5,125.3,161.2,123.8L161.2,123.8z"/>
		</g>
		<g>
			<g>
				<path class="st14" d="M226.1,130.4c1.1-0.1,2.2-0.4,3.2-0.9c0.9-0.4,1.7-1,2.4-1.8c0.5-0.6,0.6-1.6,0-2.1s-1.5-0.6-2.1,0
					c-0.2,0.2-0.5,0.5-0.8,0.7c0.1-0.1,0.2-0.2,0.3-0.2c-0.5,0.4-1.1,0.7-1.6,1c0.1-0.1,0.2-0.1,0.4-0.1c-0.6,0.2-1.2,0.4-1.8,0.5
					c0.1,0,0.3,0,0.4-0.1c-0.1,0-0.2,0-0.3,0c-0.4,0-0.8,0.1-1.1,0.4c-0.3,0.3-0.5,0.7-0.4,1.1C224.6,129.6,225.2,130.4,226.1,130.4
					L226.1,130.4z"/>
			</g>
		</g>
		<g>
			<g>
				<path class="st14" d="M230,134.2c1,0.3,2.2,0.2,3.2-0.1s2-0.9,2.6-1.8c0.3-0.3,0.4-0.6,0.4-1.1c0-0.4-0.2-0.8-0.4-1.1
					c-0.3-0.3-0.7-0.5-1.1-0.4c-0.4,0-0.8,0.1-1.1,0.4c-0.2,0.3-0.5,0.5-0.7,0.7c0.1-0.1,0.2-0.2,0.3-0.2c-0.3,0.2-0.6,0.4-0.9,0.5
					c0.1-0.1,0.2-0.1,0.4-0.1c-0.4,0.1-0.7,0.2-1.1,0.3c0.1,0,0.3,0,0.4-0.1c-0.4,0.1-0.8,0.1-1.1,0c0.1,0,0.3,0,0.4,0.1
					c-0.1,0-0.3-0.1-0.4-0.1c-0.8-0.2-1.7,0.2-1.9,1.1C228.7,133.1,229.1,134,230,134.2L230,134.2z"/>
			</g>
		</g>
		<g>
			<g>
				<path class="st14" d="M161,129c-0.3-0.1-0.6-0.2-0.9-0.3c0.1,0.1,0.2,0.1,0.4,0.1c-0.5-0.2-1-0.5-1.4-0.8
					c0.1,0.1,0.2,0.2,0.3,0.2c-0.2-0.2-0.4-0.4-0.6-0.6c-0.3-0.3-0.7-0.4-1.1-0.4c-0.4,0-0.8,0.2-1.1,0.4c-0.3,0.3-0.5,0.7-0.4,1.1
					s0.1,0.8,0.4,1.1c1,1,2.2,1.7,3.6,2.1c0.4,0.1,0.8,0.1,1.2-0.1c0.3-0.2,0.6-0.5,0.7-0.9c0.1-0.4,0.1-0.8-0.1-1.2
					C161.7,129.3,161.4,129.1,161,129L161,129z"/>
			</g>
		</g>
		<g>
			<g>
				<path class="st14" d="M157.2,132c-0.2,0.1-0.4,0.1-0.5,0.1c0.1,0,0.3,0,0.4-0.1c-0.2,0-0.4,0-0.6,0c0.1,0,0.3,0,0.4,0.1
					c-0.3,0-0.5-0.1-0.7-0.2c0.1,0.1,0.2,0.1,0.4,0.1c-0.2-0.1-0.5-0.2-0.7-0.4c0.1,0.1,0.2,0.2,0.3,0.2c-0.2-0.1-0.3-0.3-0.5-0.5
					c0.1,0.1,0.2,0.2,0.2,0.3c-0.1-0.2-0.2-0.4-0.3-0.6c0.1,0.1,0.1,0.2,0.1,0.4c-0.1-0.2-0.1-0.3-0.1-0.5c-0.1-0.4-0.4-0.7-0.7-0.9
					s-0.8-0.3-1.2-0.1c-0.4,0.1-0.7,0.3-0.9,0.7s-0.2,0.7-0.1,1.2c0.2,1.1,1,2.1,2,2.7c1,0.6,2.3,0.8,3.4,0.4
					c0.4-0.1,0.7-0.3,0.9-0.7c0.2-0.3,0.3-0.8,0.1-1.2c-0.1-0.4-0.3-0.7-0.7-0.9C158,132,157.6,131.9,157.2,132L157.2,132z"/>
			</g>
		</g>
		<path class="st9" d="M272.2,194.1c1.2,0.4,2.7,1.5,2.5,4.6c-0.3,5.2-6.9,6.8-6.9,6.8s3.9-0.9,4.5,3.7s-2.5,6.2-2.5,6.2
			s1,2.7,3.5,0.9c1.9-3.4-1-12.2-1-12.2C277.3,201.6,280.9,192.5,272.2,194.1z"/>
		<g class="st3">
			<path class="st10" d="M282.6,211.1c1.1-0.2,1.9-0.7,1.9-0.7S283.7,210.7,282.6,211.1z"/>
			<path class="st10" d="M283.2,200.9C283.2,200.9,283.3,200.8,283.2,200.9C283.3,200.8,283.3,200.8,283.2,200.9z"/>
			<path class="st10" d="M286.3,212.4c-2.2,1.4-4.8,2.3-6.3,1.6c-1.8-0.8,0.7-2.1,2.6-2.9c-1.1,0.2-2.5,0.3-3.6-0.7
				c-2.1-1.9,5.3-4.5,5.3-4.5c-4.1,1.5-7,1.1-7.1-0.9c-0.2-1.9,5.3-3.9,6-4.1c-0.6,0.2-5.4,1.7-7.4-0.4c-0.9-0.9,0-1.9,1.3-2.8
				c-1.3,0.4-2.3,0.8-2.5,1.1c-3,3.5,2.5,8.1,2.6,11.9c0,1.2-0.4,2.6,0.2,3.7s2,1.4,3.2,1.1C283.4,214.8,285.1,213.8,286.3,212.4z"
				/>
		</g>
		<path class="st8" d="M253.2,287.3c7.3-9.7,21.8-11.5,21.8-11.5s-34.6-22-41.5-29.3c-15,3.3-29.2,6.4-29.6,6.4
			c-0.6,0-25.1-2.2-34.6-4.1c-3.2,4.4-9.6,8-13.4,10.6c-6.1,4.2-12.3,8.8-19.3,11.4c0.2,0,0.3,0.1,0.5,0.1c0.5,0,1,0,1.5,0.1
			c0.7,0,1.6-0.1,2.5-0.3c1.6-0.3,25.3-14.2,27.8-15c2.5-0.8,8-0.8,8.5,1.2c0.5,2-6.2,13-6.2,13s9.2-11.5,11.8-11s20,2.5,26.3,0.5
			s25.3,17.8,25.3,17.8s-14.8-18.8-12.5-20c2.2-1.2,11.2-5,11.2-5l32.5,22.5c0,0-11.5,6.8-14.8,14.5c-0.1,0.3-0.2,0.5-0.2,0.8
			C251.6,289.2,252.5,288.3,253.2,287.3z"/>
		<path class="st12" d="M211.7,255c7.9-1.3,16.1-3.3,23.2-6.9c-1.1-1-1.9-1.8-2.4-2.5s-0.9-1.6-1.4-2.9c-6.6,3.2-14.2,4.8-21.2,5.9
			c-13.1,2.1-26.7,1.7-39.2-2.8c-0.7,2-2.1,3.8-3.9,5.5C181.2,256.8,196.6,257.5,211.7,255z"/>
		<g class="st3">
			<g>
				<path class="st10" d="M172.2,258.6c-4.8,6.5-9.5,13-14.1,19.6c-1.1,1.6,1.5,3.1,2.6,1.5c4.6-6.6,9.3-13.1,14.1-19.6
					c0.5-0.7,0.1-1.7-0.5-2C173.5,257.6,172.7,258,172.2,258.6L172.2,258.6z"/>
			</g>
		</g>
		<g class="st3">
			<g>
				<path class="st10" d="M224.8,261.5c3.4,5.3,7.1,10.4,11.1,15.2c0.5,0.6,1.6,0.5,2.1,0c0.6-0.6,0.5-1.5,0-2.1
					c-3.9-4.6-7.5-9.5-10.7-14.6C226.4,258.3,223.8,259.8,224.8,261.5L224.8,261.5z"/>
			</g>
		</g>
		<g class="st3">
			<g>
				<path class="st10" d="M235.8,258.3c6,4.8,12,9.6,18,14.4c0.6,0.5,1.5,0.6,2.1,0c0.5-0.5,0.6-1.6,0-2.1c-6-4.8-12-9.6-18-14.4
					c-0.6-0.5-1.5-0.6-2.1,0C235.3,256.7,235.2,257.8,235.8,258.3L235.8,258.3z"/>
			</g>
		</g>
		<g class="st3">
			<g>
				<path class="st10" d="M164.3,289.5c3.9,2.9,8.9,4.5,13.5,5.9c4.9,1.5,9.9,2.4,14.9,1.5c1.9-0.3,1.1-3.2-0.8-2.9
					c-4.7,0.8-9.4-0.2-13.8-1.6c-4.2-1.4-8.7-2.8-12.3-5.5C164.3,285.8,162.8,288.4,164.3,289.5L164.3,289.5z"/>
			</g>
		</g>
		<g class="st3">
			<g>
				<path class="st10" d="M174,213.4c0.6,8.8-0.1,17.5-1.9,26.1c-0.4,1.9,2.5,2.7,2.9,0.8c1.9-8.8,2.7-17.9,2.1-26.9
					C176.8,211.4,173.8,211.4,174,213.4L174,213.4z"/>
			</g>
		</g>
		<g class="st3">
			<g>
				<path class="st10" d="M226.8,208.6c0.5,0.3,0.9,0.6,1.4,1c0.1,0,0.1,0.1,0.2,0.1c0,0-0.1-0.1-0.2-0.1l0.1,0.1
					c0.1,0.1,0.2,0.2,0.3,0.3c0.2,0.2,0.5,0.4,0.7,0.6c0.9,0.8,1.7,1.6,2.4,2.5c0.5,0.6,1.6,0.6,2.1,0c0.6-0.6,0.5-1.5,0-2.1
					c-1.6-1.9-3.5-3.5-5.6-4.8c-0.7-0.4-1.7-0.2-2,0.5C225.9,207.2,226.1,208.1,226.8,208.6L226.8,208.6z"/>
			</g>
		</g>
		<g class="st3">
			<g>
				<path class="st10" d="M166,210.4c-1.2,1.3-2,2.8-2.6,4.4c-0.1,0.4,0,0.9,0.1,1.2s0.5,0.6,0.9,0.7s0.8,0.1,1.2-0.1
					s0.6-0.5,0.7-0.9c0.1-0.2,0.1-0.3,0.2-0.5c-0.1,0.1-0.1,0.2-0.1,0.4c0.4-1,0.9-1.9,1.6-2.7c-0.1,0.1-0.2,0.2-0.2,0.3
					c0.2-0.2,0.3-0.4,0.5-0.6c0.3-0.3,0.4-0.6,0.4-1.1c0-0.4-0.2-0.8-0.4-1.1c-0.3-0.3-0.7-0.5-1.1-0.4
					C166.7,210,166.3,210.1,166,210.4L166,210.4z"/>
			</g>
		</g>
		<g class="st3">
			<g>
				<path class="st10" d="M214.3,246.6c4.8-0.9,9.5-2.3,14-4.2c0.8-0.3,1.3-1,1-1.9c-0.2-0.7-1.1-1.4-1.9-1c-4.5,1.9-9.2,3.3-14,4.2
					c-0.8,0.1-1.2,1.1-1,1.9S213.5,246.7,214.3,246.6L214.3,246.6z"/>
			</g>
		</g>
	</g>
	<g>
		<g class="st3">
			<path class="st10" d="M333.2,308.4c0,2.1-0.5,4-1.4,5.9c-0.2,0.5,0.5,0.9,0.7,0.4c1-2,1.5-4.1,1.5-6.3
				C334,307.9,333.2,307.9,333.2,308.4L333.2,308.4z"/>
		</g>
		<g class="st3">
			<path class="st10" d="M330.4,308.4c-0.7,1-1.3,2.1-1.9,3.1c-0.2,0.5,0.5,0.9,0.7,0.4c0.6-1.1,1.2-2.1,1.9-3.1
				C331.4,308.4,330.7,308,330.4,308.4L330.4,308.4z"/>
		</g>
		<g>
			<path class="st7" d="M355.1,309.1c-0.1,2.3-0.2,4.6-0.1,6.9c0.1,1.9,1.1,3.6,0.7,5.5c0,0.2-0.1,0.5-0.3,0.7
				c-0.4,0.5-1.2,0.4-1.9,0.3c0.1,0.5,0.3,1,0.1,1.5c-0.4,1.3-1.9,0.9-2.3,0c-0.3-0.6-0.4-1.2-1-1.5c-0.8-0.5-1.8,0.2-2.1,1.1
				c-0.3,0.9-0.1,1.8,0,2.7c0.2,2-0.1,4-0.8,5.8c-0.2,0.5-0.6,1.2-1.2,1.2c-0.5,0-1-0.5-1.2-1c-1.5-2.7-1.6-5.9-1.5-8.9
				c0-1,0.1-2.2-0.5-3c-0.7-1-2.2-1.2-3.4-1.1c-1.2,0.1-2.5,0.5-3.7,0.3c-2-0.3-3.6-2.2-3.6-4.2c-1.6,1-3.6,1.4-5.5,1
				c-0.5-0.1-1.2-0.4-1.3-0.9c-0.1-0.4,0.2-0.9,0.4-1.2c5.1-7.1,5.8-18.3,17.1-18.3c4.3,0,10.5,2.8,11.9,7.2
				C355.2,304,355.2,306.3,355.1,309.1z"/>
			<path class="st8" d="M355.1,309.1c-0.1,2.3-0.2,4.6-0.1,6.9c0.1,1.9,1.1,3.6,0.7,5.5c0,0.2-0.1,0.5-0.3,0.7
				c-0.4,0.5-1.2,0.4-1.9,0.3c0.1,0.5,0.3,1,0.1,1.5c-0.4,1.3-1.9,0.9-2.3,0c-0.3-0.6-0.4-1.2-1-1.5c-0.8-0.5-1.8,0.2-2.1,1.1
				c-0.3,0.9-0.1,1.8,0,2.7c0.2,2-0.1,4-0.8,5.8c-0.2,0.5-0.6,1.2-1.2,1.2c-0.5,0-1-0.5-1.2-1c-1.5-2.7-1.6-5.9-1.5-8.9
				c0-1,0.1-2.2-0.5-3c-0.7-1-2.2-1.2-3.4-1.1c-1.2,0.1-2.5,0.5-3.7,0.3c-2-0.3-3.6-2.2-3.6-4.2c-1.6,1-3.6,1.4-5.5,1
				c-0.5-0.1-1.2-0.4-1.3-0.9c-0.1-0.4,0.2-0.9,0.4-1.2c5.1-7.1,5.8-18.3,17.1-18.3c4.3,0,10.5,2.8,11.9,7.2
				C355.2,304,355.2,306.3,355.1,309.1z"/>
			<path class="st7" d="M355.4,318.3c-0.2-0.8-0.4-1.5-0.4-2.4c-0.1-2.3,0-4.6,0.1-6.9c0.1-2.8,0.1-5.1-0.1-6
				c-1.4-4.5-7.6-7.2-11.9-7.2c-10.3,0-11.8,9.4-15.9,16.4c1.9,0.4,3.8,0,5.4-1c0,2,1.6,3.9,3.6,4.2c1.2,0.2,2.5-0.2,3.7-0.3
				c1.2-0.1,2.7,0.1,3.4,1.1c0.6,0.8,0.6,2,0.5,3c-0.1,3,0,6.2,1.5,8.9c0.3,0.5,0.7,1,1.2,1c0.6,0,1-0.6,1.2-1.2
				c0.2-0.5,0.4-1,0.5-1.6c0-0.1,0-0.1,0-0.2c-0.1-0.9-0.3-1.8,0-2.7c0.1-0.2,0.2-0.4,0.3-0.5c0-0.3,0-0.6,0-0.8
				c-0.1-0.9-0.3-1.8,0-2.7s1.3-1.5,2.1-1.1c0.5,0.3,0.7,1,1,1.5c0.5,1,2,1.3,2.3,0c0.1-0.5,0-1-0.1-1.5
				C354.4,318.5,355,318.6,355.4,318.3z"/>
			<path class="st8" d="M355,303.1c-1.4-4.5-7.6-7.2-11.9-7.2c-8.2,0-10.8,5.9-13.6,11.9c0.3,0.4,0.8,0.5,1.3,0.5
				c1.8,0,3.6-0.7,4.9-2c0.4,1.9,2.2,3.3,4.1,3.2c1.2-0.1,2.2-0.6,3.4-1c1.1-0.4,2.5-0.4,3.4,0.4c0.7,0.7,0.9,1.7,1,2.7
				c0.5,2.8,1.2,5.8,3,8c0.3,0.4,0.8,0.8,1.3,0.7c0.5-0.1,0.8-0.8,0.9-1.3c0.3-1.8,0.2-3.7-0.3-5.5c-0.2-0.8-0.6-1.6-0.5-2.5
				c0.1-0.8,1-1.6,1.8-1.4c0.6,0.2,0.9,1,1.4,1.5c0-0.6,0-1.2,0.1-1.9C355.2,306.3,355.2,304,355,303.1z"/>
			<path class="st22" d="M355.6,294.8c0.5,2.6,0.6,5.8,1.7,8.2c0.4,0.9,3.4,5.1,0.2,4.6c0,0.9-0.3,2.2-1.5,2.3
				c-1.1,0-1.4-1.6-2.3-1.9c-0.8-0.3-1.6,0.5-1.8,1.4s0.2,1.7,0.5,2.5c0.5,1.8,0.7,3.7,0.3,5.5c-0.1,0.5-0.3,1.2-0.9,1.3
				c-0.5,0.1-1-0.3-1.3-0.7c-1.8-2.2-2.6-5.1-3-8c-0.1-1-0.3-2-1-2.7c-0.9-0.8-2.2-0.7-3.4-0.4c-1.1,0.4-2.2,0.9-3.4,1
				c-1.9,0.1-3.7-1.3-4.1-3.2c-1.3,1.2-3.1,1.9-4.9,2c-0.5,0-1.1-0.1-1.4-0.6c-0.2-0.4,0-0.8,0.2-1.2c3.4-7.5,2-18,12.4-20.1
				c4-0.8,10.2,0.6,12.3,4.5C354.8,290.1,355.1,292.3,355.6,294.8z"/>
			<path class="st6" d="M355.9,305.9c1.1,0,1.5-1.3,1.5-2.3c0.1,0,0.1,0,0.2,0c-0.1-0.2-0.2-0.4-0.3-0.5c-1-2.5-1.2-5.6-1.7-8.2
				c-0.4-2.5-0.8-4.7-1.2-5.5c-2.1-3.9-8.4-5.3-12.3-4.5c-9.4,1.9-9.2,10.6-11.5,17.8c0.1,0,0.1,0,0.2,0c1.8,0,3.6-0.7,4.9-2
				c0.4,1.9,2.2,3.3,4.1,3.2c1.2-0.1,2.2-0.6,3.4-1c1.1-0.4,2.5-0.4,3.4,0.4c0.7,0.7,0.9,1.7,1,2.7c0.5,2.8,1.2,5.8,3,8
				c0.3,0.4,0.8,0.8,1.3,0.7c0.5-0.1,0.8-0.8,0.9-1.3c0-0.1,0-0.2,0-0.3c-0.1-0.4-0.2-0.8-0.3-1.1c-0.2-0.8-0.6-1.6-0.5-2.5
				c0-0.4,0.2-0.7,0.5-1c0-0.2-0.1-0.4-0.1-0.6c-0.2-0.8-0.6-1.6-0.5-2.5c0.1-0.8,1-1.6,1.8-1.4
				C354.6,304.3,354.8,305.9,355.9,305.9z"/>
			<path class="st22" d="M355.6,294.7c-0.4-2.5-0.8-4.6-1.2-5.4c-2.1-3.9-8.4-5.3-12.3-4.5c-8.5,1.7-9.1,9.1-11,15.9
				c0.6,0.9,2.1,0.9,3,0.2c0.9-0.7,1.4-1.9,1.7-3c0.3-1.1,0.6-2.3,1.3-3.2c1.4,0.4,0.6,3.2,2,3.7c0.6,0.2,1.2-0.2,1.5-0.7
				s0.4-1.1,0.6-1.7c0.5-1.7,2.5-3.2,4-2.2c0.7,0.5,1.1,1.3,1.6,2s1.5,1.3,2.2,0.9s0.7-1.6,1.4-2.1c1.2-0.9,2.8,1.1,4.3,0.8
				C355,295.2,355.3,295,355.6,294.7z"/>
			<path class="st23" d="M338.5,283.2c2.3-1.3,4.9-2.2,7.5-1.8c4.2,0.7,7.1,4.5,9.2,8.2c0.4,0.8,0.9,1.6,0.9,2.5s-0.5,1.9-1.4,2
				c-1.5,0.3-3.1-1.6-4.3-0.8c-0.7,0.5-0.7,1.7-1.4,2.1s-1.7-0.2-2.2-0.9s-0.8-1.6-1.6-2c-1.5-0.9-3.4,0.6-4,2.2
				c-0.2,0.6-0.3,1.2-0.6,1.7s-1,0.9-1.5,0.7c-1.4-0.5-0.6-3.3-2-3.7c-0.8,0.9-1,2.1-1.3,3.2s-0.7,2.3-1.7,3s-2.5,0.7-3.1-0.3
				c-0.5-0.8-0.1-1.9,0.2-2.8C332.9,291.2,332.8,286.3,338.5,283.2z"/>
			<path class="st14" d="M355.1,289.5c-2.1-3.7-5-7.4-9.1-8.1c-2.6-0.4-5.2,0.5-7.5,1.8c-5.7,3.2-5.5,8-7.3,13.6
				c0,0.1-0.1,0.2-0.1,0.3c0.7,0.2,1.5,0,2.1-0.4c0.9-0.7,1.4-1.9,1.7-3c0.3-1.1,0.6-2.3,1.3-3.2c1.4,0.4,0.6,3.2,2,3.7
				c0.6,0.2,1.2-0.2,1.5-0.7s0.4-1.1,0.6-1.7c0.5-1.7,2.5-3.2,4-2.2c0.7,0.5,1.1,1.3,1.6,2s1.5,1.3,2.2,0.9s0.7-1.6,1.4-2.1
				c1.2-0.9,2.8,1.1,4.3,0.8C354.5,290.7,354.9,290.1,355.1,289.5z"/>
			<path class="st24" d="M344.6,289.4c-0.5-0.2-0.1-0.9,0.4-0.7c1.5,0.6,2.6,1.8,3.1,3.3c0.2,0.5-0.6,0.7-0.8,0.2
				C346.9,291,345.9,290,344.6,289.4L344.6,289.4z M345.4,284.2c2.7,0.6,4.2,2.8,5.6,4.9c0.3,0.4,1,0,0.7-0.4
				c-1.5-2.3-3.2-4.7-6.1-5.3C345.1,283.3,344.9,284.1,345.4,284.2L345.4,284.2z M337.1,286.9c-1.6,2.6-2.7,5.4-3.3,8.4
				c-0.1,0.5,0.7,0.7,0.8,0.2c0.6-2.9,1.6-5.6,3.2-8.1C338.1,286.9,337.4,286.4,337.1,286.9L337.1,286.9z M337.9,291.5
				c0.6,0.7,1,1.5,1.1,2.5c0,0.5,0.9,0.5,0.8,0c-0.1-1.1-0.6-2.2-1.4-3C338.1,290.5,337.6,291.1,337.9,291.5L337.9,291.5z"/>
			<g>
				<path class="st6" d="M351.7,297.8c-0.4,1.3-0.7,2.6-0.8,3.9c-0.1,0.7,1,0.7,1.1,0c0.1-1.2,0.4-2.4,0.8-3.6
					C353,297.4,351.9,297.1,351.7,297.8L351.7,297.8z"/>
			</g>
			<g>
				<path class="st6" d="M344.7,299.9c1.5,2.4,2.5,4.9,3,7.7c0.1,0.7,1.2,0.4,1-0.3c-0.5-2.8-1.6-5.5-3.1-7.9
					C345.2,298.8,344.3,299.3,344.7,299.9L344.7,299.9z"/>
			</g>
			<g>
				<path class="st6" d="M336.8,298.3c0,2.4-0.7,4.6-2,6.6c-0.4,0.6,0.5,1.1,0.9,0.5c1.5-2.1,2.2-4.5,2.2-7.1
					C337.9,297.7,336.8,297.7,336.8,298.3L336.8,298.3z"/>
			</g>
			<g>
				<path class="st6" d="M338.5,300c0,0.8,0,1.6,0,2.4c0,0.7,1.1,0.7,1.1,0c0-0.8,0-1.6,0-2.4C339.6,299.3,338.5,299.3,338.5,300
					L338.5,300z"/>
			</g>
			<g class="st3">
				<path class="st10" d="M343.7,313.7c-0.4,1.5-0.1,3.2-0.1,4.8c0.1,2,0.2,4.1,0.2,6.1c0,0.5,0.8,0.5,0.8,0
					c-0.1-1.8-0.1-3.5-0.2-5.3c-0.1-1.7-0.4-3.7,0-5.3C344.6,313.4,343.9,313.2,343.7,313.7L343.7,313.7z"/>
			</g>
			<g class="st3">
				<path class="st10" d="M346.1,328.3c1.2,0.3,1.7-0.9,1.9-1.9c0.5-2.7,0.1-5.9-0.1-8.6c0-0.5-0.9-0.5-0.8,0
					c0.1,0.9,0.6,10-0.8,9.7C345.8,327.4,345.6,328.2,346.1,328.3L346.1,328.3z"/>
			</g>
			<g class="st3">
				<path class="st10" d="M353.2,310.7c0.1,2.2,0.3,4.4,0.5,6.6c0,0.5,0.9,0.5,0.8,0c-0.2-2.2-0.4-4.4-0.5-6.6
					C354,310.2,353.2,310.2,353.2,310.7L353.2,310.7z"/>
			</g>
			<g>
				<g>
					<path class="st6" d="M344.2,287.7c1,0,1-1.6,0-1.6S343.1,287.7,344.2,287.7L344.2,287.7z"/>
				</g>
				<g>
					<path class="st6" d="M349.8,288.2c0-0.1,0.1-0.2,0.1-0.3c0.5-0.9-0.9-1.8-1.4-0.8c0,0.1-0.1,0.2-0.1,0.3
						C347.9,288.3,349.3,289.1,349.8,288.2L349.8,288.2z"/>
				</g>
				<g>
					<path class="st6" d="M349.1,283.2c1,0,1-1.6,0-1.6C348,281.6,348,283.2,349.1,283.2L349.1,283.2z"/>
				</g>
				<g>
					<path class="st6" d="M342.9,282.6c1,0,1-1.6,0-1.6S341.9,282.6,342.9,282.6L342.9,282.6z"/>
				</g>
				<g>
					<path class="st6" d="M337.7,285.2c1,0,1-1.6,0-1.6S336.7,285.2,337.7,285.2L337.7,285.2z"/>
				</g>
				<g>
					<path class="st6" d="M338.5,290.6c1,0,1-1.6,0-1.6C337.4,289,337.4,290.6,338.5,290.6L338.5,290.6z"/>
				</g>
				<g>
					<path class="st6" d="M333.4,290.7h0.1c1,0,1-1.6,0-1.6h-0.1C332.4,289.1,332.4,290.7,333.4,290.7L333.4,290.7z"/>
				</g>
				<g>
					<path class="st6" d="M339.9,295.7c1,0,1-1.6,0-1.6S338.8,295.7,339.9,295.7L339.9,295.7z"/>
				</g>
			</g>
		</g>
	</g>
</g>
<g id="DESIGNED_BY_FREEPIK">
</g>
</svg>
