<?xml version="1.0" encoding="utf-8"?>
<!-- Generator: Adobe Illustrator 24.3.0, SVG Export Plug-In . SVG Version: 6.00 Build 0)  -->
<svg version="1.1" id="Layer_1" xmlns="http://www.w3.org/2000/svg" xmlns:xlink="http://www.w3.org/1999/xlink" x="0px" y="0px"
	 viewBox="0 0 512 512" style="enable-background:new 0 0 512 512;" xml:space="preserve">
<style type="text/css">
	.st0{fill:#353744;}
	.st1{fill:#808080;}
	.st2{fill:#55525B;}
	.st3{fill:#103372;}
	.st4{fill:#3A3EA3;}
	.st5{fill:#F6B800;}
	.st6{fill:#FFDD4B;}
	.st7{fill:#DBDEE3;}
</style>
<g>
	<g>
		<path class="st0" d="M408,328V80c0-17.7-14.3-32-32-32h48c17.7,0,32,14.3,32,32v248c0,13.3-10.7,24-24,24S408,341.3,408,328z"/>
	</g>
	<path class="st1" d="M448,352h-16c-2.8,0-5.5-0.6-8-1.5V384c0,23.6-12.9,44.3-32,55.3v8.7c0,17.7-14.3,32-32,32
		c52.9,0,96-43.1,96-96v-33.5C453.5,351.4,450.8,352,448,352z"/>
	<g>
		<path class="st0" d="M424,32c-26.5,0-48,21.5-48,48v112h16V80c0-17.7,14.3-32,32-32s32,14.3,32,32v248c0,13.3-10.7,24-24,24h16
			c13.3,0,24-10.7,24-24V80C472,53.5,450.5,32,424,32z"/>
	</g>
	<g>
		<g>
			<path class="st0" d="M280,192V80c0-17.7-14.3-32-32-32h48c17.7,0,32,14.3,32,32v112H280z"/>
		</g>
		<g>
			<path class="st2" d="M296,32h-48c-26.5,0-48,21.5-48,48v112h48V80C248,53.5,269.5,32,296,32z"/>
		</g>
		<g>
			<path class="st0" d="M296,32c-26.5,0-48,21.5-48,48v112h16V80c0-17.7,14.3-32,32-32s32,14.3,32,32v112h16V80
				C344,53.5,322.5,32,296,32z"/>
		</g>
	</g>
	<g>
		<g>
			<path class="st0" d="M408,328V80c0-17.7-14.3-32-32-32h48c17.7,0,32,14.3,32,32v248c0,13.3-10.7,24-24,24S408,341.3,408,328z"/>
		</g>
		<g>
			<path class="st2" d="M424,32h-48c-26.5,0-48,21.5-48,48v112h48V80C376,53.5,397.5,32,424,32z"/>
		</g>
	</g>
	<g>
		<path class="st3" d="M264,64h-80c-70.7,0-128,57.3-128,128v256c0,17.7,14.3,32,32,32h272c17.7,0,32-14.3,32-32V192
			C392,121.3,334.7,64,264,64z"/>
	</g>
	<g>
		<path class="st4" d="M184,64c-70.7,0-128,57.3-128,128v256c0,17.7,14.3,32,32,32h192c17.7,0,32-14.3,32-32V192
			C312,121.3,254.7,64,184,64z"/>
	</g>
	<g>
		<path class="st5" d="M248,240H72c-17.7,0-32,14.3-32,32v144c0,17.7,14.3,32,32,32h176c17.7,0,32-14.3,32-32V272
			C280,254.3,265.7,240,248,240z"/>
	</g>
	<g>
		<path class="st6" d="M200,240H72c-17.7,0-32,14.3-32,32v144c0,17.7,14.3,32,32,32h128c17.7,0,32-14.3,32-32V272
			C232,254.3,217.7,240,200,240z"/>
	</g>
	<g>
		<path class="st5" d="M40,288h192v16H40V288z"/>
	</g>
	<g>
		<path class="st7" d="M236,160H128c-4.4,0-8-3.6-8-8s3.6-8,8-8h108c4.4,0,8,3.6,8,8S240.4,160,236,160z"/>
	</g>
	<g>
		<path class="st7" d="M344,192v24c0,4.4,3.6,8,8,8s8-3.6,8-8v-24c0-70.7-57.3-128-128-128h-16C286.7,64,344,121.3,344,192z"/>
	</g>
</g>
</svg>
